STARTFONT 2.1
FONT -FontForge-m5x7-Medium-R-Normal--16-150-75-75-P-56-ISO10646-1
SIZE 15 75 75
FONTBOUNDINGBOX 12 13 -1 -2
COMMENT "Generated by fontforge, http://fontforge.sourceforge.net"
COMMENT "managore"
STARTPROPERTIES 40
FOUNDRY "FontForge"
FAMILY_NAME "m5x7"
WEIGHT_NAME "Medium"
SLANT "R"
SETWIDTH_NAME "Normal"
ADD_STYLE_NAME ""
PIXEL_SIZE 16
POINT_SIZE 150
RESOLUTION_X 75
RESOLUTION_Y 75
SPACING "P"
AVERAGE_WIDTH 56
CHARSET_REGISTRY "ISO10646"
CHARSET_ENCODING "1"
FONTNAME_REGISTRY ""
CHARSET_COLLECTIONS "ISO8859-2 ISO8859-9 ISO8859-4 ISO10646-1"
FONT_NAME "m5x7"
FACE_NAME "m5x7"
COPYRIGHT "managore"
FONT_VERSION "001.000"
FONT_ASCENT 12
FONT_DESCENT 4
UNDERLINE_POSITION -2
UNDERLINE_THICKNESS 1
X_HEIGHT 4
CAP_HEIGHT 6
RAW_ASCENT 750
RAW_DESCENT 250
NORM_SPACE 5
RELATIVE_WEIGHT 50
RELATIVE_SETWIDTH 50
SUPERSCRIPT_X 0
SUPERSCRIPT_Y 7
SUPERSCRIPT_SIZE 11
SUBSCRIPT_X 0
SUBSCRIPT_Y 2
SUBSCRIPT_SIZE 11
FIGURE_WIDTH 6
AVG_LOWERCASE_WIDTH 55
AVG_UPPERCASE_WIDTH 61
ENDPROPERTIES
CHARS 322
STARTCHAR space
ENCODING 32
SWIDTH 312 0
DWIDTH 5 0
BBX 1 1 0 0
BITMAP
00
ENDCHAR
STARTCHAR exclam
ENCODING 33
SWIDTH 125 0
DWIDTH 2 0
BBX 1 7 0 0
BITMAP
80
80
80
80
80
00
80
ENDCHAR
STARTCHAR quotedbl
ENCODING 34
SWIDTH 250 0
DWIDTH 4 0
BBX 3 2 0 5
BITMAP
A0
A0
ENDCHAR
STARTCHAR numbersign
ENCODING 35
SWIDTH 375 0
DWIDTH 6 0
BBX 5 6 0 0
BITMAP
50
F8
50
50
F8
50
ENDCHAR
STARTCHAR dollar
ENCODING 36
SWIDTH 375 0
DWIDTH 6 0
BBX 5 7 0 0
BITMAP
20
78
A0
70
28
F0
20
ENDCHAR
STARTCHAR percent
ENCODING 37
SWIDTH 375 0
DWIDTH 6 0
BBX 5 7 0 0
BITMAP
C8
C8
10
20
40
98
98
ENDCHAR
STARTCHAR ampersand
ENCODING 38
SWIDTH 437 0
DWIDTH 7 0
BBX 6 7 0 0
BITMAP
20
50
50
60
88
88
74
ENDCHAR
STARTCHAR quotesingle
ENCODING 39
SWIDTH 125 0
DWIDTH 2 0
BBX 1 2 0 5
BITMAP
80
80
ENDCHAR
STARTCHAR parenleft
ENCODING 40
SWIDTH 187 0
DWIDTH 3 0
BBX 2 8 0 -1
BITMAP
40
80
80
80
80
80
80
40
ENDCHAR
STARTCHAR parenright
ENCODING 41
SWIDTH 187 0
DWIDTH 3 0
BBX 2 8 0 -1
BITMAP
80
40
40
40
40
40
40
80
ENDCHAR
STARTCHAR asterisk
ENCODING 42
SWIDTH 250 0
DWIDTH 4 0
BBX 3 3 0 4
BITMAP
A0
40
A0
ENDCHAR
STARTCHAR plus
ENCODING 43
SWIDTH 375 0
DWIDTH 6 0
BBX 5 5 0 1
BITMAP
20
20
F8
20
20
ENDCHAR
STARTCHAR comma
ENCODING 44
SWIDTH 187 0
DWIDTH 3 0
BBX 2 2 0 -1
BITMAP
40
80
ENDCHAR
STARTCHAR hyphen
ENCODING 45
SWIDTH 375 0
DWIDTH 6 0
BBX 5 1 0 3
BITMAP
F8
ENDCHAR
STARTCHAR period
ENCODING 46
SWIDTH 125 0
DWIDTH 2 0
BBX 1 1 0 0
BITMAP
80
ENDCHAR
STARTCHAR slash
ENCODING 47
SWIDTH 250 0
DWIDTH 4 0
BBX 3 7 0 0
BITMAP
20
20
40
40
40
80
80
ENDCHAR
STARTCHAR zero
ENCODING 48
SWIDTH 375 0
DWIDTH 6 0
BBX 5 7 0 0
BITMAP
70
88
88
88
88
88
70
ENDCHAR
STARTCHAR one
ENCODING 49
SWIDTH 375 0
DWIDTH 6 0
BBX 5 7 0 0
BITMAP
20
60
20
20
20
20
F8
ENDCHAR
STARTCHAR two
ENCODING 50
SWIDTH 375 0
DWIDTH 6 0
BBX 5 7 0 0
BITMAP
70
88
08
10
20
40
F8
ENDCHAR
STARTCHAR three
ENCODING 51
SWIDTH 375 0
DWIDTH 6 0
BBX 5 7 0 0
BITMAP
70
88
08
30
08
88
70
ENDCHAR
STARTCHAR four
ENCODING 52
SWIDTH 375 0
DWIDTH 6 0
BBX 5 7 0 0
BITMAP
10
30
50
90
F8
10
10
ENDCHAR
STARTCHAR five
ENCODING 53
SWIDTH 375 0
DWIDTH 6 0
BBX 5 7 0 0
BITMAP
F8
80
F0
08
08
08
F0
ENDCHAR
STARTCHAR six
ENCODING 54
SWIDTH 375 0
DWIDTH 6 0
BBX 5 7 0 0
BITMAP
70
80
F0
88
88
88
70
ENDCHAR
STARTCHAR seven
ENCODING 55
SWIDTH 375 0
DWIDTH 6 0
BBX 5 7 0 0
BITMAP
F8
08
08
10
10
20
20
ENDCHAR
STARTCHAR eight
ENCODING 56
SWIDTH 375 0
DWIDTH 6 0
BBX 5 7 0 0
BITMAP
70
88
88
70
88
88
70
ENDCHAR
STARTCHAR nine
ENCODING 57
SWIDTH 375 0
DWIDTH 6 0
BBX 5 7 0 0
BITMAP
70
88
88
88
78
08
70
ENDCHAR
STARTCHAR colon
ENCODING 58
SWIDTH 125 0
DWIDTH 2 0
BBX 1 4 0 0
BITMAP
80
00
00
80
ENDCHAR
STARTCHAR semicolon
ENCODING 59
SWIDTH 187 0
DWIDTH 3 0
BBX 2 5 0 -1
BITMAP
40
00
00
40
80
ENDCHAR
STARTCHAR less
ENCODING 60
SWIDTH 250 0
DWIDTH 4 0
BBX 3 5 0 1
BITMAP
20
40
80
40
20
ENDCHAR
STARTCHAR equal
ENCODING 61
SWIDTH 312 0
DWIDTH 5 0
BBX 4 3 0 2
BITMAP
F0
00
F0
ENDCHAR
STARTCHAR greater
ENCODING 62
SWIDTH 250 0
DWIDTH 4 0
BBX 3 5 0 1
BITMAP
80
40
20
40
80
ENDCHAR
STARTCHAR question
ENCODING 63
SWIDTH 375 0
DWIDTH 6 0
BBX 5 7 0 0
BITMAP
70
88
08
10
20
00
20
ENDCHAR
STARTCHAR at
ENCODING 64
SWIDTH 375 0
DWIDTH 6 0
BBX 5 7 0 0
BITMAP
70
88
B8
A8
B8
80
78
ENDCHAR
STARTCHAR A
ENCODING 65
SWIDTH 375 0
DWIDTH 6 0
BBX 5 7 0 0
BITMAP
70
88
88
88
F8
88
88
ENDCHAR
STARTCHAR B
ENCODING 66
SWIDTH 375 0
DWIDTH 6 0
BBX 5 7 0 0
BITMAP
F0
88
F0
88
88
88
F0
ENDCHAR
STARTCHAR C
ENCODING 67
SWIDTH 375 0
DWIDTH 6 0
BBX 5 7 0 0
BITMAP
38
40
80
80
80
80
78
ENDCHAR
STARTCHAR D
ENCODING 68
SWIDTH 375 0
DWIDTH 6 0
BBX 5 7 0 0
BITMAP
E0
90
88
88
88
88
F0
ENDCHAR
STARTCHAR E
ENCODING 69
SWIDTH 375 0
DWIDTH 6 0
BBX 5 7 0 0
BITMAP
78
80
F0
80
80
80
78
ENDCHAR
STARTCHAR F
ENCODING 70
SWIDTH 375 0
DWIDTH 6 0
BBX 5 7 0 0
BITMAP
78
80
F0
80
80
80
80
ENDCHAR
STARTCHAR G
ENCODING 71
SWIDTH 375 0
DWIDTH 6 0
BBX 5 7 0 0
BITMAP
70
88
80
B8
88
88
70
ENDCHAR
STARTCHAR H
ENCODING 72
SWIDTH 375 0
DWIDTH 6 0
BBX 5 7 0 0
BITMAP
88
88
F8
88
88
88
88
ENDCHAR
STARTCHAR I
ENCODING 73
SWIDTH 375 0
DWIDTH 6 0
BBX 5 7 0 0
BITMAP
F8
20
20
20
20
20
F8
ENDCHAR
STARTCHAR J
ENCODING 74
SWIDTH 375 0
DWIDTH 6 0
BBX 5 7 0 0
BITMAP
F8
08
08
08
08
10
E0
ENDCHAR
STARTCHAR K
ENCODING 75
SWIDTH 375 0
DWIDTH 6 0
BBX 5 7 0 0
BITMAP
88
88
90
E0
90
88
88
ENDCHAR
STARTCHAR L
ENCODING 76
SWIDTH 375 0
DWIDTH 6 0
BBX 5 7 0 0
BITMAP
80
80
80
80
80
80
78
ENDCHAR
STARTCHAR M
ENCODING 77
SWIDTH 500 0
DWIDTH 8 0
BBX 7 7 0 0
BITMAP
6C
92
92
92
92
92
82
ENDCHAR
STARTCHAR N
ENCODING 78
SWIDTH 375 0
DWIDTH 6 0
BBX 5 7 0 0
BITMAP
E0
90
88
88
88
88
88
ENDCHAR
STARTCHAR O
ENCODING 79
SWIDTH 375 0
DWIDTH 6 0
BBX 5 7 0 0
BITMAP
70
88
88
88
88
88
70
ENDCHAR
STARTCHAR P
ENCODING 80
SWIDTH 375 0
DWIDTH 6 0
BBX 5 7 0 0
BITMAP
F0
88
88
88
F0
80
80
ENDCHAR
STARTCHAR Q
ENCODING 81
SWIDTH 375 0
DWIDTH 6 0
BBX 5 7 0 0
BITMAP
70
88
88
88
A8
90
68
ENDCHAR
STARTCHAR R
ENCODING 82
SWIDTH 375 0
DWIDTH 6 0
BBX 5 7 0 0
BITMAP
F0
88
88
88
F0
88
88
ENDCHAR
STARTCHAR S
ENCODING 83
SWIDTH 375 0
DWIDTH 6 0
BBX 5 7 0 0
BITMAP
78
80
80
70
08
08
F0
ENDCHAR
STARTCHAR T
ENCODING 84
SWIDTH 375 0
DWIDTH 6 0
BBX 5 7 0 0
BITMAP
F8
20
20
20
20
20
20
ENDCHAR
STARTCHAR U
ENCODING 85
SWIDTH 375 0
DWIDTH 6 0
BBX 5 7 0 0
BITMAP
88
88
88
88
88
88
70
ENDCHAR
STARTCHAR V
ENCODING 86
SWIDTH 375 0
DWIDTH 6 0
BBX 5 7 0 0
BITMAP
88
88
88
88
88
50
20
ENDCHAR
STARTCHAR W
ENCODING 87
SWIDTH 500 0
DWIDTH 8 0
BBX 7 7 0 0
BITMAP
82
82
92
92
92
92
6C
ENDCHAR
STARTCHAR X
ENCODING 88
SWIDTH 375 0
DWIDTH 6 0
BBX 5 7 0 0
BITMAP
88
88
50
20
50
88
88
ENDCHAR
STARTCHAR Y
ENCODING 89
SWIDTH 375 0
DWIDTH 6 0
BBX 5 7 0 0
BITMAP
88
88
88
50
20
20
20
ENDCHAR
STARTCHAR Z
ENCODING 90
SWIDTH 375 0
DWIDTH 6 0
BBX 5 7 0 0
BITMAP
F8
08
10
20
40
80
F8
ENDCHAR
STARTCHAR bracketleft
ENCODING 91
SWIDTH 187 0
DWIDTH 3 0
BBX 2 8 0 -1
BITMAP
C0
80
80
80
80
80
80
C0
ENDCHAR
STARTCHAR backslash
ENCODING 92
SWIDTH 250 0
DWIDTH 4 0
BBX 3 7 0 0
BITMAP
80
80
40
40
40
20
20
ENDCHAR
STARTCHAR bracketright
ENCODING 93
SWIDTH 187 0
DWIDTH 3 0
BBX 2 8 0 -1
BITMAP
C0
40
40
40
40
40
40
C0
ENDCHAR
STARTCHAR asciicircum
ENCODING 94
SWIDTH 375 0
DWIDTH 6 0
BBX 5 3 0 4
BITMAP
20
50
88
ENDCHAR
STARTCHAR underscore
ENCODING 95
SWIDTH 375 0
DWIDTH 6 0
BBX 5 1 0 0
BITMAP
F8
ENDCHAR
STARTCHAR grave
ENCODING 96
SWIDTH 187 0
DWIDTH 3 0
BBX 2 2 0 5
BITMAP
80
40
ENDCHAR
STARTCHAR a
ENCODING 97
SWIDTH 375 0
DWIDTH 6 0
BBX 5 5 0 0
BITMAP
70
08
78
88
78
ENDCHAR
STARTCHAR b
ENCODING 98
SWIDTH 375 0
DWIDTH 6 0
BBX 5 7 0 0
BITMAP
80
80
F0
88
88
88
F0
ENDCHAR
STARTCHAR c
ENCODING 99
SWIDTH 312 0
DWIDTH 5 0
BBX 4 5 0 0
BITMAP
70
80
80
80
70
ENDCHAR
STARTCHAR d
ENCODING 100
SWIDTH 375 0
DWIDTH 6 0
BBX 5 7 0 0
BITMAP
08
08
78
88
88
88
78
ENDCHAR
STARTCHAR e
ENCODING 101
SWIDTH 375 0
DWIDTH 6 0
BBX 5 5 0 0
BITMAP
70
88
F8
80
70
ENDCHAR
STARTCHAR f
ENCODING 102
SWIDTH 312 0
DWIDTH 5 0
BBX 4 7 0 0
BITMAP
30
40
F0
40
40
40
40
ENDCHAR
STARTCHAR g
ENCODING 103
SWIDTH 375 0
DWIDTH 6 0
BBX 5 7 0 -2
BITMAP
70
88
88
88
78
08
70
ENDCHAR
STARTCHAR h
ENCODING 104
SWIDTH 375 0
DWIDTH 6 0
BBX 5 7 0 0
BITMAP
80
80
F0
88
88
88
88
ENDCHAR
STARTCHAR i
ENCODING 105
SWIDTH 187 0
DWIDTH 3 0
BBX 2 7 0 0
BITMAP
40
00
C0
40
40
40
40
ENDCHAR
STARTCHAR j
ENCODING 106
SWIDTH 250 0
DWIDTH 4 0
BBX 3 9 0 -2
BITMAP
20
00
60
20
20
20
20
20
C0
ENDCHAR
STARTCHAR k
ENCODING 107
SWIDTH 312 0
DWIDTH 5 0
BBX 4 7 0 0
BITMAP
80
80
90
A0
C0
A0
90
ENDCHAR
STARTCHAR l
ENCODING 108
SWIDTH 187 0
DWIDTH 3 0
BBX 2 7 0 0
BITMAP
80
80
80
80
80
80
40
ENDCHAR
STARTCHAR m
ENCODING 109
SWIDTH 500 0
DWIDTH 8 0
BBX 7 5 0 0
BITMAP
BC
D2
92
92
92
ENDCHAR
STARTCHAR n
ENCODING 110
SWIDTH 375 0
DWIDTH 6 0
BBX 5 5 0 0
BITMAP
B0
C8
88
88
88
ENDCHAR
STARTCHAR o
ENCODING 111
SWIDTH 375 0
DWIDTH 6 0
BBX 5 5 0 0
BITMAP
70
88
88
88
70
ENDCHAR
STARTCHAR p
ENCODING 112
SWIDTH 375 0
DWIDTH 6 0
BBX 5 7 0 -2
BITMAP
F0
88
88
88
F0
80
80
ENDCHAR
STARTCHAR q
ENCODING 113
SWIDTH 375 0
DWIDTH 6 0
BBX 5 7 0 -2
BITMAP
78
88
88
88
78
08
08
ENDCHAR
STARTCHAR r
ENCODING 114
SWIDTH 312 0
DWIDTH 5 0
BBX 4 5 0 0
BITMAP
B0
C0
80
80
80
ENDCHAR
STARTCHAR s
ENCODING 115
SWIDTH 375 0
DWIDTH 6 0
BBX 5 5 0 0
BITMAP
78
80
70
08
F0
ENDCHAR
STARTCHAR t
ENCODING 116
SWIDTH 312 0
DWIDTH 5 0
BBX 4 7 0 0
BITMAP
40
40
F0
40
40
40
30
ENDCHAR
STARTCHAR u
ENCODING 117
SWIDTH 375 0
DWIDTH 6 0
BBX 5 5 0 0
BITMAP
88
88
88
98
68
ENDCHAR
STARTCHAR v
ENCODING 118
SWIDTH 375 0
DWIDTH 6 0
BBX 5 5 0 0
BITMAP
88
88
88
50
20
ENDCHAR
STARTCHAR w
ENCODING 119
SWIDTH 500 0
DWIDTH 8 0
BBX 7 5 0 0
BITMAP
82
92
92
92
6C
ENDCHAR
STARTCHAR x
ENCODING 120
SWIDTH 375 0
DWIDTH 6 0
BBX 5 5 0 0
BITMAP
88
50
20
50
88
ENDCHAR
STARTCHAR y
ENCODING 121
SWIDTH 375 0
DWIDTH 6 0
BBX 5 7 0 -2
BITMAP
88
88
88
88
78
08
70
ENDCHAR
STARTCHAR z
ENCODING 122
SWIDTH 375 0
DWIDTH 6 0
BBX 5 5 0 0
BITMAP
F8
10
20
40
F8
ENDCHAR
STARTCHAR braceleft
ENCODING 123
SWIDTH 250 0
DWIDTH 4 0
BBX 3 8 0 -1
BITMAP
60
40
40
C0
40
40
40
60
ENDCHAR
STARTCHAR bar
ENCODING 124
SWIDTH 125 0
DWIDTH 2 0
BBX 1 7 0 0
BITMAP
80
80
80
80
80
80
80
ENDCHAR
STARTCHAR braceright
ENCODING 125
SWIDTH 250 0
DWIDTH 4 0
BBX 3 8 0 -1
BITMAP
C0
40
40
60
40
40
40
C0
ENDCHAR
STARTCHAR asciitilde
ENCODING 126
SWIDTH 375 0
DWIDTH 6 0
BBX 5 3 0 2
BITMAP
40
A8
10
ENDCHAR
STARTCHAR uni00A0
ENCODING 160
SWIDTH 312 0
DWIDTH 5 0
BBX 1 1 0 0
BITMAP
00
ENDCHAR
STARTCHAR exclamdown
ENCODING 161
SWIDTH 125 0
DWIDTH 2 0
BBX 1 7 0 -2
BITMAP
80
00
80
80
80
80
80
ENDCHAR
STARTCHAR cent
ENCODING 162
SWIDTH 375 0
DWIDTH 6 0
BBX 5 7 0 0
BITMAP
20
70
A8
A0
A8
70
20
ENDCHAR
STARTCHAR sterling
ENCODING 163
SWIDTH 375 0
DWIDTH 6 0
BBX 5 7 0 0
BITMAP
30
48
40
40
E0
40
F8
ENDCHAR
STARTCHAR currency
ENCODING 164
SWIDTH 375 0
DWIDTH 6 0
BBX 5 5 0 1
BITMAP
88
70
50
70
88
ENDCHAR
STARTCHAR yen
ENCODING 165
SWIDTH 375 0
DWIDTH 6 0
BBX 5 7 0 0
BITMAP
88
50
20
F8
20
F8
20
ENDCHAR
STARTCHAR brokenbar
ENCODING 166
SWIDTH 125 0
DWIDTH 2 0
BBX 1 7 0 0
BITMAP
80
80
80
00
80
80
80
ENDCHAR
STARTCHAR section
ENCODING 167
SWIDTH 375 0
DWIDTH 6 0
BBX 5 7 0 -1
BITMAP
70
88
60
50
30
88
70
ENDCHAR
STARTCHAR dieresis
ENCODING 168
SWIDTH 250 0
DWIDTH 4 0
BBX 3 1 0 6
BITMAP
A0
ENDCHAR
STARTCHAR copyright
ENCODING 169
SWIDTH 437 0
DWIDTH 7 0
BBX 6 7 0 0
BITMAP
78
84
B4
A4
B4
84
78
ENDCHAR
STARTCHAR ordfeminine
ENCODING 170
SWIDTH 250 0
DWIDTH 4 0
BBX 3 4 0 3
BITMAP
C0
60
A0
E0
ENDCHAR
STARTCHAR guillemotleft
ENCODING 171
SWIDTH 375 0
DWIDTH 6 0
BBX 5 5 0 1
BITMAP
28
50
A0
50
28
ENDCHAR
STARTCHAR logicalnot
ENCODING 172
SWIDTH 375 0
DWIDTH 6 0
BBX 5 2 0 3
BITMAP
F8
08
ENDCHAR
STARTCHAR registered
ENCODING 174
SWIDTH 437 0
DWIDTH 7 0
BBX 6 7 0 0
BITMAP
78
84
B4
A4
A4
84
78
ENDCHAR
STARTCHAR macron
ENCODING 175
SWIDTH 375 0
DWIDTH 6 0
BBX 5 1 0 6
BITMAP
F8
ENDCHAR
STARTCHAR degree
ENCODING 176
SWIDTH 250 0
DWIDTH 4 0
BBX 3 3 0 4
BITMAP
E0
A0
E0
ENDCHAR
STARTCHAR plusminus
ENCODING 177
SWIDTH 375 0
DWIDTH 6 0
BBX 5 5 0 1
BITMAP
20
20
F8
20
F8
ENDCHAR
STARTCHAR uni00B2
ENCODING 178
SWIDTH 250 0
DWIDTH 4 0
BBX 3 4 0 3
BITMAP
C0
20
40
E0
ENDCHAR
STARTCHAR uni00B3
ENCODING 179
SWIDTH 250 0
DWIDTH 4 0
BBX 3 4 0 3
BITMAP
C0
60
20
C0
ENDCHAR
STARTCHAR acute
ENCODING 180
SWIDTH 187 0
DWIDTH 3 0
BBX 2 2 0 5
BITMAP
40
80
ENDCHAR
STARTCHAR uni00B5
ENCODING 181
SWIDTH 375 0
DWIDTH 6 0
BBX 5 7 0 -2
BITMAP
88
88
88
88
F0
80
80
ENDCHAR
STARTCHAR paragraph
ENCODING 182
SWIDTH 375 0
DWIDTH 6 0
BBX 5 7 0 0
BITMAP
78
E8
E8
E8
68
28
28
ENDCHAR
STARTCHAR periodcentered
ENCODING 183
SWIDTH 125 0
DWIDTH 2 0
BBX 1 1 0 3
BITMAP
80
ENDCHAR
STARTCHAR cedilla
ENCODING 184
SWIDTH 187 0
DWIDTH 3 0
BBX 2 2 0 -1
BITMAP
40
80
ENDCHAR
STARTCHAR uni00B9
ENCODING 185
SWIDTH 250 0
DWIDTH 4 0
BBX 3 4 0 3
BITMAP
40
C0
40
E0
ENDCHAR
STARTCHAR ordmasculine
ENCODING 186
SWIDTH 250 0
DWIDTH 4 0
BBX 3 4 0 3
BITMAP
40
A0
A0
40
ENDCHAR
STARTCHAR guillemotright
ENCODING 187
SWIDTH 375 0
DWIDTH 6 0
BBX 5 5 0 1
BITMAP
A0
50
28
50
A0
ENDCHAR
STARTCHAR onequarter
ENCODING 188
SWIDTH 500 0
DWIDTH 8 0
BBX 7 7 0 0
BITMAP
C2
44
40
EA
0A
4E
82
ENDCHAR
STARTCHAR onehalf
ENCODING 189
SWIDTH 500 0
DWIDTH 8 0
BBX 7 7 0 0
BITMAP
C2
44
40
EC
02
44
8E
ENDCHAR
STARTCHAR threequarters
ENCODING 190
SWIDTH 500 0
DWIDTH 8 0
BBX 7 7 0 0
BITMAP
C2
64
20
CA
0A
4E
82
ENDCHAR
STARTCHAR questiondown
ENCODING 191
SWIDTH 375 0
DWIDTH 6 0
BBX 5 7 0 -2
BITMAP
20
00
20
40
80
88
70
ENDCHAR
STARTCHAR Agrave
ENCODING 192
SWIDTH 375 0
DWIDTH 6 0
BBX 5 10 0 0
BITMAP
40
20
00
70
88
88
88
F8
88
88
ENDCHAR
STARTCHAR Aacute
ENCODING 193
SWIDTH 375 0
DWIDTH 6 0
BBX 5 10 0 0
BITMAP
10
20
00
70
88
88
88
F8
88
88
ENDCHAR
STARTCHAR Acircumflex
ENCODING 194
SWIDTH 375 0
DWIDTH 6 0
BBX 5 10 0 0
BITMAP
20
50
00
70
88
88
88
F8
88
88
ENDCHAR
STARTCHAR Atilde
ENCODING 195
SWIDTH 375 0
DWIDTH 6 0
BBX 5 10 0 0
BITMAP
50
A0
00
70
88
88
88
F8
88
88
ENDCHAR
STARTCHAR Adieresis
ENCODING 196
SWIDTH 375 0
DWIDTH 6 0
BBX 5 9 0 0
BITMAP
50
00
70
88
88
88
F8
88
88
ENDCHAR
STARTCHAR Aring
ENCODING 197
SWIDTH 375 0
DWIDTH 6 0
BBX 5 9 0 0
BITMAP
20
50
70
88
88
88
F8
88
88
ENDCHAR
STARTCHAR AE
ENCODING 198
SWIDTH 500 0
DWIDTH 8 0
BBX 7 7 0 0
BITMAP
7E
90
9C
90
F0
90
9E
ENDCHAR
STARTCHAR Ccedilla
ENCODING 199
SWIDTH 375 0
DWIDTH 6 0
BBX 5 9 0 -2
BITMAP
38
40
80
80
80
80
78
10
20
ENDCHAR
STARTCHAR Egrave
ENCODING 200
SWIDTH 375 0
DWIDTH 6 0
BBX 5 10 0 0
BITMAP
40
20
00
78
80
F0
80
80
80
78
ENDCHAR
STARTCHAR Eacute
ENCODING 201
SWIDTH 375 0
DWIDTH 6 0
BBX 5 10 0 0
BITMAP
10
20
00
78
80
F0
80
80
80
78
ENDCHAR
STARTCHAR Ecircumflex
ENCODING 202
SWIDTH 375 0
DWIDTH 6 0
BBX 5 10 0 0
BITMAP
20
50
00
78
80
F0
80
80
80
78
ENDCHAR
STARTCHAR Edieresis
ENCODING 203
SWIDTH 375 0
DWIDTH 6 0
BBX 5 9 0 0
BITMAP
50
00
78
80
F0
80
80
80
78
ENDCHAR
STARTCHAR Igrave
ENCODING 204
SWIDTH 375 0
DWIDTH 6 0
BBX 5 10 0 0
BITMAP
40
20
00
F8
20
20
20
20
20
F8
ENDCHAR
STARTCHAR Iacute
ENCODING 205
SWIDTH 375 0
DWIDTH 6 0
BBX 5 10 0 0
BITMAP
10
20
00
F8
20
20
20
20
20
F8
ENDCHAR
STARTCHAR Icircumflex
ENCODING 206
SWIDTH 375 0
DWIDTH 6 0
BBX 5 10 0 0
BITMAP
20
50
00
F8
20
20
20
20
20
F8
ENDCHAR
STARTCHAR Idieresis
ENCODING 207
SWIDTH 375 0
DWIDTH 6 0
BBX 5 9 0 0
BITMAP
50
00
F8
20
20
20
20
20
F8
ENDCHAR
STARTCHAR Eth
ENCODING 208
SWIDTH 375 0
DWIDTH 6 0
BBX 6 7 -1 0
BITMAP
70
48
44
E4
44
44
78
ENDCHAR
STARTCHAR Ntilde
ENCODING 209
SWIDTH 375 0
DWIDTH 6 0
BBX 5 10 0 0
BITMAP
50
A0
00
E0
90
88
88
88
88
88
ENDCHAR
STARTCHAR Ograve
ENCODING 210
SWIDTH 375 0
DWIDTH 6 0
BBX 5 10 0 0
BITMAP
40
20
00
70
88
88
88
88
88
70
ENDCHAR
STARTCHAR Oacute
ENCODING 211
SWIDTH 375 0
DWIDTH 6 0
BBX 5 10 0 0
BITMAP
10
20
00
70
88
88
88
88
88
70
ENDCHAR
STARTCHAR Ocircumflex
ENCODING 212
SWIDTH 375 0
DWIDTH 6 0
BBX 5 10 0 0
BITMAP
20
50
00
70
88
88
88
88
88
70
ENDCHAR
STARTCHAR Otilde
ENCODING 213
SWIDTH 375 0
DWIDTH 6 0
BBX 5 10 0 0
BITMAP
50
A0
00
70
88
88
88
88
88
70
ENDCHAR
STARTCHAR Odieresis
ENCODING 214
SWIDTH 375 0
DWIDTH 6 0
BBX 5 9 0 0
BITMAP
50
00
70
88
88
88
88
88
70
ENDCHAR
STARTCHAR multiply
ENCODING 215
SWIDTH 375 0
DWIDTH 6 0
BBX 5 5 0 1
BITMAP
88
50
20
50
88
ENDCHAR
STARTCHAR Oslash
ENCODING 216
SWIDTH 437 0
DWIDTH 7 0
BBX 7 7 -1 0
BITMAP
3A
44
4C
54
64
44
B8
ENDCHAR
STARTCHAR Ugrave
ENCODING 217
SWIDTH 375 0
DWIDTH 6 0
BBX 5 10 0 0
BITMAP
40
20
00
88
88
88
88
88
88
70
ENDCHAR
STARTCHAR Uacute
ENCODING 218
SWIDTH 375 0
DWIDTH 6 0
BBX 5 10 0 0
BITMAP
10
20
00
88
88
88
88
88
88
70
ENDCHAR
STARTCHAR Ucircumflex
ENCODING 219
SWIDTH 375 0
DWIDTH 6 0
BBX 5 10 0 0
BITMAP
20
50
00
88
88
88
88
88
88
70
ENDCHAR
STARTCHAR Udieresis
ENCODING 220
SWIDTH 375 0
DWIDTH 6 0
BBX 5 9 0 0
BITMAP
50
00
88
88
88
88
88
88
70
ENDCHAR
STARTCHAR Yacute
ENCODING 221
SWIDTH 375 0
DWIDTH 6 0
BBX 5 10 0 0
BITMAP
10
20
00
88
88
88
50
20
20
20
ENDCHAR
STARTCHAR Thorn
ENCODING 222
SWIDTH 375 0
DWIDTH 6 0
BBX 5 7 0 0
BITMAP
80
F0
88
88
88
F0
80
ENDCHAR
STARTCHAR germandbls
ENCODING 223
SWIDTH 375 0
DWIDTH 6 0
BBX 5 7 0 0
BITMAP
70
88
88
90
88
88
B0
ENDCHAR
STARTCHAR agrave
ENCODING 224
SWIDTH 375 0
DWIDTH 6 0
BBX 5 8 0 0
BITMAP
40
20
00
70
08
78
88
78
ENDCHAR
STARTCHAR aacute
ENCODING 225
SWIDTH 375 0
DWIDTH 6 0
BBX 5 8 0 0
BITMAP
10
20
00
70
08
78
88
78
ENDCHAR
STARTCHAR acircumflex
ENCODING 226
SWIDTH 375 0
DWIDTH 6 0
BBX 5 8 0 0
BITMAP
20
50
00
70
08
78
88
78
ENDCHAR
STARTCHAR atilde
ENCODING 227
SWIDTH 375 0
DWIDTH 6 0
BBX 5 8 0 0
BITMAP
28
50
00
70
08
78
88
78
ENDCHAR
STARTCHAR adieresis
ENCODING 228
SWIDTH 375 0
DWIDTH 6 0
BBX 5 7 0 0
BITMAP
50
00
70
08
78
88
78
ENDCHAR
STARTCHAR aring
ENCODING 229
SWIDTH 375 0
DWIDTH 6 0
BBX 5 8 0 0
BITMAP
20
50
20
70
08
78
88
78
ENDCHAR
STARTCHAR ae
ENCODING 230
SWIDTH 500 0
DWIDTH 8 0
BBX 7 5 0 0
BITMAP
7C
12
7E
90
7C
ENDCHAR
STARTCHAR ccedilla
ENCODING 231
SWIDTH 312 0
DWIDTH 5 0
BBX 4 7 0 -2
BITMAP
70
80
80
80
70
20
40
ENDCHAR
STARTCHAR egrave
ENCODING 232
SWIDTH 375 0
DWIDTH 6 0
BBX 5 8 0 0
BITMAP
40
20
00
70
88
F8
80
70
ENDCHAR
STARTCHAR eacute
ENCODING 233
SWIDTH 375 0
DWIDTH 6 0
BBX 5 8 0 0
BITMAP
10
20
00
70
88
F8
80
70
ENDCHAR
STARTCHAR ecircumflex
ENCODING 234
SWIDTH 375 0
DWIDTH 6 0
BBX 5 8 0 0
BITMAP
20
50
00
70
88
F8
80
70
ENDCHAR
STARTCHAR edieresis
ENCODING 235
SWIDTH 375 0
DWIDTH 6 0
BBX 5 7 0 0
BITMAP
50
00
70
88
F8
80
70
ENDCHAR
STARTCHAR igrave
ENCODING 236
SWIDTH 187 0
DWIDTH 3 0
BBX 2 8 0 0
BITMAP
80
40
00
C0
40
40
40
40
ENDCHAR
STARTCHAR iacute
ENCODING 237
SWIDTH 250 0
DWIDTH 4 0
BBX 3 8 0 0
BITMAP
20
40
00
C0
40
40
40
40
ENDCHAR
STARTCHAR icircumflex
ENCODING 238
SWIDTH 250 0
DWIDTH 4 0
BBX 3 8 0 0
BITMAP
40
A0
00
C0
40
40
40
40
ENDCHAR
STARTCHAR idieresis
ENCODING 239
SWIDTH 250 0
DWIDTH 4 0
BBX 3 7 0 0
BITMAP
A0
00
C0
40
40
40
40
ENDCHAR
STARTCHAR eth
ENCODING 240
SWIDTH 375 0
DWIDTH 6 0
BBX 5 7 0 0
BITMAP
28
10
70
88
88
88
70
ENDCHAR
STARTCHAR ntilde
ENCODING 241
SWIDTH 375 0
DWIDTH 6 0
BBX 5 8 0 0
BITMAP
50
A0
00
B0
C8
88
88
88
ENDCHAR
STARTCHAR ograve
ENCODING 242
SWIDTH 375 0
DWIDTH 6 0
BBX 5 8 0 0
BITMAP
40
20
00
70
88
88
88
70
ENDCHAR
STARTCHAR oacute
ENCODING 243
SWIDTH 375 0
DWIDTH 6 0
BBX 5 8 0 0
BITMAP
10
20
00
70
88
88
88
70
ENDCHAR
STARTCHAR ocircumflex
ENCODING 244
SWIDTH 375 0
DWIDTH 6 0
BBX 5 8 0 0
BITMAP
20
50
00
70
88
88
88
70
ENDCHAR
STARTCHAR otilde
ENCODING 245
SWIDTH 375 0
DWIDTH 6 0
BBX 5 8 0 0
BITMAP
50
A0
00
70
88
88
88
70
ENDCHAR
STARTCHAR odieresis
ENCODING 246
SWIDTH 375 0
DWIDTH 6 0
BBX 5 7 0 0
BITMAP
50
00
70
88
88
88
70
ENDCHAR
STARTCHAR divide
ENCODING 247
SWIDTH 375 0
DWIDTH 6 0
BBX 5 5 0 1
BITMAP
20
00
F8
00
20
ENDCHAR
STARTCHAR oslash
ENCODING 248
SWIDTH 437 0
DWIDTH 7 0
BBX 7 5 -1 0
BITMAP
3A
4C
54
64
B8
ENDCHAR
STARTCHAR ugrave
ENCODING 249
SWIDTH 375 0
DWIDTH 6 0
BBX 5 8 0 0
BITMAP
40
20
00
88
88
88
98
68
ENDCHAR
STARTCHAR uacute
ENCODING 250
SWIDTH 375 0
DWIDTH 6 0
BBX 5 8 0 0
BITMAP
10
20
00
88
88
88
98
68
ENDCHAR
STARTCHAR ucircumflex
ENCODING 251
SWIDTH 375 0
DWIDTH 6 0
BBX 5 8 0 0
BITMAP
20
50
00
88
88
88
98
68
ENDCHAR
STARTCHAR udieresis
ENCODING 252
SWIDTH 375 0
DWIDTH 6 0
BBX 5 7 0 0
BITMAP
50
00
88
88
88
98
68
ENDCHAR
STARTCHAR yacute
ENCODING 253
SWIDTH 375 0
DWIDTH 6 0
BBX 5 10 0 -2
BITMAP
10
20
00
88
88
88
88
78
08
70
ENDCHAR
STARTCHAR thorn
ENCODING 254
SWIDTH 375 0
DWIDTH 6 0
BBX 5 7 0 -1
BITMAP
80
F0
88
88
88
F0
80
ENDCHAR
STARTCHAR ydieresis
ENCODING 255
SWIDTH 375 0
DWIDTH 6 0
BBX 5 9 0 -2
BITMAP
50
00
88
88
88
88
78
08
70
ENDCHAR
STARTCHAR Amacron
ENCODING 256
SWIDTH 375 0
DWIDTH 6 0
BBX 5 9 0 0
BITMAP
70
00
70
88
88
88
F8
88
88
ENDCHAR
STARTCHAR amacron
ENCODING 257
SWIDTH 375 0
DWIDTH 6 0
BBX 5 7 0 0
BITMAP
70
00
70
08
78
88
78
ENDCHAR
STARTCHAR Abreve
ENCODING 258
SWIDTH 375 0
DWIDTH 6 0
BBX 5 10 0 0
BITMAP
50
20
00
70
88
88
88
F8
88
88
ENDCHAR
STARTCHAR abreve
ENCODING 259
SWIDTH 375 0
DWIDTH 6 0
BBX 5 8 0 0
BITMAP
50
20
00
70
08
78
88
78
ENDCHAR
STARTCHAR Aogonek
ENCODING 260
SWIDTH 375 0
DWIDTH 6 0
BBX 5 9 0 -2
BITMAP
70
88
88
88
F8
88
88
10
08
ENDCHAR
STARTCHAR aogonek
ENCODING 261
SWIDTH 375 0
DWIDTH 6 0
BBX 5 7 0 -2
BITMAP
70
08
78
88
78
10
08
ENDCHAR
STARTCHAR Cacute
ENCODING 262
SWIDTH 375 0
DWIDTH 6 0
BBX 5 7 0 0
BITMAP
38
40
80
80
80
80
78
ENDCHAR
STARTCHAR cacute
ENCODING 263
SWIDTH 312 0
DWIDTH 5 0
BBX 4 8 0 0
BITMAP
10
20
00
70
80
80
80
70
ENDCHAR
STARTCHAR Ccircumflex
ENCODING 264
SWIDTH 375 0
DWIDTH 6 0
BBX 5 10 0 0
BITMAP
20
50
00
38
40
80
80
80
80
78
ENDCHAR
STARTCHAR ccircumflex
ENCODING 265
SWIDTH 312 0
DWIDTH 5 0
BBX 4 8 0 0
BITMAP
20
50
00
70
80
80
80
70
ENDCHAR
STARTCHAR Cdotaccent
ENCODING 266
SWIDTH 375 0
DWIDTH 6 0
BBX 5 9 0 0
BITMAP
20
00
38
40
80
80
80
80
78
ENDCHAR
STARTCHAR cdotaccent
ENCODING 267
SWIDTH 312 0
DWIDTH 5 0
BBX 4 7 0 0
BITMAP
20
00
70
80
80
80
70
ENDCHAR
STARTCHAR Ccaron
ENCODING 268
SWIDTH 375 0
DWIDTH 6 0
BBX 5 10 0 0
BITMAP
50
20
00
38
40
80
80
80
80
78
ENDCHAR
STARTCHAR ccaron
ENCODING 269
SWIDTH 312 0
DWIDTH 5 0
BBX 4 8 0 0
BITMAP
50
20
00
70
80
80
80
70
ENDCHAR
STARTCHAR Dcaron
ENCODING 270
SWIDTH 375 0
DWIDTH 6 0
BBX 5 10 0 0
BITMAP
50
20
00
E0
90
88
88
88
88
F0
ENDCHAR
STARTCHAR dcaron
ENCODING 271
SWIDTH 500 0
DWIDTH 8 0
BBX 7 7 0 0
BITMAP
0A
08
78
88
88
88
78
ENDCHAR
STARTCHAR Dcroat
ENCODING 272
SWIDTH 375 0
DWIDTH 6 0
BBX 6 7 -1 0
BITMAP
70
48
44
E4
44
44
78
ENDCHAR
STARTCHAR dcroat
ENCODING 273
SWIDTH 437 0
DWIDTH 7 0
BBX 6 7 0 0
BITMAP
3C
08
78
88
88
88
78
ENDCHAR
STARTCHAR Emacron
ENCODING 274
SWIDTH 375 0
DWIDTH 6 0
BBX 5 9 0 0
BITMAP
70
00
78
80
F0
80
80
80
78
ENDCHAR
STARTCHAR emacron
ENCODING 275
SWIDTH 375 0
DWIDTH 6 0
BBX 5 7 0 0
BITMAP
70
00
70
88
F8
80
70
ENDCHAR
STARTCHAR Ebreve
ENCODING 276
SWIDTH 375 0
DWIDTH 6 0
BBX 5 10 0 0
BITMAP
50
20
00
78
80
F0
80
80
80
78
ENDCHAR
STARTCHAR ebreve
ENCODING 277
SWIDTH 375 0
DWIDTH 6 0
BBX 5 8 0 0
BITMAP
50
20
00
70
88
F8
80
70
ENDCHAR
STARTCHAR Edotaccent
ENCODING 278
SWIDTH 375 0
DWIDTH 6 0
BBX 5 9 0 0
BITMAP
20
00
78
80
F0
80
80
80
78
ENDCHAR
STARTCHAR edotaccent
ENCODING 279
SWIDTH 375 0
DWIDTH 6 0
BBX 5 7 0 0
BITMAP
20
00
70
88
F8
80
70
ENDCHAR
STARTCHAR Eogonek
ENCODING 280
SWIDTH 375 0
DWIDTH 6 0
BBX 5 9 0 -2
BITMAP
78
80
F0
80
80
80
78
08
10
ENDCHAR
STARTCHAR eogonek
ENCODING 281
SWIDTH 375 0
DWIDTH 6 0
BBX 5 7 0 -2
BITMAP
70
88
F8
80
70
20
40
ENDCHAR
STARTCHAR Ecaron
ENCODING 282
SWIDTH 375 0
DWIDTH 6 0
BBX 5 10 0 0
BITMAP
50
20
00
78
80
F0
80
80
80
78
ENDCHAR
STARTCHAR ecaron
ENCODING 283
SWIDTH 375 0
DWIDTH 6 0
BBX 5 8 0 0
BITMAP
50
20
00
70
88
F8
80
70
ENDCHAR
STARTCHAR Gcircumflex
ENCODING 284
SWIDTH 375 0
DWIDTH 6 0
BBX 5 10 0 0
BITMAP
20
50
00
70
88
80
B8
88
88
70
ENDCHAR
STARTCHAR gcircumflex
ENCODING 285
SWIDTH 375 0
DWIDTH 6 0
BBX 5 10 0 -2
BITMAP
20
50
00
70
88
88
88
78
08
70
ENDCHAR
STARTCHAR Gbreve
ENCODING 286
SWIDTH 375 0
DWIDTH 6 0
BBX 5 10 0 0
BITMAP
50
20
00
70
88
80
B8
88
88
70
ENDCHAR
STARTCHAR gbreve
ENCODING 287
SWIDTH 375 0
DWIDTH 6 0
BBX 5 10 0 -2
BITMAP
50
20
00
70
88
88
88
78
08
70
ENDCHAR
STARTCHAR Gdotaccent
ENCODING 288
SWIDTH 375 0
DWIDTH 6 0
BBX 5 9 0 0
BITMAP
20
00
70
88
80
B8
88
88
70
ENDCHAR
STARTCHAR gdotaccent
ENCODING 289
SWIDTH 375 0
DWIDTH 6 0
BBX 5 9 0 -2
BITMAP
20
00
70
88
88
88
78
08
70
ENDCHAR
STARTCHAR Gcommaaccent
ENCODING 290
SWIDTH 375 0
DWIDTH 6 0
BBX 5 9 0 -2
BITMAP
70
88
80
B8
88
88
70
00
20
ENDCHAR
STARTCHAR gcommaaccent
ENCODING 291
SWIDTH 375 0
DWIDTH 6 0
BBX 5 9 0 -2
BITMAP
20
00
70
88
88
88
78
08
70
ENDCHAR
STARTCHAR Hcircumflex
ENCODING 292
SWIDTH 375 0
DWIDTH 6 0
BBX 5 10 0 0
BITMAP
20
50
00
88
88
F8
88
88
88
88
ENDCHAR
STARTCHAR hcircumflex
ENCODING 293
SWIDTH 375 0
DWIDTH 6 0
BBX 5 10 0 0
BITMAP
20
50
00
80
80
F0
88
88
88
88
ENDCHAR
STARTCHAR Hbar
ENCODING 294
SWIDTH 437 0
DWIDTH 7 0
BBX 7 7 -1 0
BITMAP
FE
44
7C
44
44
44
44
ENDCHAR
STARTCHAR hbar
ENCODING 295
SWIDTH 375 0
DWIDTH 6 0
BBX 6 7 -1 0
BITMAP
F0
40
78
44
44
44
44
ENDCHAR
STARTCHAR Itilde
ENCODING 296
SWIDTH 375 0
DWIDTH 6 0
BBX 5 10 0 0
BITMAP
50
A0
00
F8
20
20
20
20
20
F8
ENDCHAR
STARTCHAR itilde
ENCODING 297
SWIDTH 250 0
DWIDTH 4 0
BBX 4 8 -1 0
BITMAP
50
A0
00
60
20
20
20
20
ENDCHAR
STARTCHAR Imacron
ENCODING 298
SWIDTH 375 0
DWIDTH 6 0
BBX 5 9 0 0
BITMAP
70
00
F8
20
20
20
20
20
F8
ENDCHAR
STARTCHAR imacron
ENCODING 299
SWIDTH 250 0
DWIDTH 4 0
BBX 3 7 0 0
BITMAP
E0
00
C0
40
40
40
40
ENDCHAR
STARTCHAR Ibreve
ENCODING 300
SWIDTH 375 0
DWIDTH 6 0
BBX 5 10 0 0
BITMAP
50
20
00
F8
20
20
20
20
20
F8
ENDCHAR
STARTCHAR ibreve
ENCODING 301
SWIDTH 250 0
DWIDTH 4 0
BBX 3 8 0 0
BITMAP
A0
40
00
C0
40
40
40
40
ENDCHAR
STARTCHAR Iogonek
ENCODING 302
SWIDTH 375 0
DWIDTH 6 0
BBX 5 9 0 -2
BITMAP
F8
20
20
20
20
20
F8
08
10
ENDCHAR
STARTCHAR iogonek
ENCODING 303
SWIDTH 187 0
DWIDTH 3 0
BBX 2 9 0 -2
BITMAP
40
00
C0
40
40
40
40
80
40
ENDCHAR
STARTCHAR Idotaccent
ENCODING 304
SWIDTH 375 0
DWIDTH 6 0
BBX 5 9 0 0
BITMAP
20
00
F8
20
20
20
20
20
F8
ENDCHAR
STARTCHAR dotlessi
ENCODING 305
SWIDTH 187 0
DWIDTH 3 0
BBX 2 5 0 0
BITMAP
C0
40
40
40
40
ENDCHAR
STARTCHAR IJ
ENCODING 306
SWIDTH 750 0
DWIDTH 12 0
BBX 11 7 0 0
BITMAP
FBE0
2020
2020
2020
2020
2040
FB80
ENDCHAR
STARTCHAR ij
ENCODING 307
SWIDTH 375 0
DWIDTH 6 0
BBX 5 9 0 -2
BITMAP
48
00
D8
48
48
48
48
08
30
ENDCHAR
STARTCHAR Jcircumflex
ENCODING 308
SWIDTH 375 0
DWIDTH 6 0
BBX 5 10 0 0
BITMAP
20
50
00
F8
08
08
08
08
10
E0
ENDCHAR
STARTCHAR jcircumflex
ENCODING 309
SWIDTH 312 0
DWIDTH 5 0
BBX 4 10 0 -2
BITMAP
20
50
00
60
20
20
20
20
20
C0
ENDCHAR
STARTCHAR Kcommaaccent
ENCODING 310
SWIDTH 375 0
DWIDTH 6 0
BBX 5 9 0 -2
BITMAP
88
88
90
E0
90
88
88
00
20
ENDCHAR
STARTCHAR kcommaaccent
ENCODING 311
SWIDTH 312 0
DWIDTH 5 0
BBX 4 9 0 -2
BITMAP
80
80
90
A0
C0
A0
90
00
20
ENDCHAR
STARTCHAR kgreenlandic
ENCODING 312
SWIDTH 312 0
DWIDTH 5 0
BBX 4 5 0 0
BITMAP
90
A0
C0
A0
90
ENDCHAR
STARTCHAR Lacute
ENCODING 313
SWIDTH 375 0
DWIDTH 6 0
BBX 5 10 0 0
BITMAP
20
40
00
80
80
80
80
80
80
78
ENDCHAR
STARTCHAR lacute
ENCODING 314
SWIDTH 187 0
DWIDTH 3 0
BBX 2 10 0 0
BITMAP
40
80
00
80
80
80
80
80
80
40
ENDCHAR
STARTCHAR Lcommaaccent
ENCODING 315
SWIDTH 375 0
DWIDTH 6 0
BBX 5 9 0 -2
BITMAP
80
80
80
80
80
80
78
00
20
ENDCHAR
STARTCHAR lcommaaccent
ENCODING 316
SWIDTH 187 0
DWIDTH 3 0
BBX 2 9 0 -2
BITMAP
80
80
80
80
80
80
40
00
80
ENDCHAR
STARTCHAR Lcaron
ENCODING 317
SWIDTH 375 0
DWIDTH 6 0
BBX 5 7 0 0
BITMAP
90
80
80
80
80
80
78
ENDCHAR
STARTCHAR lcaron
ENCODING 318
SWIDTH 250 0
DWIDTH 4 0
BBX 3 7 0 0
BITMAP
A0
80
80
80
80
80
40
ENDCHAR
STARTCHAR Ldot
ENCODING 319
SWIDTH 375 0
DWIDTH 6 0
BBX 5 7 0 0
BITMAP
80
80
80
A0
80
80
78
ENDCHAR
STARTCHAR ldot
ENCODING 320
SWIDTH 250 0
DWIDTH 4 0
BBX 3 7 0 0
BITMAP
80
80
80
A0
80
80
40
ENDCHAR
STARTCHAR Lslash
ENCODING 321
SWIDTH 375 0
DWIDTH 6 0
BBX 6 7 -1 0
BITMAP
40
50
60
40
C0
40
3C
ENDCHAR
STARTCHAR lslash
ENCODING 322
SWIDTH 187 0
DWIDTH 3 0
BBX 3 7 -1 0
BITMAP
40
40
40
60
C0
40
20
ENDCHAR
STARTCHAR Nacute
ENCODING 323
SWIDTH 375 0
DWIDTH 6 0
BBX 5 10 0 0
BITMAP
10
20
00
E0
90
88
88
88
88
88
ENDCHAR
STARTCHAR nacute
ENCODING 324
SWIDTH 375 0
DWIDTH 6 0
BBX 5 8 0 0
BITMAP
10
20
00
B0
C8
88
88
88
ENDCHAR
STARTCHAR Ncommaaccent
ENCODING 325
SWIDTH 375 0
DWIDTH 6 0
BBX 5 9 0 -2
BITMAP
E0
90
88
88
88
88
88
00
20
ENDCHAR
STARTCHAR ncommaaccent
ENCODING 326
SWIDTH 375 0
DWIDTH 6 0
BBX 5 7 0 -2
BITMAP
B0
C8
88
88
88
00
20
ENDCHAR
STARTCHAR Ncaron
ENCODING 327
SWIDTH 375 0
DWIDTH 6 0
BBX 5 10 0 0
BITMAP
50
20
00
E0
90
88
88
88
88
88
ENDCHAR
STARTCHAR ncaron
ENCODING 328
SWIDTH 375 0
DWIDTH 6 0
BBX 5 8 0 0
BITMAP
50
20
00
B0
C8
88
88
88
ENDCHAR
STARTCHAR napostrophe
ENCODING 329
SWIDTH 375 0
DWIDTH 6 0
BBX 6 7 -1 0
BITMAP
80
00
58
64
44
44
44
ENDCHAR
STARTCHAR Eng
ENCODING 330
SWIDTH 375 0
DWIDTH 6 0
BBX 5 7 0 0
BITMAP
B0
C8
88
88
88
88
B0
ENDCHAR
STARTCHAR eng
ENCODING 331
SWIDTH 375 0
DWIDTH 6 0
BBX 5 7 0 -2
BITMAP
B0
C8
88
88
88
08
30
ENDCHAR
STARTCHAR Omacron
ENCODING 332
SWIDTH 375 0
DWIDTH 6 0
BBX 5 9 0 0
BITMAP
70
00
70
88
88
88
88
88
70
ENDCHAR
STARTCHAR omacron
ENCODING 333
SWIDTH 375 0
DWIDTH 6 0
BBX 5 7 0 0
BITMAP
70
00
70
88
88
88
70
ENDCHAR
STARTCHAR Obreve
ENCODING 334
SWIDTH 375 0
DWIDTH 6 0
BBX 5 10 0 0
BITMAP
50
20
00
70
88
88
88
88
88
70
ENDCHAR
STARTCHAR obreve
ENCODING 335
SWIDTH 375 0
DWIDTH 6 0
BBX 5 8 0 0
BITMAP
50
20
00
70
88
88
88
70
ENDCHAR
STARTCHAR Ohungarumlaut
ENCODING 336
SWIDTH 375 0
DWIDTH 6 0
BBX 5 9 0 0
BITMAP
50
00
70
88
88
88
88
88
70
ENDCHAR
STARTCHAR ohungarumlaut
ENCODING 337
SWIDTH 375 0
DWIDTH 6 0
BBX 5 7 0 0
BITMAP
50
00
70
88
88
88
70
ENDCHAR
STARTCHAR OE
ENCODING 338
SWIDTH 500 0
DWIDTH 8 0
BBX 7 7 0 0
BITMAP
6E
90
9C
90
90
90
6E
ENDCHAR
STARTCHAR oe
ENCODING 339
SWIDTH 500 0
DWIDTH 8 0
BBX 7 5 0 0
BITMAP
6C
92
9E
90
6C
ENDCHAR
STARTCHAR Racute
ENCODING 340
SWIDTH 375 0
DWIDTH 6 0
BBX 5 10 0 0
BITMAP
10
20
00
F0
88
88
88
F0
88
88
ENDCHAR
STARTCHAR racute
ENCODING 341
SWIDTH 312 0
DWIDTH 5 0
BBX 4 8 0 0
BITMAP
20
40
00
B0
C0
80
80
80
ENDCHAR
STARTCHAR Rcommaaccent
ENCODING 342
SWIDTH 375 0
DWIDTH 6 0
BBX 5 9 0 -2
BITMAP
F0
88
88
88
F0
88
88
00
20
ENDCHAR
STARTCHAR rcommaaccent
ENCODING 343
SWIDTH 312 0
DWIDTH 5 0
BBX 4 7 0 -2
BITMAP
B0
C0
80
80
80
00
80
ENDCHAR
STARTCHAR Rcaron
ENCODING 344
SWIDTH 375 0
DWIDTH 6 0
BBX 5 10 0 0
BITMAP
50
20
00
F0
88
88
88
F0
88
88
ENDCHAR
STARTCHAR rcaron
ENCODING 345
SWIDTH 312 0
DWIDTH 5 0
BBX 4 8 0 0
BITMAP
A0
40
00
B0
C0
80
80
80
ENDCHAR
STARTCHAR Sacute
ENCODING 346
SWIDTH 375 0
DWIDTH 6 0
BBX 5 10 0 0
BITMAP
10
20
00
78
80
80
70
08
08
F0
ENDCHAR
STARTCHAR sacute
ENCODING 347
SWIDTH 375 0
DWIDTH 6 0
BBX 5 8 0 0
BITMAP
10
20
00
78
80
70
08
F0
ENDCHAR
STARTCHAR Scircumflex
ENCODING 348
SWIDTH 375 0
DWIDTH 6 0
BBX 5 10 0 0
BITMAP
20
50
00
78
80
80
70
08
08
F0
ENDCHAR
STARTCHAR scircumflex
ENCODING 349
SWIDTH 375 0
DWIDTH 6 0
BBX 5 8 0 0
BITMAP
20
50
00
78
80
70
08
F0
ENDCHAR
STARTCHAR Scedilla
ENCODING 350
SWIDTH 375 0
DWIDTH 6 0
BBX 5 9 0 -2
BITMAP
78
80
80
70
08
08
F0
10
20
ENDCHAR
STARTCHAR scedilla
ENCODING 351
SWIDTH 375 0
DWIDTH 6 0
BBX 5 7 0 -2
BITMAP
78
80
70
08
F0
20
40
ENDCHAR
STARTCHAR Scaron
ENCODING 352
SWIDTH 375 0
DWIDTH 6 0
BBX 5 10 0 0
BITMAP
50
20
00
78
80
80
70
08
08
F0
ENDCHAR
STARTCHAR scaron
ENCODING 353
SWIDTH 375 0
DWIDTH 6 0
BBX 5 8 0 0
BITMAP
50
20
00
78
80
70
08
F0
ENDCHAR
STARTCHAR Tcommaaccent
ENCODING 354
SWIDTH 375 0
DWIDTH 6 0
BBX 5 9 0 -2
BITMAP
F8
20
20
20
20
20
20
10
20
ENDCHAR
STARTCHAR tcommaaccent
ENCODING 355
SWIDTH 312 0
DWIDTH 5 0
BBX 4 9 0 -2
BITMAP
40
40
F0
40
40
40
30
20
40
ENDCHAR
STARTCHAR Tcaron
ENCODING 356
SWIDTH 375 0
DWIDTH 6 0
BBX 5 10 0 0
BITMAP
50
20
00
F8
20
20
20
20
20
20
ENDCHAR
STARTCHAR tcaron
ENCODING 357
SWIDTH 312 0
DWIDTH 5 0
BBX 4 7 0 0
BITMAP
50
40
F0
40
40
40
30
ENDCHAR
STARTCHAR Tbar
ENCODING 358
SWIDTH 375 0
DWIDTH 6 0
BBX 5 7 0 0
BITMAP
F8
20
20
70
20
20
20
ENDCHAR
STARTCHAR tbar
ENCODING 359
SWIDTH 312 0
DWIDTH 5 0
BBX 4 7 0 0
BITMAP
40
40
F0
40
E0
40
30
ENDCHAR
STARTCHAR Utilde
ENCODING 360
SWIDTH 375 0
DWIDTH 6 0
BBX 5 10 0 0
BITMAP
28
50
00
88
88
88
88
88
88
70
ENDCHAR
STARTCHAR utilde
ENCODING 361
SWIDTH 375 0
DWIDTH 6 0
BBX 5 8 0 0
BITMAP
28
50
00
88
88
88
98
68
ENDCHAR
STARTCHAR Umacron
ENCODING 362
SWIDTH 375 0
DWIDTH 6 0
BBX 5 9 0 0
BITMAP
70
00
88
88
88
88
88
88
70
ENDCHAR
STARTCHAR umacron
ENCODING 363
SWIDTH 375 0
DWIDTH 6 0
BBX 5 7 0 0
BITMAP
70
00
88
88
88
98
68
ENDCHAR
STARTCHAR Ubreve
ENCODING 364
SWIDTH 375 0
DWIDTH 6 0
BBX 5 10 0 0
BITMAP
50
20
00
88
88
88
88
88
88
70
ENDCHAR
STARTCHAR ubreve
ENCODING 365
SWIDTH 375 0
DWIDTH 6 0
BBX 5 8 0 0
BITMAP
50
20
00
88
88
88
98
68
ENDCHAR
STARTCHAR Uring
ENCODING 366
SWIDTH 375 0
DWIDTH 6 0
BBX 5 10 0 0
BITMAP
20
50
20
88
88
88
88
88
88
70
ENDCHAR
STARTCHAR uring
ENCODING 367
SWIDTH 375 0
DWIDTH 6 0
BBX 5 8 0 0
BITMAP
20
50
20
88
88
88
98
68
ENDCHAR
STARTCHAR Uhungarumlaut
ENCODING 368
SWIDTH 375 0
DWIDTH 6 0
BBX 5 9 0 0
BITMAP
50
00
88
88
88
88
88
88
70
ENDCHAR
STARTCHAR uhungarumlaut
ENCODING 369
SWIDTH 375 0
DWIDTH 6 0
BBX 5 7 0 0
BITMAP
50
00
88
88
88
98
68
ENDCHAR
STARTCHAR Uogonek
ENCODING 370
SWIDTH 375 0
DWIDTH 6 0
BBX 5 9 0 -2
BITMAP
88
88
88
88
88
88
70
10
20
ENDCHAR
STARTCHAR uogonek
ENCODING 371
SWIDTH 375 0
DWIDTH 6 0
BBX 5 7 0 -2
BITMAP
88
88
88
98
68
10
08
ENDCHAR
STARTCHAR Wcircumflex
ENCODING 372
SWIDTH 500 0
DWIDTH 8 0
BBX 7 10 0 0
BITMAP
10
28
00
82
82
92
92
92
92
6C
ENDCHAR
STARTCHAR wcircumflex
ENCODING 373
SWIDTH 500 0
DWIDTH 8 0
BBX 7 8 0 0
BITMAP
10
28
00
82
92
92
92
6C
ENDCHAR
STARTCHAR Ycircumflex
ENCODING 374
SWIDTH 375 0
DWIDTH 6 0
BBX 5 10 0 0
BITMAP
20
50
00
88
88
88
50
20
20
20
ENDCHAR
STARTCHAR ycircumflex
ENCODING 375
SWIDTH 375 0
DWIDTH 6 0
BBX 5 10 0 -2
BITMAP
20
50
00
88
88
88
88
78
08
F0
ENDCHAR
STARTCHAR Ydieresis
ENCODING 376
SWIDTH 375 0
DWIDTH 6 0
BBX 5 9 0 0
BITMAP
50
00
88
88
88
50
20
20
20
ENDCHAR
STARTCHAR Zacute
ENCODING 377
SWIDTH 375 0
DWIDTH 6 0
BBX 5 10 0 0
BITMAP
10
20
00
F8
08
10
20
40
80
F8
ENDCHAR
STARTCHAR zacute
ENCODING 378
SWIDTH 375 0
DWIDTH 6 0
BBX 5 8 0 0
BITMAP
10
20
00
F8
10
20
40
F8
ENDCHAR
STARTCHAR Zdotaccent
ENCODING 379
SWIDTH 375 0
DWIDTH 6 0
BBX 5 9 0 0
BITMAP
20
00
F8
08
10
20
40
80
F8
ENDCHAR
STARTCHAR zdotaccent
ENCODING 380
SWIDTH 375 0
DWIDTH 6 0
BBX 5 7 0 0
BITMAP
20
00
F8
10
20
40
F8
ENDCHAR
STARTCHAR Zcaron
ENCODING 381
SWIDTH 375 0
DWIDTH 6 0
BBX 5 10 0 0
BITMAP
50
20
00
F8
08
10
20
40
80
F8
ENDCHAR
STARTCHAR zcaron
ENCODING 382
SWIDTH 375 0
DWIDTH 6 0
BBX 5 8 0 0
BITMAP
50
20
00
F8
10
20
40
F8
ENDCHAR
STARTCHAR Euro
ENCODING 8364
SWIDTH 375 0
DWIDTH 6 0
BBX 5 7 0 0
BITMAP
38
40
F0
40
F0
40
38
ENDCHAR
STARTCHAR uni3000
ENCODING 12288
SWIDTH 1000 0
DWIDTH 16 0
BBX 1 1 0 0
BITMAP
00
ENDCHAR
STARTCHAR .notdef
ENCODING -1
SWIDTH 365 0
DWIDTH 6 0
BBX 5 11 1 0
BITMAP
F8
88
88
88
88
88
88
88
88
88
F8
ENDCHAR
STARTCHAR .null
ENCODING -1
SWIDTH 0 0
DWIDTH 0 0
BBX 1 1 0 0
BITMAP
00
ENDCHAR
STARTCHAR nonmarkingreturn
ENCODING -1
SWIDTH 333 0
DWIDTH 5 0
BBX 1 1 0 0
BITMAP
00
ENDCHAR
ENDFONT
