ISO-10303-21;
HEADER;
/* Generated by software containing ST-Developer
 * from STEP Tools, Inc. (www.steptools.com) 
 */
/* OPTION: using custom renumber hook */

FILE_DESCRIPTION(
/* description */ ('STEP AP242 Edition 2',
'CAx-IF Rec.Pracs.---Representation and Presentation of Product Manufa
cturing Information (PMI)---4.0---2014-10-13',
'CAx-IF Rec.Pracs.---3D Tessellated Geometry---0.4---2014-09-14','2;1',
'CAx-IF Rec.Pracs.---User Defined Attributes---1.5---2016-08-15'),
/* implementation_level */ '2;1');

FILE_NAME(
/* name */ 'Case - bottom',
/* time_stamp */ '2026-06-21T16:03:57Z',
/* author */ (''),
/* organization */ (''),
/* preprocessor_version */ 'ST-DEVELOPER v20',
/* originating_system */ 'ONSHAPE BY PTC INC, 1.216',
/* authorisation */ '  ');

FILE_SCHEMA (('AP242_MANAGED_MODEL_BASED_3D_ENGINEERING_MIM_LF { 1 0 10303 442 3 1 4 }'));
ENDSEC;

DATA;
#10=SHAPE_REPRESENTATION_RELATIONSHIP('','',#1395,#11);
#11=ADVANCED_BREP_SHAPE_REPRESENTATION('',(#1393),#2384);
#12=TOROIDAL_SURFACE('',#1540,0.00375,0.002);
#13=TOROIDAL_SURFACE('',#1541,0.00375,0.002);
#14=TOROIDAL_SURFACE('',#1542,0.00375,0.002);
#15=B_SPLINE_CURVE_WITH_KNOTS('',3,(#2069,#2070,#2071,#2072,#2073),
 .UNSPECIFIED.,.F.,.F.,(4,1,4),(0.,0.00100573823172154,0.00201147646344309),
 .UNSPECIFIED.);
#16=B_SPLINE_CURVE_WITH_KNOTS('',3,(#2077,#2078,#2079,#2080,#2081),
 .UNSPECIFIED.,.F.,.F.,(4,1,4),(0.,0.00100823029614572,0.00201646059229144),
 .UNSPECIFIED.);
#17=B_SPLINE_CURVE_WITH_KNOTS('',3,(#2161,#2162,#2163,#2164,#2165,#2166,
#2167),.UNSPECIFIED.,.F.,.F.,(4,1,1,1,4),(0.,0.001457391224493,0.002914782448986,
0.004372173673479,0.005829564897972),.UNSPECIFIED.);
#18=CYLINDRICAL_SURFACE('',#1415,0.0028);
#19=CYLINDRICAL_SURFACE('',#1432,0.0028);
#20=CYLINDRICAL_SURFACE('',#1450,0.0028);
#21=CYLINDRICAL_SURFACE('',#1452,0.0028);
#22=CYLINDRICAL_SURFACE('',#1458,0.001);
#23=CYLINDRICAL_SURFACE('',#1463,0.00225);
#24=CYLINDRICAL_SURFACE('',#1465,0.001);
#25=CYLINDRICAL_SURFACE('',#1470,0.00225);
#26=CYLINDRICAL_SURFACE('',#1472,0.001);
#27=CYLINDRICAL_SURFACE('',#1477,0.00225);
#28=CYLINDRICAL_SURFACE('',#1481,0.00225);
#29=CYLINDRICAL_SURFACE('',#1483,0.001);
#30=CYLINDRICAL_SURFACE('',#1487,0.002);
#31=CYLINDRICAL_SURFACE('',#1489,0.002);
#32=CYLINDRICAL_SURFACE('',#1491,0.002);
#33=CYLINDRICAL_SURFACE('',#1492,0.002);
#34=CYLINDRICAL_SURFACE('',#1493,0.0016);
#35=CYLINDRICAL_SURFACE('',#1496,0.0016);
#36=CYLINDRICAL_SURFACE('',#1499,0.00355);
#37=CYLINDRICAL_SURFACE('',#1500,0.00194999999999994);
#38=CYLINDRICAL_SURFACE('',#1501,0.0015);
#39=CYLINDRICAL_SURFACE('',#1503,0.0015);
#40=CYLINDRICAL_SURFACE('',#1505,0.0015);
#41=CYLINDRICAL_SURFACE('',#1507,0.0015);
#42=CYLINDRICAL_SURFACE('',#1517,0.001);
#43=CYLINDRICAL_SURFACE('',#1518,0.001);
#44=CYLINDRICAL_SURFACE('',#1519,0.001);
#45=CYLINDRICAL_SURFACE('',#1520,0.001);
#46=CYLINDRICAL_SURFACE('',#1521,0.001);
#47=CYLINDRICAL_SURFACE('',#1522,0.001);
#48=CYLINDRICAL_SURFACE('',#1523,0.001);
#49=CYLINDRICAL_SURFACE('',#1524,0.001);
#50=CYLINDRICAL_SURFACE('',#1525,0.00175);
#51=CYLINDRICAL_SURFACE('',#1530,0.00175);
#52=CYLINDRICAL_SURFACE('',#1535,0.00175);
#53=CYLINDRICAL_SURFACE('',#1543,0.001);
#54=CYLINDRICAL_SURFACE('',#1546,0.001);
#55=CYLINDRICAL_SURFACE('',#1549,0.001);
#56=CIRCLE('',#1398,0.001);
#57=CIRCLE('',#1399,0.001);
#58=CIRCLE('',#1400,0.001);
#59=CIRCLE('',#1401,0.001);
#60=CIRCLE('',#1402,0.001);
#61=CIRCLE('',#1403,0.001);
#62=CIRCLE('',#1404,0.001);
#63=CIRCLE('',#1405,0.001);
#64=CIRCLE('',#1407,0.001);
#65=CIRCLE('',#1408,0.001);
#66=CIRCLE('',#1409,0.001);
#67=CIRCLE('',#1410,0.001);
#68=CIRCLE('',#1411,0.001);
#69=CIRCLE('',#1412,0.001);
#70=CIRCLE('',#1413,0.001);
#71=CIRCLE('',#1414,0.001);
#72=CIRCLE('',#1416,0.0028);
#73=CIRCLE('',#1417,0.0028);
#74=CIRCLE('',#1419,0.00194999999999994);
#75=CIRCLE('',#1420,0.0015);
#76=CIRCLE('',#1421,0.00355);
#77=CIRCLE('',#1422,0.0015);
#78=CIRCLE('',#1423,0.0015);
#79=CIRCLE('',#1424,0.0015);
#80=CIRCLE('',#1426,0.00355);
#81=CIRCLE('',#1427,0.00194999999999994);
#82=CIRCLE('',#1428,0.0015);
#83=CIRCLE('',#1429,0.0015);
#84=CIRCLE('',#1430,0.0015);
#85=CIRCLE('',#1431,0.0015);
#86=CIRCLE('',#1433,0.0028);
#87=CIRCLE('',#1434,0.0028);
#88=CIRCLE('',#1436,0.001);
#89=CIRCLE('',#1437,0.001);
#90=CIRCLE('',#1438,0.002);
#91=CIRCLE('',#1439,0.002);
#92=CIRCLE('',#1440,0.002);
#93=CIRCLE('',#1441,0.002);
#94=CIRCLE('',#1442,0.001);
#95=CIRCLE('',#1443,0.001);
#96=CIRCLE('',#1444,0.0016);
#97=CIRCLE('',#1445,0.0028);
#98=CIRCLE('',#1446,0.0028);
#99=CIRCLE('',#1447,0.0016);
#100=CIRCLE('',#1451,0.0028);
#101=CIRCLE('',#1453,0.0028);
#102=CIRCLE('',#1455,0.00375);
#103=CIRCLE('',#1456,0.00375);
#104=CIRCLE('',#1457,0.00375);
#105=CIRCLE('',#1459,0.001);
#106=CIRCLE('',#1461,0.00225);
#107=CIRCLE('',#1462,0.002);
#108=CIRCLE('',#1464,0.00225);
#109=CIRCLE('',#1466,0.001);
#110=CIRCLE('',#1468,0.00225);
#111=CIRCLE('',#1469,0.002);
#112=CIRCLE('',#1471,0.00225);
#113=CIRCLE('',#1473,0.001);
#114=CIRCLE('',#1475,0.00225);
#115=CIRCLE('',#1476,0.002);
#116=CIRCLE('',#1478,0.00225);
#117=CIRCLE('',#1480,0.00225);
#118=CIRCLE('',#1482,0.00225);
#119=CIRCLE('',#1484,0.001);
#120=CIRCLE('',#1486,0.002);
#121=CIRCLE('',#1494,0.0016);
#122=CIRCLE('',#1497,0.0016);
#123=CIRCLE('',#1526,0.00175);
#124=CIRCLE('',#1527,0.00175);
#125=CIRCLE('',#1529,0.001);
#126=CIRCLE('',#1531,0.00175);
#127=CIRCLE('',#1532,0.00175);
#128=CIRCLE('',#1534,0.001);
#129=CIRCLE('',#1536,0.00175);
#130=CIRCLE('',#1537,0.00175);
#131=CIRCLE('',#1539,0.001);
#132=CIRCLE('',#1544,0.001);
#133=CIRCLE('',#1547,0.001);
#134=CIRCLE('',#1550,0.001);
#135=ORIENTED_EDGE('',*,*,#511,.F.);
#136=ORIENTED_EDGE('',*,*,#512,.T.);
#137=ORIENTED_EDGE('',*,*,#513,.T.);
#138=ORIENTED_EDGE('',*,*,#514,.T.);
#139=ORIENTED_EDGE('',*,*,#515,.T.);
#140=ORIENTED_EDGE('',*,*,#516,.T.);
#141=ORIENTED_EDGE('',*,*,#517,.T.);
#142=ORIENTED_EDGE('',*,*,#518,.T.);
#143=ORIENTED_EDGE('',*,*,#519,.F.);
#144=ORIENTED_EDGE('',*,*,#520,.F.);
#145=ORIENTED_EDGE('',*,*,#521,.F.);
#146=ORIENTED_EDGE('',*,*,#522,.T.);
#147=ORIENTED_EDGE('',*,*,#523,.F.);
#148=ORIENTED_EDGE('',*,*,#524,.T.);
#149=ORIENTED_EDGE('',*,*,#525,.F.);
#150=ORIENTED_EDGE('',*,*,#526,.T.);
#151=ORIENTED_EDGE('',*,*,#527,.T.);
#152=ORIENTED_EDGE('',*,*,#528,.T.);
#153=ORIENTED_EDGE('',*,*,#529,.T.);
#154=ORIENTED_EDGE('',*,*,#530,.T.);
#155=ORIENTED_EDGE('',*,*,#531,.F.);
#156=ORIENTED_EDGE('',*,*,#532,.T.);
#157=ORIENTED_EDGE('',*,*,#533,.F.);
#158=ORIENTED_EDGE('',*,*,#534,.T.);
#159=ORIENTED_EDGE('',*,*,#535,.T.);
#160=ORIENTED_EDGE('',*,*,#536,.T.);
#161=ORIENTED_EDGE('',*,*,#537,.F.);
#162=ORIENTED_EDGE('',*,*,#538,.T.);
#163=ORIENTED_EDGE('',*,*,#539,.F.);
#164=ORIENTED_EDGE('',*,*,#540,.T.);
#165=ORIENTED_EDGE('',*,*,#541,.T.);
#166=ORIENTED_EDGE('',*,*,#542,.T.);
#167=ORIENTED_EDGE('',*,*,#543,.T.);
#168=ORIENTED_EDGE('',*,*,#544,.T.);
#169=ORIENTED_EDGE('',*,*,#545,.T.);
#170=ORIENTED_EDGE('',*,*,#546,.T.);
#171=ORIENTED_EDGE('',*,*,#547,.F.);
#172=ORIENTED_EDGE('',*,*,#548,.T.);
#173=ORIENTED_EDGE('',*,*,#549,.F.);
#174=ORIENTED_EDGE('',*,*,#550,.T.);
#175=ORIENTED_EDGE('',*,*,#551,.T.);
#176=ORIENTED_EDGE('',*,*,#552,.T.);
#177=ORIENTED_EDGE('',*,*,#553,.T.);
#178=ORIENTED_EDGE('',*,*,#554,.T.);
#179=ORIENTED_EDGE('',*,*,#555,.F.);
#180=ORIENTED_EDGE('',*,*,#556,.T.);
#181=ORIENTED_EDGE('',*,*,#557,.F.);
#182=ORIENTED_EDGE('',*,*,#558,.T.);
#183=ORIENTED_EDGE('',*,*,#559,.F.);
#184=ORIENTED_EDGE('',*,*,#560,.T.);
#185=ORIENTED_EDGE('',*,*,#561,.F.);
#186=ORIENTED_EDGE('',*,*,#562,.T.);
#187=ORIENTED_EDGE('',*,*,#563,.T.);
#188=ORIENTED_EDGE('',*,*,#564,.T.);
#189=ORIENTED_EDGE('',*,*,#565,.F.);
#190=ORIENTED_EDGE('',*,*,#566,.T.);
#191=ORIENTED_EDGE('',*,*,#567,.T.);
#192=ORIENTED_EDGE('',*,*,#557,.T.);
#193=ORIENTED_EDGE('',*,*,#568,.F.);
#194=ORIENTED_EDGE('',*,*,#569,.T.);
#195=ORIENTED_EDGE('',*,*,#570,.T.);
#196=ORIENTED_EDGE('',*,*,#571,.F.);
#197=ORIENTED_EDGE('',*,*,#572,.T.);
#198=ORIENTED_EDGE('',*,*,#573,.F.);
#199=ORIENTED_EDGE('',*,*,#574,.F.);
#200=ORIENTED_EDGE('',*,*,#575,.F.);
#201=ORIENTED_EDGE('',*,*,#576,.T.);
#202=ORIENTED_EDGE('',*,*,#561,.T.);
#203=ORIENTED_EDGE('',*,*,#577,.T.);
#204=ORIENTED_EDGE('',*,*,#578,.F.);
#205=ORIENTED_EDGE('',*,*,#579,.F.);
#206=ORIENTED_EDGE('',*,*,#580,.T.);
#207=ORIENTED_EDGE('',*,*,#581,.F.);
#208=ORIENTED_EDGE('',*,*,#582,.F.);
#209=ORIENTED_EDGE('',*,*,#583,.T.);
#210=ORIENTED_EDGE('',*,*,#584,.F.);
#211=ORIENTED_EDGE('',*,*,#585,.T.);
#212=ORIENTED_EDGE('',*,*,#586,.F.);
#213=ORIENTED_EDGE('',*,*,#587,.F.);
#214=ORIENTED_EDGE('',*,*,#588,.F.);
#215=ORIENTED_EDGE('',*,*,#589,.T.);
#216=ORIENTED_EDGE('',*,*,#590,.F.);
#217=ORIENTED_EDGE('',*,*,#591,.F.);
#218=ORIENTED_EDGE('',*,*,#592,.T.);
#219=ORIENTED_EDGE('',*,*,#593,.T.);
#220=ORIENTED_EDGE('',*,*,#594,.F.);
#221=ORIENTED_EDGE('',*,*,#595,.T.);
#222=ORIENTED_EDGE('',*,*,#596,.F.);
#223=ORIENTED_EDGE('',*,*,#597,.F.);
#224=ORIENTED_EDGE('',*,*,#598,.T.);
#225=ORIENTED_EDGE('',*,*,#599,.F.);
#226=ORIENTED_EDGE('',*,*,#600,.F.);
#227=ORIENTED_EDGE('',*,*,#573,.T.);
#228=ORIENTED_EDGE('',*,*,#601,.T.);
#229=ORIENTED_EDGE('',*,*,#522,.F.);
#230=ORIENTED_EDGE('',*,*,#602,.T.);
#231=ORIENTED_EDGE('',*,*,#575,.T.);
#232=ORIENTED_EDGE('',*,*,#603,.T.);
#233=ORIENTED_EDGE('',*,*,#604,.T.);
#234=ORIENTED_EDGE('',*,*,#605,.F.);
#235=ORIENTED_EDGE('',*,*,#542,.F.);
#236=ORIENTED_EDGE('',*,*,#606,.F.);
#237=ORIENTED_EDGE('',*,*,#607,.F.);
#238=ORIENTED_EDGE('',*,*,#608,.F.);
#239=ORIENTED_EDGE('',*,*,#609,.T.);
#240=ORIENTED_EDGE('',*,*,#610,.F.);
#241=ORIENTED_EDGE('',*,*,#582,.T.);
#242=ORIENTED_EDGE('',*,*,#611,.T.);
#243=ORIENTED_EDGE('',*,*,#612,.T.);
#244=ORIENTED_EDGE('',*,*,#613,.T.);
#245=ORIENTED_EDGE('',*,*,#614,.F.);
#246=ORIENTED_EDGE('',*,*,#615,.F.);
#247=ORIENTED_EDGE('',*,*,#616,.T.);
#248=ORIENTED_EDGE('',*,*,#617,.T.);
#249=ORIENTED_EDGE('',*,*,#519,.T.);
#250=ORIENTED_EDGE('',*,*,#618,.F.);
#251=ORIENTED_EDGE('',*,*,#570,.F.);
#252=ORIENTED_EDGE('',*,*,#619,.T.);
#253=ORIENTED_EDGE('',*,*,#614,.T.);
#254=ORIENTED_EDGE('',*,*,#620,.F.);
#255=ORIENTED_EDGE('',*,*,#621,.T.);
#256=ORIENTED_EDGE('',*,*,#563,.F.);
#257=ORIENTED_EDGE('',*,*,#622,.T.);
#258=ORIENTED_EDGE('',*,*,#616,.F.);
#259=ORIENTED_EDGE('',*,*,#623,.F.);
#260=ORIENTED_EDGE('',*,*,#624,.F.);
#261=ORIENTED_EDGE('',*,*,#625,.T.);
#262=ORIENTED_EDGE('',*,*,#623,.T.);
#263=ORIENTED_EDGE('',*,*,#615,.T.);
#264=ORIENTED_EDGE('',*,*,#619,.F.);
#265=ORIENTED_EDGE('',*,*,#626,.T.);
#266=ORIENTED_EDGE('',*,*,#617,.F.);
#267=ORIENTED_EDGE('',*,*,#625,.F.);
#268=ORIENTED_EDGE('',*,*,#627,.F.);
#269=ORIENTED_EDGE('',*,*,#520,.T.);
#270=ORIENTED_EDGE('',*,*,#628,.T.);
#271=ORIENTED_EDGE('',*,*,#629,.T.);
#272=ORIENTED_EDGE('',*,*,#630,.T.);
#273=ORIENTED_EDGE('',*,*,#602,.F.);
#274=ORIENTED_EDGE('',*,*,#521,.T.);
#275=ORIENTED_EDGE('',*,*,#627,.T.);
#276=ORIENTED_EDGE('',*,*,#624,.T.);
#277=ORIENTED_EDGE('',*,*,#626,.F.);
#278=ORIENTED_EDGE('',*,*,#622,.F.);
#279=ORIENTED_EDGE('',*,*,#562,.F.);
#280=ORIENTED_EDGE('',*,*,#576,.F.);
#281=ORIENTED_EDGE('',*,*,#631,.F.);
#282=ORIENTED_EDGE('',*,*,#611,.F.);
#283=ORIENTED_EDGE('',*,*,#631,.T.);
#284=ORIENTED_EDGE('',*,*,#632,.T.);
#285=ORIENTED_EDGE('',*,*,#633,.T.);
#286=ORIENTED_EDGE('',*,*,#584,.T.);
#287=ORIENTED_EDGE('',*,*,#634,.T.);
#288=ORIENTED_EDGE('',*,*,#635,.T.);
#289=ORIENTED_EDGE('',*,*,#585,.F.);
#290=ORIENTED_EDGE('',*,*,#633,.F.);
#291=ORIENTED_EDGE('',*,*,#636,.T.);
#292=ORIENTED_EDGE('',*,*,#637,.F.);
#293=ORIENTED_EDGE('',*,*,#603,.F.);
#294=ORIENTED_EDGE('',*,*,#637,.T.);
#295=ORIENTED_EDGE('',*,*,#638,.F.);
#296=ORIENTED_EDGE('',*,*,#639,.T.);
#297=ORIENTED_EDGE('',*,*,#640,.T.);
#298=ORIENTED_EDGE('',*,*,#641,.T.);
#299=ORIENTED_EDGE('',*,*,#642,.T.);
#300=ORIENTED_EDGE('',*,*,#643,.F.);
#301=ORIENTED_EDGE('',*,*,#639,.F.);
#302=ORIENTED_EDGE('',*,*,#644,.T.);
#303=ORIENTED_EDGE('',*,*,#645,.F.);
#304=ORIENTED_EDGE('',*,*,#612,.F.);
#305=ORIENTED_EDGE('',*,*,#645,.T.);
#306=ORIENTED_EDGE('',*,*,#548,.F.);
#307=ORIENTED_EDGE('',*,*,#646,.T.);
#308=ORIENTED_EDGE('',*,*,#647,.F.);
#309=ORIENTED_EDGE('',*,*,#648,.T.);
#310=ORIENTED_EDGE('',*,*,#649,.T.);
#311=ORIENTED_EDGE('',*,*,#650,.F.);
#312=ORIENTED_EDGE('',*,*,#646,.F.);
#313=ORIENTED_EDGE('',*,*,#547,.T.);
#314=ORIENTED_EDGE('',*,*,#635,.F.);
#315=ORIENTED_EDGE('',*,*,#651,.T.);
#316=ORIENTED_EDGE('',*,*,#642,.F.);
#317=ORIENTED_EDGE('',*,*,#652,.F.);
#318=ORIENTED_EDGE('',*,*,#649,.F.);
#319=ORIENTED_EDGE('',*,*,#546,.F.);
#320=ORIENTED_EDGE('',*,*,#653,.F.);
#321=ORIENTED_EDGE('',*,*,#586,.T.);
#322=ORIENTED_EDGE('',*,*,#653,.T.);
#323=ORIENTED_EDGE('',*,*,#545,.F.);
#324=ORIENTED_EDGE('',*,*,#654,.F.);
#325=ORIENTED_EDGE('',*,*,#587,.T.);
#326=ORIENTED_EDGE('',*,*,#655,.F.);
#327=ORIENTED_EDGE('',*,*,#604,.F.);
#328=ORIENTED_EDGE('',*,*,#655,.T.);
#329=ORIENTED_EDGE('',*,*,#588,.T.);
#330=ORIENTED_EDGE('',*,*,#654,.T.);
#331=ORIENTED_EDGE('',*,*,#544,.F.);
#332=ORIENTED_EDGE('',*,*,#656,.T.);
#333=ORIENTED_EDGE('',*,*,#657,.F.);
#334=ORIENTED_EDGE('',*,*,#606,.T.);
#335=ORIENTED_EDGE('',*,*,#541,.F.);
#336=ORIENTED_EDGE('',*,*,#648,.F.);
#337=ORIENTED_EDGE('',*,*,#658,.T.);
#338=ORIENTED_EDGE('',*,*,#607,.T.);
#339=ORIENTED_EDGE('',*,*,#657,.T.);
#340=ORIENTED_EDGE('',*,*,#647,.T.);
#341=ORIENTED_EDGE('',*,*,#650,.T.);
#342=ORIENTED_EDGE('',*,*,#652,.T.);
#343=ORIENTED_EDGE('',*,*,#644,.F.);
#344=ORIENTED_EDGE('',*,*,#638,.T.);
#345=ORIENTED_EDGE('',*,*,#659,.F.);
#346=ORIENTED_EDGE('',*,*,#608,.T.);
#347=ORIENTED_EDGE('',*,*,#658,.F.);
#348=ORIENTED_EDGE('',*,*,#641,.F.);
#349=ORIENTED_EDGE('',*,*,#609,.F.);
#350=ORIENTED_EDGE('',*,*,#659,.T.);
#351=ORIENTED_EDGE('',*,*,#640,.F.);
#352=ORIENTED_EDGE('',*,*,#643,.T.);
#353=ORIENTED_EDGE('',*,*,#651,.F.);
#354=ORIENTED_EDGE('',*,*,#636,.F.);
#355=ORIENTED_EDGE('',*,*,#632,.F.);
#356=ORIENTED_EDGE('',*,*,#660,.T.);
#357=ORIENTED_EDGE('',*,*,#583,.F.);
#358=ORIENTED_EDGE('',*,*,#610,.T.);
#359=ORIENTED_EDGE('',*,*,#660,.F.);
#360=ORIENTED_EDGE('',*,*,#634,.F.);
#361=ORIENTED_EDGE('',*,*,#543,.F.);
#362=ORIENTED_EDGE('',*,*,#605,.T.);
#363=ORIENTED_EDGE('',*,*,#589,.F.);
#364=ORIENTED_EDGE('',*,*,#656,.F.);
#365=ORIENTED_EDGE('',*,*,#613,.F.);
#366=ORIENTED_EDGE('',*,*,#569,.F.);
#367=ORIENTED_EDGE('',*,*,#661,.T.);
#368=ORIENTED_EDGE('',*,*,#620,.T.);
#369=ORIENTED_EDGE('',*,*,#621,.F.);
#370=ORIENTED_EDGE('',*,*,#661,.F.);
#371=ORIENTED_EDGE('',*,*,#568,.T.);
#372=ORIENTED_EDGE('',*,*,#564,.F.);
#373=ORIENTED_EDGE('',*,*,#618,.T.);
#374=ORIENTED_EDGE('',*,*,#524,.F.);
#375=ORIENTED_EDGE('',*,*,#662,.F.);
#376=ORIENTED_EDGE('',*,*,#571,.T.);
#377=ORIENTED_EDGE('',*,*,#662,.T.);
#378=ORIENTED_EDGE('',*,*,#523,.T.);
#379=ORIENTED_EDGE('',*,*,#601,.F.);
#380=ORIENTED_EDGE('',*,*,#572,.F.);
#381=ORIENTED_EDGE('',*,*,#600,.T.);
#382=ORIENTED_EDGE('',*,*,#574,.T.);
#383=ORIENTED_EDGE('',*,*,#590,.T.);
#384=ORIENTED_EDGE('',*,*,#565,.T.);
#385=ORIENTED_EDGE('',*,*,#591,.T.);
#386=ORIENTED_EDGE('',*,*,#567,.F.);
#387=ORIENTED_EDGE('',*,*,#663,.T.);
#388=ORIENTED_EDGE('',*,*,#592,.F.);
#389=ORIENTED_EDGE('',*,*,#664,.F.);
#390=ORIENTED_EDGE('',*,*,#558,.F.);
#391=ORIENTED_EDGE('',*,*,#559,.T.);
#392=ORIENTED_EDGE('',*,*,#664,.T.);
#393=ORIENTED_EDGE('',*,*,#599,.T.);
#394=ORIENTED_EDGE('',*,*,#665,.F.);
#395=ORIENTED_EDGE('',*,*,#665,.T.);
#396=ORIENTED_EDGE('',*,*,#598,.F.);
#397=ORIENTED_EDGE('',*,*,#666,.F.);
#398=ORIENTED_EDGE('',*,*,#577,.F.);
#399=ORIENTED_EDGE('',*,*,#560,.F.);
#400=ORIENTED_EDGE('',*,*,#578,.T.);
#401=ORIENTED_EDGE('',*,*,#666,.T.);
#402=ORIENTED_EDGE('',*,*,#597,.T.);
#403=ORIENTED_EDGE('',*,*,#667,.F.);
#404=ORIENTED_EDGE('',*,*,#579,.T.);
#405=ORIENTED_EDGE('',*,*,#667,.T.);
#406=ORIENTED_EDGE('',*,*,#596,.T.);
#407=ORIENTED_EDGE('',*,*,#668,.F.);
#408=ORIENTED_EDGE('',*,*,#668,.T.);
#409=ORIENTED_EDGE('',*,*,#595,.F.);
#410=ORIENTED_EDGE('',*,*,#669,.F.);
#411=ORIENTED_EDGE('',*,*,#580,.F.);
#412=ORIENTED_EDGE('',*,*,#581,.T.);
#413=ORIENTED_EDGE('',*,*,#669,.T.);
#414=ORIENTED_EDGE('',*,*,#594,.T.);
#415=ORIENTED_EDGE('',*,*,#670,.F.);
#416=ORIENTED_EDGE('',*,*,#670,.T.);
#417=ORIENTED_EDGE('',*,*,#593,.F.);
#418=ORIENTED_EDGE('',*,*,#663,.F.);
#419=ORIENTED_EDGE('',*,*,#566,.F.);
#420=ORIENTED_EDGE('',*,*,#551,.F.);
#421=ORIENTED_EDGE('',*,*,#671,.T.);
#422=ORIENTED_EDGE('',*,*,#525,.T.);
#423=ORIENTED_EDGE('',*,*,#672,.T.);
#424=ORIENTED_EDGE('',*,*,#527,.F.);
#425=ORIENTED_EDGE('',*,*,#673,.T.);
#426=ORIENTED_EDGE('',*,*,#549,.T.);
#427=ORIENTED_EDGE('',*,*,#674,.T.);
#428=ORIENTED_EDGE('',*,*,#555,.T.);
#429=ORIENTED_EDGE('',*,*,#675,.T.);
#430=ORIENTED_EDGE('',*,*,#529,.F.);
#431=ORIENTED_EDGE('',*,*,#676,.T.);
#432=ORIENTED_EDGE('',*,*,#553,.F.);
#433=ORIENTED_EDGE('',*,*,#677,.T.);
#434=ORIENTED_EDGE('',*,*,#531,.T.);
#435=ORIENTED_EDGE('',*,*,#678,.T.);
#436=ORIENTED_EDGE('',*,*,#513,.F.);
#437=ORIENTED_EDGE('',*,*,#679,.T.);
#438=ORIENTED_EDGE('',*,*,#533,.T.);
#439=ORIENTED_EDGE('',*,*,#680,.T.);
#440=ORIENTED_EDGE('',*,*,#539,.T.);
#441=ORIENTED_EDGE('',*,*,#681,.T.);
#442=ORIENTED_EDGE('',*,*,#515,.F.);
#443=ORIENTED_EDGE('',*,*,#682,.T.);
#444=ORIENTED_EDGE('',*,*,#537,.T.);
#445=ORIENTED_EDGE('',*,*,#683,.T.);
#446=ORIENTED_EDGE('',*,*,#517,.F.);
#447=ORIENTED_EDGE('',*,*,#684,.T.);
#448=ORIENTED_EDGE('',*,*,#535,.F.);
#449=ORIENTED_EDGE('',*,*,#685,.T.);
#450=ORIENTED_EDGE('',*,*,#511,.T.);
#451=ORIENTED_EDGE('',*,*,#686,.T.);
#452=ORIENTED_EDGE('',*,*,#512,.F.);
#453=ORIENTED_EDGE('',*,*,#685,.F.);
#454=ORIENTED_EDGE('',*,*,#534,.F.);
#455=ORIENTED_EDGE('',*,*,#679,.F.);
#456=ORIENTED_EDGE('',*,*,#518,.F.);
#457=ORIENTED_EDGE('',*,*,#683,.F.);
#458=ORIENTED_EDGE('',*,*,#536,.F.);
#459=ORIENTED_EDGE('',*,*,#686,.F.);
#460=ORIENTED_EDGE('',*,*,#516,.F.);
#461=ORIENTED_EDGE('',*,*,#681,.F.);
#462=ORIENTED_EDGE('',*,*,#538,.F.);
#463=ORIENTED_EDGE('',*,*,#684,.F.);
#464=ORIENTED_EDGE('',*,*,#514,.F.);
#465=ORIENTED_EDGE('',*,*,#680,.F.);
#466=ORIENTED_EDGE('',*,*,#540,.F.);
#467=ORIENTED_EDGE('',*,*,#682,.F.);
#468=ORIENTED_EDGE('',*,*,#526,.F.);
#469=ORIENTED_EDGE('',*,*,#671,.F.);
#470=ORIENTED_EDGE('',*,*,#550,.F.);
#471=ORIENTED_EDGE('',*,*,#673,.F.);
#472=ORIENTED_EDGE('',*,*,#532,.F.);
#473=ORIENTED_EDGE('',*,*,#677,.F.);
#474=ORIENTED_EDGE('',*,*,#552,.F.);
#475=ORIENTED_EDGE('',*,*,#672,.F.);
#476=ORIENTED_EDGE('',*,*,#530,.F.);
#477=ORIENTED_EDGE('',*,*,#675,.F.);
#478=ORIENTED_EDGE('',*,*,#554,.F.);
#479=ORIENTED_EDGE('',*,*,#678,.F.);
#480=ORIENTED_EDGE('',*,*,#528,.F.);
#481=ORIENTED_EDGE('',*,*,#674,.F.);
#482=ORIENTED_EDGE('',*,*,#556,.F.);
#483=ORIENTED_EDGE('',*,*,#676,.F.);
#484=ORIENTED_EDGE('',*,*,#687,.T.);
#485=ORIENTED_EDGE('',*,*,#688,.F.);
#486=ORIENTED_EDGE('',*,*,#689,.F.);
#487=ORIENTED_EDGE('',*,*,#688,.T.);
#488=ORIENTED_EDGE('',*,*,#690,.T.);
#489=ORIENTED_EDGE('',*,*,#691,.F.);
#490=ORIENTED_EDGE('',*,*,#692,.F.);
#491=ORIENTED_EDGE('',*,*,#691,.T.);
#492=ORIENTED_EDGE('',*,*,#693,.T.);
#493=ORIENTED_EDGE('',*,*,#694,.F.);
#494=ORIENTED_EDGE('',*,*,#695,.F.);
#495=ORIENTED_EDGE('',*,*,#694,.T.);
#496=ORIENTED_EDGE('',*,*,#628,.F.);
#497=ORIENTED_EDGE('',*,*,#693,.F.);
#498=ORIENTED_EDGE('',*,*,#629,.F.);
#499=ORIENTED_EDGE('',*,*,#687,.F.);
#500=ORIENTED_EDGE('',*,*,#630,.F.);
#501=ORIENTED_EDGE('',*,*,#690,.F.);
#502=ORIENTED_EDGE('',*,*,#696,.F.);
#503=ORIENTED_EDGE('',*,*,#695,.T.);
#504=ORIENTED_EDGE('',*,*,#696,.T.);
#505=ORIENTED_EDGE('',*,*,#697,.F.);
#506=ORIENTED_EDGE('',*,*,#692,.T.);
#507=ORIENTED_EDGE('',*,*,#697,.T.);
#508=ORIENTED_EDGE('',*,*,#698,.F.);
#509=ORIENTED_EDGE('',*,*,#689,.T.);
#510=ORIENTED_EDGE('',*,*,#698,.T.);
#511=EDGE_CURVE('',#699,#700,#833,.T.);
#512=EDGE_CURVE('',#699,#701,#56,.T.);
#513=EDGE_CURVE('',#701,#702,#834,.T.);
#514=EDGE_CURVE('',#702,#703,#57,.T.);
#515=EDGE_CURVE('',#703,#704,#835,.T.);
#516=EDGE_CURVE('',#704,#705,#58,.T.);
#517=EDGE_CURVE('',#705,#706,#836,.T.);
#518=EDGE_CURVE('',#706,#700,#59,.T.);
#519=EDGE_CURVE('',#707,#708,#837,.T.);
#520=EDGE_CURVE('',#709,#707,#838,.T.);
#521=EDGE_CURVE('',#710,#709,#839,.T.);
#522=EDGE_CURVE('',#710,#711,#840,.T.);
#523=EDGE_CURVE('',#712,#711,#841,.T.);
#524=EDGE_CURVE('',#712,#708,#842,.T.);
#525=EDGE_CURVE('',#713,#714,#843,.T.);
#526=EDGE_CURVE('',#713,#715,#60,.T.);
#527=EDGE_CURVE('',#715,#716,#844,.T.);
#528=EDGE_CURVE('',#716,#717,#61,.T.);
#529=EDGE_CURVE('',#717,#718,#845,.T.);
#530=EDGE_CURVE('',#718,#719,#62,.T.);
#531=EDGE_CURVE('',#720,#719,#846,.T.);
#532=EDGE_CURVE('',#720,#714,#63,.T.);
#533=EDGE_CURVE('',#721,#722,#847,.T.);
#534=EDGE_CURVE('',#721,#723,#64,.F.);
#535=EDGE_CURVE('',#723,#724,#848,.T.);
#536=EDGE_CURVE('',#724,#725,#65,.F.);
#537=EDGE_CURVE('',#726,#725,#849,.T.);
#538=EDGE_CURVE('',#726,#727,#66,.F.);
#539=EDGE_CURVE('',#728,#727,#850,.T.);
#540=EDGE_CURVE('',#728,#722,#67,.F.);
#541=EDGE_CURVE('',#729,#730,#851,.T.);
#542=EDGE_CURVE('',#730,#731,#852,.T.);
#543=EDGE_CURVE('',#731,#732,#853,.F.);
#544=EDGE_CURVE('',#732,#733,#854,.T.);
#545=EDGE_CURVE('',#733,#734,#855,.T.);
#546=EDGE_CURVE('',#734,#735,#856,.T.);
#547=EDGE_CURVE('',#736,#735,#857,.T.);
#548=EDGE_CURVE('',#736,#729,#858,.T.);
#549=EDGE_CURVE('',#737,#738,#859,.T.);
#550=EDGE_CURVE('',#737,#739,#68,.F.);
#551=EDGE_CURVE('',#739,#740,#860,.T.);
#552=EDGE_CURVE('',#740,#741,#69,.F.);
#553=EDGE_CURVE('',#741,#742,#861,.T.);
#554=EDGE_CURVE('',#742,#743,#70,.F.);
#555=EDGE_CURVE('',#744,#743,#862,.T.);
#556=EDGE_CURVE('',#744,#738,#71,.F.);
#557=EDGE_CURVE('',#745,#746,#863,.T.);
#558=EDGE_CURVE('',#745,#747,#15,.T.);
#559=EDGE_CURVE('',#748,#747,#864,.T.);
#560=EDGE_CURVE('',#748,#749,#16,.T.);
#561=EDGE_CURVE('',#750,#749,#865,.T.);
#562=EDGE_CURVE('',#750,#751,#72,.T.);
#563=EDGE_CURVE('',#751,#752,#866,.T.);
#564=EDGE_CURVE('',#752,#746,#73,.F.);
#565=EDGE_CURVE('',#753,#753,#74,.T.);
#566=EDGE_CURVE('',#754,#755,#867,.T.);
#567=EDGE_CURVE('',#755,#745,#75,.F.);
#568=EDGE_CURVE('',#756,#746,#868,.T.);
#569=EDGE_CURVE('',#756,#757,#869,.T.);
#570=EDGE_CURVE('',#757,#758,#870,.T.);
#571=EDGE_CURVE('',#759,#758,#871,.T.);
#572=EDGE_CURVE('',#759,#760,#872,.T.);
#573=EDGE_CURVE('',#761,#760,#873,.T.);
#574=EDGE_CURVE('',#762,#761,#76,.T.);
#575=EDGE_CURVE('',#763,#762,#874,.T.);
#576=EDGE_CURVE('',#763,#750,#875,.T.);
#577=EDGE_CURVE('',#749,#764,#77,.F.);
#578=EDGE_CURVE('',#765,#764,#876,.T.);
#579=EDGE_CURVE('',#766,#765,#78,.T.);
#580=EDGE_CURVE('',#766,#767,#877,.T.);
#581=EDGE_CURVE('',#754,#767,#79,.T.);
#582=EDGE_CURVE('',#768,#769,#878,.T.);
#583=EDGE_CURVE('',#768,#770,#879,.F.);
#584=EDGE_CURVE('',#771,#770,#880,.T.);
#585=EDGE_CURVE('',#771,#772,#881,.T.);
#586=EDGE_CURVE('',#773,#772,#882,.T.);
#587=EDGE_CURVE('',#774,#773,#883,.T.);
#588=EDGE_CURVE('',#775,#774,#884,.T.);
#589=EDGE_CURVE('',#775,#769,#885,.T.);
#590=EDGE_CURVE('',#776,#776,#80,.T.);
#591=EDGE_CURVE('',#777,#777,#81,.T.);
#592=EDGE_CURVE('',#778,#779,#82,.T.);
#593=EDGE_CURVE('',#779,#780,#886,.T.);
#594=EDGE_CURVE('',#781,#780,#83,.T.);
#595=EDGE_CURVE('',#781,#782,#887,.T.);
#596=EDGE_CURVE('',#783,#782,#84,.T.);
#597=EDGE_CURVE('',#784,#783,#888,.T.);
#598=EDGE_CURVE('',#784,#785,#85,.T.);
#599=EDGE_CURVE('',#778,#785,#889,.T.);
#600=EDGE_CURVE('',#761,#762,#17,.T.);
#601=EDGE_CURVE('',#760,#711,#86,.F.);
#602=EDGE_CURVE('',#710,#763,#87,.T.);
#603=EDGE_CURVE('',#786,#786,#88,.F.);
#604=EDGE_CURVE('',#787,#787,#89,.F.);
#605=EDGE_CURVE('',#731,#769,#90,.F.);
#606=EDGE_CURVE('',#788,#730,#91,.F.);
#607=EDGE_CURVE('',#789,#788,#890,.T.);
#608=EDGE_CURVE('',#790,#789,#92,.F.);
#609=EDGE_CURVE('',#790,#791,#891,.T.);
#610=EDGE_CURVE('',#768,#791,#93,.F.);
#611=EDGE_CURVE('',#792,#792,#94,.F.);
#612=EDGE_CURVE('',#793,#793,#95,.F.);
#613=EDGE_CURVE('',#757,#794,#96,.T.);
#614=EDGE_CURVE('',#795,#794,#892,.T.);
#615=EDGE_CURVE('',#796,#795,#97,.F.);
#616=EDGE_CURVE('',#796,#797,#893,.T.);
#617=EDGE_CURVE('',#797,#707,#98,.T.);
#618=EDGE_CURVE('',#758,#708,#99,.T.);
#619=EDGE_CURVE('',#798,#795,#894,.T.);
#620=EDGE_CURVE('',#799,#794,#895,.T.);
#621=EDGE_CURVE('',#799,#752,#896,.T.);
#622=EDGE_CURVE('',#751,#798,#897,.T.);
#623=EDGE_CURVE('',#800,#796,#898,.T.);
#624=EDGE_CURVE('',#801,#800,#899,.T.);
#625=EDGE_CURVE('',#801,#797,#900,.T.);
#626=EDGE_CURVE('',#798,#800,#100,.T.);
#627=EDGE_CURVE('',#709,#801,#101,.T.);
#628=EDGE_CURVE('',#802,#802,#102,.T.);
#629=EDGE_CURVE('',#803,#803,#103,.T.);
#630=EDGE_CURVE('',#804,#804,#104,.T.);
#631=EDGE_CURVE('',#805,#805,#105,.T.);
#632=EDGE_CURVE('',#806,#807,#901,.T.);
#633=EDGE_CURVE('',#807,#771,#106,.T.);
#634=EDGE_CURVE('',#770,#806,#107,.T.);
#635=EDGE_CURVE('',#808,#772,#108,.T.);
#636=EDGE_CURVE('',#807,#808,#902,.T.);
#637=EDGE_CURVE('',#809,#809,#109,.T.);
#638=EDGE_CURVE('',#810,#811,#903,.T.);
#639=EDGE_CURVE('',#810,#812,#110,.T.);
#640=EDGE_CURVE('',#812,#813,#904,.T.);
#641=EDGE_CURVE('',#813,#811,#111,.T.);
#642=EDGE_CURVE('',#814,#815,#112,.T.);
#643=EDGE_CURVE('',#812,#815,#905,.T.);
#644=EDGE_CURVE('',#810,#814,#906,.T.);
#645=EDGE_CURVE('',#816,#816,#113,.T.);
#646=EDGE_CURVE('',#736,#817,#114,.T.);
#647=EDGE_CURVE('',#818,#817,#907,.T.);
#648=EDGE_CURVE('',#818,#729,#115,.T.);
#649=EDGE_CURVE('',#735,#819,#116,.T.);
#650=EDGE_CURVE('',#817,#819,#908,.T.);
#651=EDGE_CURVE('',#808,#815,#909,.T.);
#652=EDGE_CURVE('',#819,#814,#910,.T.);
#653=EDGE_CURVE('',#773,#734,#117,.T.);
#654=EDGE_CURVE('',#774,#733,#118,.T.);
#655=EDGE_CURVE('',#820,#820,#119,.T.);
#656=EDGE_CURVE('',#732,#775,#120,.T.);
#657=EDGE_CURVE('',#788,#818,#911,.F.);
#658=EDGE_CURVE('',#811,#789,#912,.T.);
#659=EDGE_CURVE('',#790,#813,#913,.F.);
#660=EDGE_CURVE('',#806,#791,#914,.T.);
#661=EDGE_CURVE('',#756,#799,#121,.T.);
#662=EDGE_CURVE('',#759,#712,#122,.T.);
#663=EDGE_CURVE('',#755,#779,#915,.T.);
#664=EDGE_CURVE('',#747,#778,#916,.T.);
#665=EDGE_CURVE('',#748,#785,#917,.T.);
#666=EDGE_CURVE('',#764,#784,#918,.T.);
#667=EDGE_CURVE('',#765,#783,#919,.T.);
#668=EDGE_CURVE('',#766,#782,#920,.T.);
#669=EDGE_CURVE('',#767,#781,#921,.T.);
#670=EDGE_CURVE('',#754,#780,#922,.T.);
#671=EDGE_CURVE('',#739,#713,#923,.F.);
#672=EDGE_CURVE('',#714,#740,#924,.T.);
#673=EDGE_CURVE('',#715,#737,#925,.T.);
#674=EDGE_CURVE('',#738,#716,#926,.F.);
#675=EDGE_CURVE('',#743,#718,#927,.F.);
#676=EDGE_CURVE('',#717,#744,#928,.T.);
#677=EDGE_CURVE('',#741,#720,#929,.F.);
#678=EDGE_CURVE('',#719,#742,#930,.T.);
#679=EDGE_CURVE('',#701,#721,#931,.T.);
#680=EDGE_CURVE('',#722,#702,#932,.F.);
#681=EDGE_CURVE('',#727,#704,#933,.F.);
#682=EDGE_CURVE('',#703,#728,#934,.T.);
#683=EDGE_CURVE('',#725,#706,#935,.F.);
#684=EDGE_CURVE('',#705,#726,#936,.T.);
#685=EDGE_CURVE('',#723,#699,#937,.F.);
#686=EDGE_CURVE('',#700,#724,#938,.T.);
#687=EDGE_CURVE('',#821,#821,#123,.F.);
#688=EDGE_CURVE('',#822,#822,#124,.T.);
#689=EDGE_CURVE('',#823,#823,#125,.T.);
#690=EDGE_CURVE('',#824,#824,#126,.F.);
#691=EDGE_CURVE('',#825,#825,#127,.T.);
#692=EDGE_CURVE('',#826,#826,#128,.T.);
#693=EDGE_CURVE('',#827,#827,#129,.F.);
#694=EDGE_CURVE('',#828,#828,#130,.T.);
#695=EDGE_CURVE('',#829,#829,#131,.T.);
#696=EDGE_CURVE('',#830,#830,#132,.T.);
#697=EDGE_CURVE('',#831,#831,#133,.T.);
#698=EDGE_CURVE('',#832,#832,#134,.T.);
#699=VERTEX_POINT('',#1973);
#700=VERTEX_POINT('',#1974);
#701=VERTEX_POINT('',#1976);
#702=VERTEX_POINT('',#1978);
#703=VERTEX_POINT('',#1980);
#704=VERTEX_POINT('',#1982);
#705=VERTEX_POINT('',#1984);
#706=VERTEX_POINT('',#1986);
#707=VERTEX_POINT('',#1989);
#708=VERTEX_POINT('',#1990);
#709=VERTEX_POINT('',#1992);
#710=VERTEX_POINT('',#1994);
#711=VERTEX_POINT('',#1996);
#712=VERTEX_POINT('',#1998);
#713=VERTEX_POINT('',#2001);
#714=VERTEX_POINT('',#2002);
#715=VERTEX_POINT('',#2004);
#716=VERTEX_POINT('',#2006);
#717=VERTEX_POINT('',#2008);
#718=VERTEX_POINT('',#2010);
#719=VERTEX_POINT('',#2012);
#720=VERTEX_POINT('',#2014);
#721=VERTEX_POINT('',#2018);
#722=VERTEX_POINT('',#2019);
#723=VERTEX_POINT('',#2021);
#724=VERTEX_POINT('',#2023);
#725=VERTEX_POINT('',#2025);
#726=VERTEX_POINT('',#2027);
#727=VERTEX_POINT('',#2029);
#728=VERTEX_POINT('',#2031);
#729=VERTEX_POINT('',#2034);
#730=VERTEX_POINT('',#2035);
#731=VERTEX_POINT('',#2037);
#732=VERTEX_POINT('',#2039);
#733=VERTEX_POINT('',#2041);
#734=VERTEX_POINT('',#2043);
#735=VERTEX_POINT('',#2045);
#736=VERTEX_POINT('',#2047);
#737=VERTEX_POINT('',#2050);
#738=VERTEX_POINT('',#2051);
#739=VERTEX_POINT('',#2053);
#740=VERTEX_POINT('',#2055);
#741=VERTEX_POINT('',#2057);
#742=VERTEX_POINT('',#2059);
#743=VERTEX_POINT('',#2061);
#744=VERTEX_POINT('',#2063);
#745=VERTEX_POINT('',#2067);
#746=VERTEX_POINT('',#2068);
#747=VERTEX_POINT('',#2074);
#748=VERTEX_POINT('',#2076);
#749=VERTEX_POINT('',#2082);
#750=VERTEX_POINT('',#2084);
#751=VERTEX_POINT('',#2086);
#752=VERTEX_POINT('',#2088);
#753=VERTEX_POINT('',#2092);
#754=VERTEX_POINT('',#2094);
#755=VERTEX_POINT('',#2095);
#756=VERTEX_POINT('',#2098);
#757=VERTEX_POINT('',#2100);
#758=VERTEX_POINT('',#2102);
#759=VERTEX_POINT('',#2104);
#760=VERTEX_POINT('',#2106);
#761=VERTEX_POINT('',#2108);
#762=VERTEX_POINT('',#2110);
#763=VERTEX_POINT('',#2112);
#764=VERTEX_POINT('',#2115);
#765=VERTEX_POINT('',#2117);
#766=VERTEX_POINT('',#2119);
#767=VERTEX_POINT('',#2121);
#768=VERTEX_POINT('',#2125);
#769=VERTEX_POINT('',#2126);
#770=VERTEX_POINT('',#2128);
#771=VERTEX_POINT('',#2130);
#772=VERTEX_POINT('',#2132);
#773=VERTEX_POINT('',#2134);
#774=VERTEX_POINT('',#2136);
#775=VERTEX_POINT('',#2138);
#776=VERTEX_POINT('',#2141);
#777=VERTEX_POINT('',#2143);
#778=VERTEX_POINT('',#2145);
#779=VERTEX_POINT('',#2146);
#780=VERTEX_POINT('',#2148);
#781=VERTEX_POINT('',#2150);
#782=VERTEX_POINT('',#2152);
#783=VERTEX_POINT('',#2154);
#784=VERTEX_POINT('',#2156);
#785=VERTEX_POINT('',#2158);
#786=VERTEX_POINT('',#2172);
#787=VERTEX_POINT('',#2174);
#788=VERTEX_POINT('',#2177);
#789=VERTEX_POINT('',#2179);
#790=VERTEX_POINT('',#2181);
#791=VERTEX_POINT('',#2183);
#792=VERTEX_POINT('',#2186);
#793=VERTEX_POINT('',#2188);
#794=VERTEX_POINT('',#2190);
#795=VERTEX_POINT('',#2192);
#796=VERTEX_POINT('',#2194);
#797=VERTEX_POINT('',#2196);
#798=VERTEX_POINT('',#2201);
#799=VERTEX_POINT('',#2203);
#800=VERTEX_POINT('',#2208);
#801=VERTEX_POINT('',#2210);
#802=VERTEX_POINT('',#2218);
#803=VERTEX_POINT('',#2220);
#804=VERTEX_POINT('',#2222);
#805=VERTEX_POINT('',#2225);
#806=VERTEX_POINT('',#2228);
#807=VERTEX_POINT('',#2229);
#808=VERTEX_POINT('',#2234);
#809=VERTEX_POINT('',#2238);
#810=VERTEX_POINT('',#2241);
#811=VERTEX_POINT('',#2242);
#812=VERTEX_POINT('',#2244);
#813=VERTEX_POINT('',#2246);
#814=VERTEX_POINT('',#2250);
#815=VERTEX_POINT('',#2251);
#816=VERTEX_POINT('',#2256);
#817=VERTEX_POINT('',#2259);
#818=VERTEX_POINT('',#2261);
#819=VERTEX_POINT('',#2265);
#820=VERTEX_POINT('',#2275);
#821=VERTEX_POINT('',#2346);
#822=VERTEX_POINT('',#2348);
#823=VERTEX_POINT('',#2351);
#824=VERTEX_POINT('',#2354);
#825=VERTEX_POINT('',#2356);
#826=VERTEX_POINT('',#2359);
#827=VERTEX_POINT('',#2362);
#828=VERTEX_POINT('',#2364);
#829=VERTEX_POINT('',#2367);
#830=VERTEX_POINT('',#2373);
#831=VERTEX_POINT('',#2377);
#832=VERTEX_POINT('',#2381);
#833=LINE('',#1972,#939);
#834=LINE('',#1977,#940);
#835=LINE('',#1981,#941);
#836=LINE('',#1985,#942);
#837=LINE('',#1988,#943);
#838=LINE('',#1991,#944);
#839=LINE('',#1993,#945);
#840=LINE('',#1995,#946);
#841=LINE('',#1997,#947);
#842=LINE('',#1999,#948);
#843=LINE('',#2000,#949);
#844=LINE('',#2005,#950);
#845=LINE('',#2009,#951);
#846=LINE('',#2013,#952);
#847=LINE('',#2017,#953);
#848=LINE('',#2022,#954);
#849=LINE('',#2026,#955);
#850=LINE('',#2030,#956);
#851=LINE('',#2033,#957);
#852=LINE('',#2036,#958);
#853=LINE('',#2038,#959);
#854=LINE('',#2040,#960);
#855=LINE('',#2042,#961);
#856=LINE('',#2044,#962);
#857=LINE('',#2046,#963);
#858=LINE('',#2048,#964);
#859=LINE('',#2049,#965);
#860=LINE('',#2054,#966);
#861=LINE('',#2058,#967);
#862=LINE('',#2062,#968);
#863=LINE('',#2066,#969);
#864=LINE('',#2075,#970);
#865=LINE('',#2083,#971);
#866=LINE('',#2087,#972);
#867=LINE('',#2093,#973);
#868=LINE('',#2097,#974);
#869=LINE('',#2099,#975);
#870=LINE('',#2101,#976);
#871=LINE('',#2103,#977);
#872=LINE('',#2105,#978);
#873=LINE('',#2107,#979);
#874=LINE('',#2111,#980);
#875=LINE('',#2113,#981);
#876=LINE('',#2116,#982);
#877=LINE('',#2120,#983);
#878=LINE('',#2124,#984);
#879=LINE('',#2127,#985);
#880=LINE('',#2129,#986);
#881=LINE('',#2131,#987);
#882=LINE('',#2133,#988);
#883=LINE('',#2135,#989);
#884=LINE('',#2137,#990);
#885=LINE('',#2139,#991);
#886=LINE('',#2147,#992);
#887=LINE('',#2151,#993);
#888=LINE('',#2155,#994);
#889=LINE('',#2159,#995);
#890=LINE('',#2178,#996);
#891=LINE('',#2182,#997);
#892=LINE('',#2191,#998);
#893=LINE('',#2195,#999);
#894=LINE('',#2200,#1000);
#895=LINE('',#2202,#1001);
#896=LINE('',#2204,#1002);
#897=LINE('',#2205,#1003);
#898=LINE('',#2207,#1004);
#899=LINE('',#2209,#1005);
#900=LINE('',#2211,#1006);
#901=LINE('',#2227,#1007);
#902=LINE('',#2235,#1008);
#903=LINE('',#2240,#1009);
#904=LINE('',#2245,#1010);
#905=LINE('',#2252,#1011);
#906=LINE('',#2253,#1012);
#907=LINE('',#2260,#1013);
#908=LINE('',#2266,#1014);
#909=LINE('',#2268,#1015);
#910=LINE('',#2269,#1016);
#911=LINE('',#2279,#1017);
#912=LINE('',#2281,#1018);
#913=LINE('',#2283,#1019);
#914=LINE('',#2285,#1020);
#915=LINE('',#2297,#1021);
#916=LINE('',#2298,#1022);
#917=LINE('',#2300,#1023);
#918=LINE('',#2302,#1024);
#919=LINE('',#2304,#1025);
#920=LINE('',#2306,#1026);
#921=LINE('',#2308,#1027);
#922=LINE('',#2310,#1028);
#923=LINE('',#2313,#1029);
#924=LINE('',#2314,#1030);
#925=LINE('',#2316,#1031);
#926=LINE('',#2317,#1032);
#927=LINE('',#2319,#1033);
#928=LINE('',#2320,#1034);
#929=LINE('',#2322,#1035);
#930=LINE('',#2323,#1036);
#931=LINE('',#2325,#1037);
#932=LINE('',#2326,#1038);
#933=LINE('',#2328,#1039);
#934=LINE('',#2329,#1040);
#935=LINE('',#2331,#1041);
#936=LINE('',#2332,#1042);
#937=LINE('',#2334,#1043);
#938=LINE('',#2335,#1044);
#939=VECTOR('',#1556,1.);
#940=VECTOR('',#1559,1.);
#941=VECTOR('',#1562,1.);
#942=VECTOR('',#1565,1.);
#943=VECTOR('',#1568,1.);
#944=VECTOR('',#1569,1.);
#945=VECTOR('',#1570,1.);
#946=VECTOR('',#1571,1.);
#947=VECTOR('',#1572,1.);
#948=VECTOR('',#1573,1.);
#949=VECTOR('',#1574,1.);
#950=VECTOR('',#1577,1.);
#951=VECTOR('',#1580,1.);
#952=VECTOR('',#1583,1.);
#953=VECTOR('',#1588,1.);
#954=VECTOR('',#1591,1.);
#955=VECTOR('',#1594,1.);
#956=VECTOR('',#1597,1.);
#957=VECTOR('',#1600,1.);
#958=VECTOR('',#1601,1.);
#959=VECTOR('',#1602,1.);
#960=VECTOR('',#1603,1.);
#961=VECTOR('',#1604,1.);
#962=VECTOR('',#1605,1.);
#963=VECTOR('',#1606,1.);
#964=VECTOR('',#1607,1.);
#965=VECTOR('',#1608,1.);
#966=VECTOR('',#1611,1.);
#967=VECTOR('',#1614,1.);
#968=VECTOR('',#1617,1.);
#969=VECTOR('',#1622,1.);
#970=VECTOR('',#1623,1.);
#971=VECTOR('',#1624,1.);
#972=VECTOR('',#1627,1.);
#973=VECTOR('',#1634,1.);
#974=VECTOR('',#1637,1.);
#975=VECTOR('',#1638,1.);
#976=VECTOR('',#1639,1.);
#977=VECTOR('',#1640,1.);
#978=VECTOR('',#1641,1.);
#979=VECTOR('',#1642,1.);
#980=VECTOR('',#1645,1.);
#981=VECTOR('',#1646,1.);
#982=VECTOR('',#1649,1.);
#983=VECTOR('',#1652,1.);
#984=VECTOR('',#1657,1.);
#985=VECTOR('',#1658,1.);
#986=VECTOR('',#1659,1.);
#987=VECTOR('',#1660,1.);
#988=VECTOR('',#1661,1.);
#989=VECTOR('',#1662,1.);
#990=VECTOR('',#1663,1.);
#991=VECTOR('',#1664,1.);
#992=VECTOR('',#1671,1.);
#993=VECTOR('',#1674,1.);
#994=VECTOR('',#1677,1.);
#995=VECTOR('',#1680,1.);
#996=VECTOR('',#1697,1.);
#997=VECTOR('',#1700,1.);
#998=VECTOR('',#1709,1.);
#999=VECTOR('',#1712,1.);
#1000=VECTOR('',#1719,1.);
#1001=VECTOR('',#1720,1.);
#1002=VECTOR('',#1721,1.);
#1003=VECTOR('',#1722,1.);
#1004=VECTOR('',#1725,1.);
#1005=VECTOR('',#1726,1.);
#1006=VECTOR('',#1727,1.);
#1007=VECTOR('',#1750,1.);
#1008=VECTOR('',#1759,1.);
#1009=VECTOR('',#1766,1.);
#1010=VECTOR('',#1769,1.);
#1011=VECTOR('',#1776,1.);
#1012=VECTOR('',#1777,1.);
#1013=VECTOR('',#1786,1.);
#1014=VECTOR('',#1793,1.);
#1015=VECTOR('',#1796,1.);
#1016=VECTOR('',#1797,1.);
#1017=VECTOR('',#1814,1.);
#1018=VECTOR('',#1817,1.);
#1019=VECTOR('',#1820,1.);
#1020=VECTOR('',#1823,1.);
#1021=VECTOR('',#1846,1.);
#1022=VECTOR('',#1847,1.);
#1023=VECTOR('',#1850,1.);
#1024=VECTOR('',#1853,1.);
#1025=VECTOR('',#1856,1.);
#1026=VECTOR('',#1859,1.);
#1027=VECTOR('',#1862,1.);
#1028=VECTOR('',#1865,1.);
#1029=VECTOR('',#1870,1.);
#1030=VECTOR('',#1871,1.);
#1031=VECTOR('',#1874,1.);
#1032=VECTOR('',#1875,1.);
#1033=VECTOR('',#1878,1.);
#1034=VECTOR('',#1879,1.);
#1035=VECTOR('',#1882,1.);
#1036=VECTOR('',#1883,1.);
#1037=VECTOR('',#1886,1.);
#1038=VECTOR('',#1887,1.);
#1039=VECTOR('',#1890,1.);
#1040=VECTOR('',#1891,1.);
#1041=VECTOR('',#1894,1.);
#1042=VECTOR('',#1895,1.);
#1043=VECTOR('',#1898,1.);
#1044=VECTOR('',#1899,1.);
#1045=EDGE_LOOP('',(#135,#136,#137,#138,#139,#140,#141,#142));
#1046=EDGE_LOOP('',(#143,#144,#145,#146,#147,#148));
#1047=EDGE_LOOP('',(#149,#150,#151,#152,#153,#154,#155,#156));
#1048=EDGE_LOOP('',(#157,#158,#159,#160,#161,#162,#163,#164));
#1049=EDGE_LOOP('',(#165,#166,#167,#168,#169,#170,#171,#172));
#1050=EDGE_LOOP('',(#173,#174,#175,#176,#177,#178,#179,#180));
#1051=EDGE_LOOP('',(#181,#182,#183,#184,#185,#186,#187,#188));
#1052=EDGE_LOOP('',(#189));
#1053=EDGE_LOOP('',(#190,#191,#192,#193,#194,#195,#196,#197,#198,#199,#200,
#201,#202,#203,#204,#205,#206,#207));
#1054=EDGE_LOOP('',(#208,#209,#210,#211,#212,#213,#214,#215));
#1055=EDGE_LOOP('',(#216));
#1056=EDGE_LOOP('',(#217));
#1057=EDGE_LOOP('',(#218,#219,#220,#221,#222,#223,#224,#225));
#1058=EDGE_LOOP('',(#226,#227,#228,#229,#230,#231));
#1059=EDGE_LOOP('',(#232));
#1060=EDGE_LOOP('',(#233));
#1061=EDGE_LOOP('',(#234,#235,#236,#237,#238,#239,#240,#241));
#1062=EDGE_LOOP('',(#242));
#1063=EDGE_LOOP('',(#243));
#1064=EDGE_LOOP('',(#244,#245,#246,#247,#248,#249,#250,#251));
#1065=EDGE_LOOP('',(#252,#253,#254,#255,#256,#257));
#1066=EDGE_LOOP('',(#258,#259,#260,#261));
#1067=EDGE_LOOP('',(#262,#263,#264,#265));
#1068=EDGE_LOOP('',(#266,#267,#268,#269));
#1069=EDGE_LOOP('',(#270));
#1070=EDGE_LOOP('',(#271));
#1071=EDGE_LOOP('',(#272));
#1072=EDGE_LOOP('',(#273,#274,#275,#276,#277,#278,#279,#280));
#1073=EDGE_LOOP('',(#281));
#1074=EDGE_LOOP('',(#282));
#1075=EDGE_LOOP('',(#283));
#1076=EDGE_LOOP('',(#284,#285,#286,#287));
#1077=EDGE_LOOP('',(#288,#289,#290,#291));
#1078=EDGE_LOOP('',(#292));
#1079=EDGE_LOOP('',(#293));
#1080=EDGE_LOOP('',(#294));
#1081=EDGE_LOOP('',(#295,#296,#297,#298));
#1082=EDGE_LOOP('',(#299,#300,#301,#302));
#1083=EDGE_LOOP('',(#303));
#1084=EDGE_LOOP('',(#304));
#1085=EDGE_LOOP('',(#305));
#1086=EDGE_LOOP('',(#306,#307,#308,#309));
#1087=EDGE_LOOP('',(#310,#311,#312,#313));
#1088=EDGE_LOOP('',(#314,#315,#316,#317,#318,#319,#320,#321));
#1089=EDGE_LOOP('',(#322,#323,#324,#325));
#1090=EDGE_LOOP('',(#326));
#1091=EDGE_LOOP('',(#327));
#1092=EDGE_LOOP('',(#328));
#1093=EDGE_LOOP('',(#329,#330,#331,#332));
#1094=EDGE_LOOP('',(#333,#334,#335,#336));
#1095=EDGE_LOOP('',(#337,#338,#339,#340,#341,#342,#343,#344));
#1096=EDGE_LOOP('',(#345,#346,#347,#348));
#1097=EDGE_LOOP('',(#349,#350,#351,#352,#353,#354,#355,#356));
#1098=EDGE_LOOP('',(#357,#358,#359,#360));
#1099=EDGE_LOOP('',(#361,#362,#363,#364));
#1100=EDGE_LOOP('',(#365,#366,#367,#368));
#1101=EDGE_LOOP('',(#369,#370,#371,#372));
#1102=EDGE_LOOP('',(#373,#374,#375,#376));
#1103=EDGE_LOOP('',(#377,#378,#379,#380));
#1104=EDGE_LOOP('',(#381,#382));
#1105=EDGE_LOOP('',(#383));
#1106=EDGE_LOOP('',(#384));
#1107=EDGE_LOOP('',(#385));
#1108=EDGE_LOOP('',(#386,#387,#388,#389,#390));
#1109=EDGE_LOOP('',(#391,#392,#393,#394));
#1110=EDGE_LOOP('',(#395,#396,#397,#398,#399));
#1111=EDGE_LOOP('',(#400,#401,#402,#403));
#1112=EDGE_LOOP('',(#404,#405,#406,#407));
#1113=EDGE_LOOP('',(#408,#409,#410,#411));
#1114=EDGE_LOOP('',(#412,#413,#414,#415));
#1115=EDGE_LOOP('',(#416,#417,#418,#419));
#1116=EDGE_LOOP('',(#420,#421,#422,#423));
#1117=EDGE_LOOP('',(#424,#425,#426,#427));
#1118=EDGE_LOOP('',(#428,#429,#430,#431));
#1119=EDGE_LOOP('',(#432,#433,#434,#435));
#1120=EDGE_LOOP('',(#436,#437,#438,#439));
#1121=EDGE_LOOP('',(#440,#441,#442,#443));
#1122=EDGE_LOOP('',(#444,#445,#446,#447));
#1123=EDGE_LOOP('',(#448,#449,#450,#451));
#1124=EDGE_LOOP('',(#452,#453,#454,#455));
#1125=EDGE_LOOP('',(#456,#457,#458,#459));
#1126=EDGE_LOOP('',(#460,#461,#462,#463));
#1127=EDGE_LOOP('',(#464,#465,#466,#467));
#1128=EDGE_LOOP('',(#468,#469,#470,#471));
#1129=EDGE_LOOP('',(#472,#473,#474,#475));
#1130=EDGE_LOOP('',(#476,#477,#478,#479));
#1131=EDGE_LOOP('',(#480,#481,#482,#483));
#1132=EDGE_LOOP('',(#484));
#1133=EDGE_LOOP('',(#485));
#1134=EDGE_LOOP('',(#486));
#1135=EDGE_LOOP('',(#487));
#1136=EDGE_LOOP('',(#488));
#1137=EDGE_LOOP('',(#489));
#1138=EDGE_LOOP('',(#490));
#1139=EDGE_LOOP('',(#491));
#1140=EDGE_LOOP('',(#492));
#1141=EDGE_LOOP('',(#493));
#1142=EDGE_LOOP('',(#494));
#1143=EDGE_LOOP('',(#495));
#1144=EDGE_LOOP('',(#496));
#1145=EDGE_LOOP('',(#497));
#1146=EDGE_LOOP('',(#498));
#1147=EDGE_LOOP('',(#499));
#1148=EDGE_LOOP('',(#500));
#1149=EDGE_LOOP('',(#501));
#1150=EDGE_LOOP('',(#502));
#1151=EDGE_LOOP('',(#503));
#1152=EDGE_LOOP('',(#504));
#1153=EDGE_LOOP('',(#505));
#1154=EDGE_LOOP('',(#506));
#1155=EDGE_LOOP('',(#507));
#1156=EDGE_LOOP('',(#508));
#1157=EDGE_LOOP('',(#509));
#1158=EDGE_LOOP('',(#510));
#1159=FACE_BOUND('',#1045,.T.);
#1160=FACE_BOUND('',#1046,.T.);
#1161=FACE_BOUND('',#1047,.T.);
#1162=FACE_BOUND('',#1048,.T.);
#1163=FACE_BOUND('',#1049,.T.);
#1164=FACE_BOUND('',#1050,.T.);
#1165=FACE_BOUND('',#1051,.T.);
#1166=FACE_BOUND('',#1052,.T.);
#1167=FACE_BOUND('',#1053,.T.);
#1168=FACE_BOUND('',#1054,.T.);
#1169=FACE_BOUND('',#1055,.T.);
#1170=FACE_BOUND('',#1056,.T.);
#1171=FACE_BOUND('',#1057,.T.);
#1172=FACE_BOUND('',#1058,.T.);
#1173=FACE_BOUND('',#1059,.T.);
#1174=FACE_BOUND('',#1060,.T.);
#1175=FACE_BOUND('',#1061,.T.);
#1176=FACE_BOUND('',#1062,.T.);
#1177=FACE_BOUND('',#1063,.T.);
#1178=FACE_BOUND('',#1064,.T.);
#1179=FACE_BOUND('',#1065,.T.);
#1180=FACE_BOUND('',#1066,.T.);
#1181=FACE_BOUND('',#1067,.T.);
#1182=FACE_BOUND('',#1068,.T.);
#1183=FACE_BOUND('',#1069,.T.);
#1184=FACE_BOUND('',#1070,.T.);
#1185=FACE_BOUND('',#1071,.T.);
#1186=FACE_BOUND('',#1072,.T.);
#1187=FACE_BOUND('',#1073,.T.);
#1188=FACE_BOUND('',#1074,.T.);
#1189=FACE_BOUND('',#1075,.T.);
#1190=FACE_BOUND('',#1076,.T.);
#1191=FACE_BOUND('',#1077,.T.);
#1192=FACE_BOUND('',#1078,.T.);
#1193=FACE_BOUND('',#1079,.T.);
#1194=FACE_BOUND('',#1080,.T.);
#1195=FACE_BOUND('',#1081,.T.);
#1196=FACE_BOUND('',#1082,.T.);
#1197=FACE_BOUND('',#1083,.T.);
#1198=FACE_BOUND('',#1084,.T.);
#1199=FACE_BOUND('',#1085,.T.);
#1200=FACE_BOUND('',#1086,.T.);
#1201=FACE_BOUND('',#1087,.T.);
#1202=FACE_BOUND('',#1088,.T.);
#1203=FACE_BOUND('',#1089,.T.);
#1204=FACE_BOUND('',#1090,.T.);
#1205=FACE_BOUND('',#1091,.T.);
#1206=FACE_BOUND('',#1092,.T.);
#1207=FACE_BOUND('',#1093,.T.);
#1208=FACE_BOUND('',#1094,.T.);
#1209=FACE_BOUND('',#1095,.T.);
#1210=FACE_BOUND('',#1096,.T.);
#1211=FACE_BOUND('',#1097,.T.);
#1212=FACE_BOUND('',#1098,.T.);
#1213=FACE_BOUND('',#1099,.T.);
#1214=FACE_BOUND('',#1100,.T.);
#1215=FACE_BOUND('',#1101,.T.);
#1216=FACE_BOUND('',#1102,.T.);
#1217=FACE_BOUND('',#1103,.T.);
#1218=FACE_BOUND('',#1104,.T.);
#1219=FACE_BOUND('',#1105,.T.);
#1220=FACE_BOUND('',#1106,.T.);
#1221=FACE_BOUND('',#1107,.T.);
#1222=FACE_BOUND('',#1108,.T.);
#1223=FACE_BOUND('',#1109,.T.);
#1224=FACE_BOUND('',#1110,.T.);
#1225=FACE_BOUND('',#1111,.T.);
#1226=FACE_BOUND('',#1112,.T.);
#1227=FACE_BOUND('',#1113,.T.);
#1228=FACE_BOUND('',#1114,.T.);
#1229=FACE_BOUND('',#1115,.T.);
#1230=FACE_BOUND('',#1116,.T.);
#1231=FACE_BOUND('',#1117,.T.);
#1232=FACE_BOUND('',#1118,.T.);
#1233=FACE_BOUND('',#1119,.T.);
#1234=FACE_BOUND('',#1120,.T.);
#1235=FACE_BOUND('',#1121,.T.);
#1236=FACE_BOUND('',#1122,.T.);
#1237=FACE_BOUND('',#1123,.T.);
#1238=FACE_BOUND('',#1124,.T.);
#1239=FACE_BOUND('',#1125,.T.);
#1240=FACE_BOUND('',#1126,.T.);
#1241=FACE_BOUND('',#1127,.T.);
#1242=FACE_BOUND('',#1128,.T.);
#1243=FACE_BOUND('',#1129,.T.);
#1244=FACE_BOUND('',#1130,.T.);
#1245=FACE_BOUND('',#1131,.T.);
#1246=FACE_BOUND('',#1132,.T.);
#1247=FACE_BOUND('',#1133,.T.);
#1248=FACE_BOUND('',#1134,.T.);
#1249=FACE_BOUND('',#1135,.T.);
#1250=FACE_BOUND('',#1136,.T.);
#1251=FACE_BOUND('',#1137,.T.);
#1252=FACE_BOUND('',#1138,.T.);
#1253=FACE_BOUND('',#1139,.T.);
#1254=FACE_BOUND('',#1140,.T.);
#1255=FACE_BOUND('',#1141,.T.);
#1256=FACE_BOUND('',#1142,.T.);
#1257=FACE_BOUND('',#1143,.T.);
#1258=FACE_BOUND('',#1144,.T.);
#1259=FACE_BOUND('',#1145,.T.);
#1260=FACE_BOUND('',#1146,.T.);
#1261=FACE_BOUND('',#1147,.T.);
#1262=FACE_BOUND('',#1148,.T.);
#1263=FACE_BOUND('',#1149,.T.);
#1264=FACE_BOUND('',#1150,.T.);
#1265=FACE_BOUND('',#1151,.T.);
#1266=FACE_BOUND('',#1152,.T.);
#1267=FACE_BOUND('',#1153,.T.);
#1268=FACE_BOUND('',#1154,.T.);
#1269=FACE_BOUND('',#1155,.T.);
#1270=FACE_BOUND('',#1156,.T.);
#1271=FACE_BOUND('',#1157,.T.);
#1272=FACE_BOUND('',#1158,.T.);
#1273=PLANE('',#1397);
#1274=PLANE('',#1406);
#1275=PLANE('',#1418);
#1276=PLANE('',#1425);
#1277=PLANE('',#1435);
#1278=PLANE('',#1448);
#1279=PLANE('',#1449);
#1280=PLANE('',#1454);
#1281=PLANE('',#1460);
#1282=PLANE('',#1467);
#1283=PLANE('',#1474);
#1284=PLANE('',#1479);
#1285=PLANE('',#1485);
#1286=PLANE('',#1488);
#1287=PLANE('',#1490);
#1288=PLANE('',#1495);
#1289=PLANE('',#1498);
#1290=PLANE('',#1502);
#1291=PLANE('',#1504);
#1292=PLANE('',#1506);
#1293=PLANE('',#1508);
#1294=PLANE('',#1509);
#1295=PLANE('',#1510);
#1296=PLANE('',#1511);
#1297=PLANE('',#1512);
#1298=PLANE('',#1513);
#1299=PLANE('',#1514);
#1300=PLANE('',#1515);
#1301=PLANE('',#1516);
#1302=PLANE('',#1528);
#1303=PLANE('',#1533);
#1304=PLANE('',#1538);
#1305=PLANE('',#1545);
#1306=PLANE('',#1548);
#1307=PLANE('',#1551);
#1308=ADVANCED_FACE('',(#1159,#1160,#1161),#1273,.F.);
#1309=ADVANCED_FACE('',(#1162,#1163,#1164),#1274,.T.);
#1310=ADVANCED_FACE('',(#1165),#18,.T.);
#1311=ADVANCED_FACE('',(#1166,#1167),#1275,.T.);
#1312=ADVANCED_FACE('',(#1168,#1169,#1170,#1171),#1276,.F.);
#1313=ADVANCED_FACE('',(#1172),#19,.T.);
#1314=ADVANCED_FACE('',(#1173,#1174,#1175,#1176,#1177,#1178),#1277,.T.);
#1315=ADVANCED_FACE('',(#1179),#1278,.T.);
#1316=ADVANCED_FACE('',(#1180),#1279,.F.);
#1317=ADVANCED_FACE('',(#1181),#20,.T.);
#1318=ADVANCED_FACE('',(#1182),#21,.T.);
#1319=ADVANCED_FACE('',(#1183,#1184,#1185,#1186),#1280,.F.);
#1320=ADVANCED_FACE('',(#1187,#1188),#22,.F.);
#1321=ADVANCED_FACE('',(#1189,#1190),#1281,.T.);
#1322=ADVANCED_FACE('',(#1191),#23,.F.);
#1323=ADVANCED_FACE('',(#1192,#1193),#24,.F.);
#1324=ADVANCED_FACE('',(#1194,#1195),#1282,.T.);
#1325=ADVANCED_FACE('',(#1196),#25,.F.);
#1326=ADVANCED_FACE('',(#1197,#1198),#26,.F.);
#1327=ADVANCED_FACE('',(#1199,#1200),#1283,.T.);
#1328=ADVANCED_FACE('',(#1201),#27,.F.);
#1329=ADVANCED_FACE('',(#1202),#1284,.T.);
#1330=ADVANCED_FACE('',(#1203),#28,.F.);
#1331=ADVANCED_FACE('',(#1204,#1205),#29,.F.);
#1332=ADVANCED_FACE('',(#1206,#1207),#1285,.T.);
#1333=ADVANCED_FACE('',(#1208),#30,.T.);
#1334=ADVANCED_FACE('',(#1209),#1286,.T.);
#1335=ADVANCED_FACE('',(#1210),#31,.T.);
#1336=ADVANCED_FACE('',(#1211),#1287,.F.);
#1337=ADVANCED_FACE('',(#1212),#32,.T.);
#1338=ADVANCED_FACE('',(#1213),#33,.T.);
#1339=ADVANCED_FACE('',(#1214),#34,.T.);
#1340=ADVANCED_FACE('',(#1215),#1288,.T.);
#1341=ADVANCED_FACE('',(#1216),#35,.T.);
#1342=ADVANCED_FACE('',(#1217),#1289,.T.);
#1343=ADVANCED_FACE('',(#1218,#1219),#36,.F.);
#1344=ADVANCED_FACE('',(#1220,#1221),#37,.F.);
#1345=ADVANCED_FACE('',(#1222),#38,.F.);
#1346=ADVANCED_FACE('',(#1223),#1290,.F.);
#1347=ADVANCED_FACE('',(#1224),#39,.F.);
#1348=ADVANCED_FACE('',(#1225),#1291,.F.);
#1349=ADVANCED_FACE('',(#1226),#40,.F.);
#1350=ADVANCED_FACE('',(#1227),#1292,.T.);
#1351=ADVANCED_FACE('',(#1228),#41,.F.);
#1352=ADVANCED_FACE('',(#1229),#1293,.T.);
#1353=ADVANCED_FACE('',(#1230),#1294,.T.);
#1354=ADVANCED_FACE('',(#1231),#1295,.F.);
#1355=ADVANCED_FACE('',(#1232),#1296,.F.);
#1356=ADVANCED_FACE('',(#1233),#1297,.T.);
#1357=ADVANCED_FACE('',(#1234),#1298,.F.);
#1358=ADVANCED_FACE('',(#1235),#1299,.F.);
#1359=ADVANCED_FACE('',(#1236),#1300,.F.);
#1360=ADVANCED_FACE('',(#1237),#1301,.T.);
#1361=ADVANCED_FACE('',(#1238),#42,.F.);
#1362=ADVANCED_FACE('',(#1239),#43,.F.);
#1363=ADVANCED_FACE('',(#1240),#44,.F.);
#1364=ADVANCED_FACE('',(#1241),#45,.F.);
#1365=ADVANCED_FACE('',(#1242),#46,.F.);
#1366=ADVANCED_FACE('',(#1243),#47,.F.);
#1367=ADVANCED_FACE('',(#1244),#48,.F.);
#1368=ADVANCED_FACE('',(#1245),#49,.F.);
#1369=ADVANCED_FACE('',(#1246,#1247),#50,.T.);
#1370=ADVANCED_FACE('',(#1248,#1249),#1302,.T.);
#1371=ADVANCED_FACE('',(#1250,#1251),#51,.T.);
#1372=ADVANCED_FACE('',(#1252,#1253),#1303,.T.);
#1373=ADVANCED_FACE('',(#1254,#1255),#52,.T.);
#1374=ADVANCED_FACE('',(#1256,#1257),#1304,.T.);
#1375=ADVANCED_FACE('',(#1258,#1259),#12,.F.);
#1376=ADVANCED_FACE('',(#1260,#1261),#13,.F.);
#1377=ADVANCED_FACE('',(#1262,#1263),#14,.F.);
#1378=ADVANCED_FACE('',(#1264,#1265),#53,.T.);
#1379=ADVANCED_FACE('',(#1266),#1305,.T.);
#1380=ADVANCED_FACE('',(#1267,#1268),#54,.T.);
#1381=ADVANCED_FACE('',(#1269),#1306,.T.);
#1382=ADVANCED_FACE('',(#1270,#1271),#55,.T.);
#1383=ADVANCED_FACE('',(#1272),#1307,.T.);
#1384=CLOSED_SHELL('',(#1308,#1309,#1310,#1311,#1312,#1313,#1314,#1315,
#1316,#1317,#1318,#1319,#1320,#1321,#1322,#1323,#1324,#1325,#1326,#1327,
#1328,#1329,#1330,#1331,#1332,#1333,#1334,#1335,#1336,#1337,#1338,#1339,
#1340,#1341,#1342,#1343,#1344,#1345,#1346,#1347,#1348,#1349,#1350,#1351,
#1352,#1353,#1354,#1355,#1356,#1357,#1358,#1359,#1360,#1361,#1362,#1363,
#1364,#1365,#1366,#1367,#1368,#1369,#1370,#1371,#1372,#1373,#1374,#1375,
#1376,#1377,#1378,#1379,#1380,#1381,#1382,#1383));
#1385=STYLED_ITEM('',(#1386),#1393);
#1386=PRESENTATION_STYLE_ASSIGNMENT((#1387));
#1387=SURFACE_STYLE_USAGE(.BOTH.,#1388);
#1388=SURFACE_SIDE_STYLE('',(#1389));
#1389=SURFACE_STYLE_FILL_AREA(#1390);
#1390=FILL_AREA_STYLE('',(#1391));
#1391=FILL_AREA_STYLE_COLOUR('',#1392);
#1392=COLOUR_RGB('',0.796078431372549,0.905882352941176,0.745098039215686);
#1393=MANIFOLD_SOLID_BREP('bottom',#1384);
#1394=SHAPE_DEFINITION_REPRESENTATION(#2389,#1395);
#1395=SHAPE_REPRESENTATION('bottom',(#1396),#2384);
#1396=AXIS2_PLACEMENT_3D('',#1970,#1552,#1553);
#1397=AXIS2_PLACEMENT_3D('',#1971,#1554,#1555);
#1398=AXIS2_PLACEMENT_3D('',#1975,#1557,#1558);
#1399=AXIS2_PLACEMENT_3D('',#1979,#1560,#1561);
#1400=AXIS2_PLACEMENT_3D('',#1983,#1563,#1564);
#1401=AXIS2_PLACEMENT_3D('',#1987,#1566,#1567);
#1402=AXIS2_PLACEMENT_3D('',#2003,#1575,#1576);
#1403=AXIS2_PLACEMENT_3D('',#2007,#1578,#1579);
#1404=AXIS2_PLACEMENT_3D('',#2011,#1581,#1582);
#1405=AXIS2_PLACEMENT_3D('',#2015,#1584,#1585);
#1406=AXIS2_PLACEMENT_3D('',#2016,#1586,#1587);
#1407=AXIS2_PLACEMENT_3D('',#2020,#1589,#1590);
#1408=AXIS2_PLACEMENT_3D('',#2024,#1592,#1593);
#1409=AXIS2_PLACEMENT_3D('',#2028,#1595,#1596);
#1410=AXIS2_PLACEMENT_3D('',#2032,#1598,#1599);
#1411=AXIS2_PLACEMENT_3D('',#2052,#1609,#1610);
#1412=AXIS2_PLACEMENT_3D('',#2056,#1612,#1613);
#1413=AXIS2_PLACEMENT_3D('',#2060,#1615,#1616);
#1414=AXIS2_PLACEMENT_3D('',#2064,#1618,#1619);
#1415=AXIS2_PLACEMENT_3D('',#2065,#1620,#1621);
#1416=AXIS2_PLACEMENT_3D('',#2085,#1625,#1626);
#1417=AXIS2_PLACEMENT_3D('',#2089,#1628,#1629);
#1418=AXIS2_PLACEMENT_3D('',#2090,#1630,#1631);
#1419=AXIS2_PLACEMENT_3D('',#2091,#1632,#1633);
#1420=AXIS2_PLACEMENT_3D('',#2096,#1635,#1636);
#1421=AXIS2_PLACEMENT_3D('',#2109,#1643,#1644);
#1422=AXIS2_PLACEMENT_3D('',#2114,#1647,#1648);
#1423=AXIS2_PLACEMENT_3D('',#2118,#1650,#1651);
#1424=AXIS2_PLACEMENT_3D('',#2122,#1653,#1654);
#1425=AXIS2_PLACEMENT_3D('',#2123,#1655,#1656);
#1426=AXIS2_PLACEMENT_3D('',#2140,#1665,#1666);
#1427=AXIS2_PLACEMENT_3D('',#2142,#1667,#1668);
#1428=AXIS2_PLACEMENT_3D('',#2144,#1669,#1670);
#1429=AXIS2_PLACEMENT_3D('',#2149,#1672,#1673);
#1430=AXIS2_PLACEMENT_3D('',#2153,#1675,#1676);
#1431=AXIS2_PLACEMENT_3D('',#2157,#1678,#1679);
#1432=AXIS2_PLACEMENT_3D('',#2160,#1681,#1682);
#1433=AXIS2_PLACEMENT_3D('',#2168,#1683,#1684);
#1434=AXIS2_PLACEMENT_3D('',#2169,#1685,#1686);
#1435=AXIS2_PLACEMENT_3D('',#2170,#1687,#1688);
#1436=AXIS2_PLACEMENT_3D('',#2171,#1689,#1690);
#1437=AXIS2_PLACEMENT_3D('',#2173,#1691,#1692);
#1438=AXIS2_PLACEMENT_3D('',#2175,#1693,#1694);
#1439=AXIS2_PLACEMENT_3D('',#2176,#1695,#1696);
#1440=AXIS2_PLACEMENT_3D('',#2180,#1698,#1699);
#1441=AXIS2_PLACEMENT_3D('',#2184,#1701,#1702);
#1442=AXIS2_PLACEMENT_3D('',#2185,#1703,#1704);
#1443=AXIS2_PLACEMENT_3D('',#2187,#1705,#1706);
#1444=AXIS2_PLACEMENT_3D('',#2189,#1707,#1708);
#1445=AXIS2_PLACEMENT_3D('',#2193,#1710,#1711);
#1446=AXIS2_PLACEMENT_3D('',#2197,#1713,#1714);
#1447=AXIS2_PLACEMENT_3D('',#2198,#1715,#1716);
#1448=AXIS2_PLACEMENT_3D('',#2199,#1717,#1718);
#1449=AXIS2_PLACEMENT_3D('',#2206,#1723,#1724);
#1450=AXIS2_PLACEMENT_3D('',#2212,#1728,#1729);
#1451=AXIS2_PLACEMENT_3D('',#2213,#1730,#1731);
#1452=AXIS2_PLACEMENT_3D('',#2214,#1732,#1733);
#1453=AXIS2_PLACEMENT_3D('',#2215,#1734,#1735);
#1454=AXIS2_PLACEMENT_3D('',#2216,#1736,#1737);
#1455=AXIS2_PLACEMENT_3D('',#2217,#1738,#1739);
#1456=AXIS2_PLACEMENT_3D('',#2219,#1740,#1741);
#1457=AXIS2_PLACEMENT_3D('',#2221,#1742,#1743);
#1458=AXIS2_PLACEMENT_3D('',#2223,#1744,#1745);
#1459=AXIS2_PLACEMENT_3D('',#2224,#1746,#1747);
#1460=AXIS2_PLACEMENT_3D('',#2226,#1748,#1749);
#1461=AXIS2_PLACEMENT_3D('',#2230,#1751,#1752);
#1462=AXIS2_PLACEMENT_3D('',#2231,#1753,#1754);
#1463=AXIS2_PLACEMENT_3D('',#2232,#1755,#1756);
#1464=AXIS2_PLACEMENT_3D('',#2233,#1757,#1758);
#1465=AXIS2_PLACEMENT_3D('',#2236,#1760,#1761);
#1466=AXIS2_PLACEMENT_3D('',#2237,#1762,#1763);
#1467=AXIS2_PLACEMENT_3D('',#2239,#1764,#1765);
#1468=AXIS2_PLACEMENT_3D('',#2243,#1767,#1768);
#1469=AXIS2_PLACEMENT_3D('',#2247,#1770,#1771);
#1470=AXIS2_PLACEMENT_3D('',#2248,#1772,#1773);
#1471=AXIS2_PLACEMENT_3D('',#2249,#1774,#1775);
#1472=AXIS2_PLACEMENT_3D('',#2254,#1778,#1779);
#1473=AXIS2_PLACEMENT_3D('',#2255,#1780,#1781);
#1474=AXIS2_PLACEMENT_3D('',#2257,#1782,#1783);
#1475=AXIS2_PLACEMENT_3D('',#2258,#1784,#1785);
#1476=AXIS2_PLACEMENT_3D('',#2262,#1787,#1788);
#1477=AXIS2_PLACEMENT_3D('',#2263,#1789,#1790);
#1478=AXIS2_PLACEMENT_3D('',#2264,#1791,#1792);
#1479=AXIS2_PLACEMENT_3D('',#2267,#1794,#1795);
#1480=AXIS2_PLACEMENT_3D('',#2270,#1798,#1799);
#1481=AXIS2_PLACEMENT_3D('',#2271,#1800,#1801);
#1482=AXIS2_PLACEMENT_3D('',#2272,#1802,#1803);
#1483=AXIS2_PLACEMENT_3D('',#2273,#1804,#1805);
#1484=AXIS2_PLACEMENT_3D('',#2274,#1806,#1807);
#1485=AXIS2_PLACEMENT_3D('',#2276,#1808,#1809);
#1486=AXIS2_PLACEMENT_3D('',#2277,#1810,#1811);
#1487=AXIS2_PLACEMENT_3D('',#2278,#1812,#1813);
#1488=AXIS2_PLACEMENT_3D('',#2280,#1815,#1816);
#1489=AXIS2_PLACEMENT_3D('',#2282,#1818,#1819);
#1490=AXIS2_PLACEMENT_3D('',#2284,#1821,#1822);
#1491=AXIS2_PLACEMENT_3D('',#2286,#1824,#1825);
#1492=AXIS2_PLACEMENT_3D('',#2287,#1826,#1827);
#1493=AXIS2_PLACEMENT_3D('',#2288,#1828,#1829);
#1494=AXIS2_PLACEMENT_3D('',#2289,#1830,#1831);
#1495=AXIS2_PLACEMENT_3D('',#2290,#1832,#1833);
#1496=AXIS2_PLACEMENT_3D('',#2291,#1834,#1835);
#1497=AXIS2_PLACEMENT_3D('',#2292,#1836,#1837);
#1498=AXIS2_PLACEMENT_3D('',#2293,#1838,#1839);
#1499=AXIS2_PLACEMENT_3D('',#2294,#1840,#1841);
#1500=AXIS2_PLACEMENT_3D('',#2295,#1842,#1843);
#1501=AXIS2_PLACEMENT_3D('',#2296,#1844,#1845);
#1502=AXIS2_PLACEMENT_3D('',#2299,#1848,#1849);
#1503=AXIS2_PLACEMENT_3D('',#2301,#1851,#1852);
#1504=AXIS2_PLACEMENT_3D('',#2303,#1854,#1855);
#1505=AXIS2_PLACEMENT_3D('',#2305,#1857,#1858);
#1506=AXIS2_PLACEMENT_3D('',#2307,#1860,#1861);
#1507=AXIS2_PLACEMENT_3D('',#2309,#1863,#1864);
#1508=AXIS2_PLACEMENT_3D('',#2311,#1866,#1867);
#1509=AXIS2_PLACEMENT_3D('',#2312,#1868,#1869);
#1510=AXIS2_PLACEMENT_3D('',#2315,#1872,#1873);
#1511=AXIS2_PLACEMENT_3D('',#2318,#1876,#1877);
#1512=AXIS2_PLACEMENT_3D('',#2321,#1880,#1881);
#1513=AXIS2_PLACEMENT_3D('',#2324,#1884,#1885);
#1514=AXIS2_PLACEMENT_3D('',#2327,#1888,#1889);
#1515=AXIS2_PLACEMENT_3D('',#2330,#1892,#1893);
#1516=AXIS2_PLACEMENT_3D('',#2333,#1896,#1897);
#1517=AXIS2_PLACEMENT_3D('',#2336,#1900,#1901);
#1518=AXIS2_PLACEMENT_3D('',#2337,#1902,#1903);
#1519=AXIS2_PLACEMENT_3D('',#2338,#1904,#1905);
#1520=AXIS2_PLACEMENT_3D('',#2339,#1906,#1907);
#1521=AXIS2_PLACEMENT_3D('',#2340,#1908,#1909);
#1522=AXIS2_PLACEMENT_3D('',#2341,#1910,#1911);
#1523=AXIS2_PLACEMENT_3D('',#2342,#1912,#1913);
#1524=AXIS2_PLACEMENT_3D('',#2343,#1914,#1915);
#1525=AXIS2_PLACEMENT_3D('',#2344,#1916,#1917);
#1526=AXIS2_PLACEMENT_3D('',#2345,#1918,#1919);
#1527=AXIS2_PLACEMENT_3D('',#2347,#1920,#1921);
#1528=AXIS2_PLACEMENT_3D('',#2349,#1922,#1923);
#1529=AXIS2_PLACEMENT_3D('',#2350,#1924,#1925);
#1530=AXIS2_PLACEMENT_3D('',#2352,#1926,#1927);
#1531=AXIS2_PLACEMENT_3D('',#2353,#1928,#1929);
#1532=AXIS2_PLACEMENT_3D('',#2355,#1930,#1931);
#1533=AXIS2_PLACEMENT_3D('',#2357,#1932,#1933);
#1534=AXIS2_PLACEMENT_3D('',#2358,#1934,#1935);
#1535=AXIS2_PLACEMENT_3D('',#2360,#1936,#1937);
#1536=AXIS2_PLACEMENT_3D('',#2361,#1938,#1939);
#1537=AXIS2_PLACEMENT_3D('',#2363,#1940,#1941);
#1538=AXIS2_PLACEMENT_3D('',#2365,#1942,#1943);
#1539=AXIS2_PLACEMENT_3D('',#2366,#1944,#1945);
#1540=AXIS2_PLACEMENT_3D('',#2368,#1946,#1947);
#1541=AXIS2_PLACEMENT_3D('',#2369,#1948,#1949);
#1542=AXIS2_PLACEMENT_3D('',#2370,#1950,#1951);
#1543=AXIS2_PLACEMENT_3D('',#2371,#1952,#1953);
#1544=AXIS2_PLACEMENT_3D('',#2372,#1954,#1955);
#1545=AXIS2_PLACEMENT_3D('',#2374,#1956,#1957);
#1546=AXIS2_PLACEMENT_3D('',#2375,#1958,#1959);
#1547=AXIS2_PLACEMENT_3D('',#2376,#1960,#1961);
#1548=AXIS2_PLACEMENT_3D('',#2378,#1962,#1963);
#1549=AXIS2_PLACEMENT_3D('',#2379,#1964,#1965);
#1550=AXIS2_PLACEMENT_3D('',#2380,#1966,#1967);
#1551=AXIS2_PLACEMENT_3D('',#2382,#1968,#1969);
#1552=DIRECTION('',(0.,0.,1.));
#1553=DIRECTION('',(1.,0.,0.));
#1554=DIRECTION('',(-1.,-1.19277049082753E-16,0.));
#1555=DIRECTION('',(-1.19277049082753E-16,1.,0.));
#1556=DIRECTION('',(0.,0.,-1.));
#1557=DIRECTION('',(-1.,-1.19277049082753E-16,0.));
#1558=DIRECTION('',(-1.19277049082753E-16,1.,0.));
#1559=DIRECTION('',(-1.19277049082753E-16,1.,0.));
#1560=DIRECTION('',(-1.,-1.19277049082753E-16,0.));
#1561=DIRECTION('',(-1.19277049082753E-16,1.,0.));
#1562=DIRECTION('',(0.,0.,-1.));
#1563=DIRECTION('',(-1.,-1.19277049082753E-16,0.));
#1564=DIRECTION('',(-1.19277049082753E-16,1.,0.));
#1565=DIRECTION('',(1.19277049082753E-16,-1.,9.03501810404587E-17));
#1566=DIRECTION('',(-1.,-1.19277049082753E-16,0.));
#1567=DIRECTION('',(-1.19277049082753E-16,1.,0.));
#1568=DIRECTION('',(-1.19277049082753E-16,1.,0.));
#1569=DIRECTION('',(0.,0.,1.));
#1570=DIRECTION('',(1.19277049082753E-16,-1.,0.));
#1571=DIRECTION('',(0.,0.,1.));
#1572=DIRECTION('',(0.,-1.,0.));
#1573=DIRECTION('',(0.,0.,1.));
#1574=DIRECTION('',(0.,0.,-1.));
#1575=DIRECTION('',(-1.,-1.19277049082753E-16,0.));
#1576=DIRECTION('',(-1.19277049082753E-16,1.,0.));
#1577=DIRECTION('',(-1.19277049082753E-16,1.,-5.64688631502867E-18));
#1578=DIRECTION('',(-1.,-1.19277049082753E-16,0.));
#1579=DIRECTION('',(-1.19277049082753E-16,1.,0.));
#1580=DIRECTION('',(0.,0.,-1.));
#1581=DIRECTION('',(-1.,-1.19277049082753E-16,0.));
#1582=DIRECTION('',(-1.19277049082753E-16,1.,0.));
#1583=DIRECTION('',(-1.19277049082753E-16,1.,0.));
#1584=DIRECTION('',(-1.,-1.19277049082753E-16,0.));
#1585=DIRECTION('',(-1.19277049082753E-16,1.,0.));
#1586=DIRECTION('',(-1.,-5.7656341677247E-17,0.));
#1587=DIRECTION('',(-5.7656341677247E-17,1.,0.));
#1588=DIRECTION('',(-5.7656341677247E-17,1.,0.));
#1589=DIRECTION('',(-1.,-5.7656341677247E-17,0.));
#1590=DIRECTION('',(-5.7656341677247E-17,1.,0.));
#1591=DIRECTION('',(0.,0.,-1.));
#1592=DIRECTION('',(-1.,-5.7656341677247E-17,0.));
#1593=DIRECTION('',(-5.7656341677247E-17,1.,0.));
#1594=DIRECTION('',(5.7656341677247E-17,-1.,9.03501810404587E-17));
#1595=DIRECTION('',(-1.,-5.7656341677247E-17,0.));
#1596=DIRECTION('',(-5.7656341677247E-17,1.,0.));
#1597=DIRECTION('',(0.,0.,-1.));
#1598=DIRECTION('',(-1.,-5.7656341677247E-17,0.));
#1599=DIRECTION('',(-5.7656341677247E-17,1.,0.));
#1600=DIRECTION('',(0.,0.,1.));
#1601=DIRECTION('',(-5.7656341677247E-17,1.,0.));
#1602=DIRECTION('',(0.,0.,1.));
#1603=DIRECTION('',(5.7656341677247E-17,-1.,0.));
#1604=DIRECTION('',(0.,0.,-1.));
#1605=DIRECTION('',(5.7656341677247E-17,-1.,0.));
#1606=DIRECTION('',(0.,0.,-1.));
#1607=DIRECTION('',(5.7656341677247E-17,-1.,0.));
#1608=DIRECTION('',(-5.7656341677247E-17,1.,-5.64688631502867E-18));
#1609=DIRECTION('',(-1.,-5.7656341677247E-17,0.));
#1610=DIRECTION('',(-5.7656341677247E-17,1.,0.));
#1611=DIRECTION('',(0.,0.,-1.));
#1612=DIRECTION('',(-1.,-5.7656341677247E-17,0.));
#1613=DIRECTION('',(-5.7656341677247E-17,1.,0.));
#1614=DIRECTION('',(-5.7656341677247E-17,1.,0.));
#1615=DIRECTION('',(-1.,-5.7656341677247E-17,0.));
#1616=DIRECTION('',(-5.7656341677247E-17,1.,0.));
#1617=DIRECTION('',(0.,0.,-1.));
#1618=DIRECTION('',(-1.,-5.7656341677247E-17,0.));
#1619=DIRECTION('',(-5.7656341677247E-17,1.,0.));
#1620=DIRECTION('',(0.,0.,1.));
#1621=DIRECTION('',(0.,-1.,0.));
#1622=DIRECTION('',(0.,0.,1.));
#1623=DIRECTION('',(0.,0.,1.));
#1624=DIRECTION('',(0.,0.,1.));
#1625=DIRECTION('',(0.,0.,1.));
#1626=DIRECTION('',(0.,-1.,0.));
#1627=DIRECTION('',(0.,0.,1.));
#1628=DIRECTION('',(0.,0.,1.));
#1629=DIRECTION('',(0.,-1.,0.));
#1630=DIRECTION('',(0.,-1.,0.));
#1631=DIRECTION('',(-1.,0.,0.));
#1632=DIRECTION('',(0.,-1.,0.));
#1633=DIRECTION('',(-1.,0.,0.));
#1634=DIRECTION('',(1.,0.,-1.21275410792562E-16));
#1635=DIRECTION('',(0.,-1.,0.));
#1636=DIRECTION('',(-1.,0.,0.));
#1637=DIRECTION('',(-1.,0.,0.));
#1638=DIRECTION('',(0.,0.,1.));
#1639=DIRECTION('',(-1.,0.,0.));
#1640=DIRECTION('',(0.,0.,1.));
#1641=DIRECTION('',(1.,0.,0.));
#1642=DIRECTION('',(0.,0.,1.));
#1643=DIRECTION('',(0.,-1.,0.));
#1644=DIRECTION('',(-1.,0.,0.));
#1645=DIRECTION('',(0.,0.,1.));
#1646=DIRECTION('',(1.,0.,0.));
#1647=DIRECTION('',(0.,-1.,0.));
#1648=DIRECTION('',(-1.,0.,0.));
#1649=DIRECTION('',(1.,0.,-1.94040657268099E-16));
#1650=DIRECTION('',(0.,-1.,0.));
#1651=DIRECTION('',(-1.,0.,0.));
#1652=DIRECTION('',(0.,0.,1.));
#1653=DIRECTION('',(0.,-1.,0.));
#1654=DIRECTION('',(-1.,0.,0.));
#1655=DIRECTION('',(0.,-1.,0.));
#1656=DIRECTION('',(-1.,0.,0.));
#1657=DIRECTION('',(-1.,0.,0.));
#1658=DIRECTION('',(0.,0.,1.));
#1659=DIRECTION('',(1.,0.,0.));
#1660=DIRECTION('',(0.,0.,-1.));
#1661=DIRECTION('',(1.,0.,0.));
#1662=DIRECTION('',(0.,0.,-1.));
#1663=DIRECTION('',(1.,0.,0.));
#1664=DIRECTION('',(0.,0.,1.));
#1665=DIRECTION('',(0.,1.,0.));
#1666=DIRECTION('',(1.,0.,0.));
#1667=DIRECTION('',(0.,1.,0.));
#1668=DIRECTION('',(1.,0.,0.));
#1669=DIRECTION('',(0.,-1.,0.));
#1670=DIRECTION('',(1.,0.,0.));
#1671=DIRECTION('',(-1.,0.,1.21275410792562E-16));
#1672=DIRECTION('',(0.,1.,0.));
#1673=DIRECTION('',(1.,0.,0.));
#1674=DIRECTION('',(0.,0.,-1.));
#1675=DIRECTION('',(0.,1.,0.));
#1676=DIRECTION('',(1.,0.,0.));
#1677=DIRECTION('',(-1.,0.,1.94040657268099E-16));
#1678=DIRECTION('',(0.,-1.,0.));
#1679=DIRECTION('',(1.,0.,0.));
#1680=DIRECTION('',(0.,0.,-1.));
#1681=DIRECTION('',(0.,0.,1.));
#1682=DIRECTION('',(0.,-1.,0.));
#1683=DIRECTION('',(0.,0.,1.));
#1684=DIRECTION('',(0.,-1.,0.));
#1685=DIRECTION('',(0.,0.,1.));
#1686=DIRECTION('',(0.,-1.,0.));
#1687=DIRECTION('',(0.,0.,1.));
#1688=DIRECTION('',(1.,0.,0.));
#1689=DIRECTION('',(0.,0.,1.));
#1690=DIRECTION('',(0.,-1.,0.));
#1691=DIRECTION('',(0.,0.,1.));
#1692=DIRECTION('',(0.,-1.,0.));
#1693=DIRECTION('',(0.,0.,1.));
#1694=DIRECTION('',(0.,-1.,0.));
#1695=DIRECTION('',(0.,0.,1.));
#1696=DIRECTION('',(0.,-1.,0.));
#1697=DIRECTION('',(-1.,0.,0.));
#1698=DIRECTION('',(0.,0.,1.));
#1699=DIRECTION('',(0.,-1.,0.));
#1700=DIRECTION('',(0.,1.,0.));
#1701=DIRECTION('',(0.,0.,1.));
#1702=DIRECTION('',(0.,-1.,0.));
#1703=DIRECTION('',(0.,0.,1.));
#1704=DIRECTION('',(0.,-1.,0.));
#1705=DIRECTION('',(0.,0.,1.));
#1706=DIRECTION('',(0.,-1.,0.));
#1707=DIRECTION('',(0.,0.,1.));
#1708=DIRECTION('',(0.,-1.,0.));
#1709=DIRECTION('',(-2.38554098165506E-16,1.,0.));
#1710=DIRECTION('',(0.,0.,1.));
#1711=DIRECTION('',(0.,-1.,0.));
#1712=DIRECTION('',(-1.,-5.27785100929489E-16,0.));
#1713=DIRECTION('',(0.,0.,1.));
#1714=DIRECTION('',(0.,-1.,0.));
#1715=DIRECTION('',(0.,0.,-1.));
#1716=DIRECTION('',(0.,-1.,0.));
#1717=DIRECTION('',(-1.,-2.38554098165506E-16,0.));
#1718=DIRECTION('',(-2.38554098165506E-16,1.,0.));
#1719=DIRECTION('',(0.,0.,1.));
#1720=DIRECTION('',(0.,0.,1.));
#1721=DIRECTION('',(0.,-1.,0.));
#1722=DIRECTION('',(2.38554098165506E-16,-1.,0.));
#1723=DIRECTION('',(5.27785100929489E-16,-1.,0.));
#1724=DIRECTION('',(-1.,-5.27785100929489E-16,0.));
#1725=DIRECTION('',(0.,0.,1.));
#1726=DIRECTION('',(1.,5.27785100929489E-16,0.));
#1727=DIRECTION('',(0.,0.,1.));
#1728=DIRECTION('',(0.,0.,1.));
#1729=DIRECTION('',(0.,-1.,0.));
#1730=DIRECTION('',(0.,0.,1.));
#1731=DIRECTION('',(0.,-1.,0.));
#1732=DIRECTION('',(0.,0.,1.));
#1733=DIRECTION('',(0.,-1.,0.));
#1734=DIRECTION('',(0.,0.,-1.));
#1735=DIRECTION('',(0.,-1.,0.));
#1736=DIRECTION('',(0.,0.,-1.));
#1737=DIRECTION('',(-1.,0.,0.));
#1738=DIRECTION('',(0.,0.,-1.));
#1739=DIRECTION('',(0.,1.,0.));
#1740=DIRECTION('',(0.,0.,-1.));
#1741=DIRECTION('',(0.,1.,0.));
#1742=DIRECTION('',(0.,0.,-1.));
#1743=DIRECTION('',(0.,1.,0.));
#1744=DIRECTION('',(0.,0.,1.));
#1745=DIRECTION('',(0.,-1.,0.));
#1746=DIRECTION('',(0.,0.,1.));
#1747=DIRECTION('',(0.,-1.,0.));
#1748=DIRECTION('',(0.,0.,-1.));
#1749=DIRECTION('',(-1.,0.,0.));
#1750=DIRECTION('',(0.,-1.,0.));
#1751=DIRECTION('',(0.,0.,-1.));
#1752=DIRECTION('',(0.,1.,0.));
#1753=DIRECTION('',(0.,0.,-1.));
#1754=DIRECTION('',(0.,1.,0.));
#1755=DIRECTION('',(0.,0.,-1.));
#1756=DIRECTION('',(0.,1.,0.));
#1757=DIRECTION('',(0.,0.,-1.));
#1758=DIRECTION('',(0.,1.,0.));
#1759=DIRECTION('',(0.,0.,-1.));
#1760=DIRECTION('',(0.,0.,1.));
#1761=DIRECTION('',(0.,-1.,0.));
#1762=DIRECTION('',(0.,0.,1.));
#1763=DIRECTION('',(0.,-1.,0.));
#1764=DIRECTION('',(0.,0.,-1.));
#1765=DIRECTION('',(-1.,0.,0.));
#1766=DIRECTION('',(1.,0.,0.));
#1767=DIRECTION('',(0.,0.,-1.));
#1768=DIRECTION('',(0.,1.,0.));
#1769=DIRECTION('',(0.,-1.,0.));
#1770=DIRECTION('',(0.,0.,-1.));
#1771=DIRECTION('',(0.,1.,0.));
#1772=DIRECTION('',(0.,0.,-1.));
#1773=DIRECTION('',(0.,1.,0.));
#1774=DIRECTION('',(0.,0.,-1.));
#1775=DIRECTION('',(0.,1.,0.));
#1776=DIRECTION('',(0.,0.,-1.));
#1777=DIRECTION('',(0.,0.,-1.));
#1778=DIRECTION('',(0.,0.,1.));
#1779=DIRECTION('',(0.,-1.,0.));
#1780=DIRECTION('',(0.,0.,1.));
#1781=DIRECTION('',(0.,-1.,0.));
#1782=DIRECTION('',(0.,0.,-1.));
#1783=DIRECTION('',(-1.,0.,0.));
#1784=DIRECTION('',(0.,0.,-1.));
#1785=DIRECTION('',(0.,1.,0.));
#1786=DIRECTION('',(1.,0.,0.));
#1787=DIRECTION('',(0.,0.,-1.));
#1788=DIRECTION('',(0.,1.,0.));
#1789=DIRECTION('',(0.,0.,-1.));
#1790=DIRECTION('',(0.,1.,0.));
#1791=DIRECTION('',(0.,0.,-1.));
#1792=DIRECTION('',(0.,1.,0.));
#1793=DIRECTION('',(0.,0.,-1.));
#1794=DIRECTION('',(0.,0.,-1.));
#1795=DIRECTION('',(-1.,0.,0.));
#1796=DIRECTION('',(0.,-1.,0.));
#1797=DIRECTION('',(1.,0.,0.));
#1798=DIRECTION('',(0.,0.,-1.));
#1799=DIRECTION('',(0.,1.,0.));
#1800=DIRECTION('',(0.,0.,-1.));
#1801=DIRECTION('',(0.,1.,0.));
#1802=DIRECTION('',(0.,0.,-1.));
#1803=DIRECTION('',(0.,1.,0.));
#1804=DIRECTION('',(0.,0.,1.));
#1805=DIRECTION('',(0.,-1.,0.));
#1806=DIRECTION('',(0.,0.,1.));
#1807=DIRECTION('',(0.,-1.,0.));
#1808=DIRECTION('',(0.,0.,-1.));
#1809=DIRECTION('',(-1.,0.,0.));
#1810=DIRECTION('',(0.,0.,-1.));
#1811=DIRECTION('',(0.,1.,0.));
#1812=DIRECTION('',(0.,0.,1.));
#1813=DIRECTION('',(0.,-1.,0.));
#1814=DIRECTION('',(0.,0.,1.));
#1815=DIRECTION('',(0.,-1.,0.));
#1816=DIRECTION('',(-1.,0.,0.));
#1817=DIRECTION('',(0.,0.,1.));
#1818=DIRECTION('',(0.,0.,-1.));
#1819=DIRECTION('',(0.,1.,0.));
#1820=DIRECTION('',(0.,0.,1.));
#1821=DIRECTION('',(-1.,0.,0.));
#1822=DIRECTION('',(0.,1.,0.));
#1823=DIRECTION('',(0.,0.,1.));
#1824=DIRECTION('',(0.,0.,1.));
#1825=DIRECTION('',(0.,-1.,0.));
#1826=DIRECTION('',(0.,0.,-1.));
#1827=DIRECTION('',(0.,1.,0.));
#1828=DIRECTION('',(0.,0.,1.));
#1829=DIRECTION('',(0.,-1.,0.));
#1830=DIRECTION('',(0.,0.,1.));
#1831=DIRECTION('',(0.,-1.,0.));
#1832=DIRECTION('',(0.,0.,1.));
#1833=DIRECTION('',(1.,0.,0.));
#1834=DIRECTION('',(0.,0.,1.));
#1835=DIRECTION('',(0.,-1.,0.));
#1836=DIRECTION('',(0.,0.,-1.));
#1837=DIRECTION('',(0.,-1.,0.));
#1838=DIRECTION('',(0.,0.,1.));
#1839=DIRECTION('',(1.,0.,0.));
#1840=DIRECTION('',(0.,1.,0.));
#1841=DIRECTION('',(1.,0.,0.));
#1842=DIRECTION('',(0.,1.,0.));
#1843=DIRECTION('',(1.,0.,0.));
#1844=DIRECTION('',(0.,1.,0.));
#1845=DIRECTION('',(1.,0.,0.));
#1846=DIRECTION('',(0.,1.,0.));
#1847=DIRECTION('',(0.,1.,0.));
#1848=DIRECTION('',(1.,0.,0.));
#1849=DIRECTION('',(0.,-1.,0.));
#1850=DIRECTION('',(0.,1.,0.));
#1851=DIRECTION('',(0.,1.,0.));
#1852=DIRECTION('',(1.,0.,0.));
#1853=DIRECTION('',(0.,1.,0.));
#1854=DIRECTION('',(-1.94040657268099E-16,0.,-1.));
#1855=DIRECTION('',(-1.,0.,1.94040657268099E-16));
#1856=DIRECTION('',(0.,1.,0.));
#1857=DIRECTION('',(0.,1.,0.));
#1858=DIRECTION('',(1.,0.,0.));
#1859=DIRECTION('',(0.,1.,0.));
#1860=DIRECTION('',(1.,0.,0.));
#1861=DIRECTION('',(0.,-1.,0.));
#1862=DIRECTION('',(0.,1.,0.));
#1863=DIRECTION('',(0.,1.,0.));
#1864=DIRECTION('',(1.,0.,0.));
#1865=DIRECTION('',(0.,1.,0.));
#1866=DIRECTION('',(-1.21275410792562E-16,0.,-1.));
#1867=DIRECTION('',(-1.,0.,1.21275410792562E-16));
#1868=DIRECTION('',(-5.7656341677247E-17,1.,0.));
#1869=DIRECTION('',(1.,5.7656341677247E-17,0.));
#1870=DIRECTION('',(-1.,-5.7656341677247E-17,8.55284707229503E-50));
#1871=DIRECTION('',(-1.,-5.7656341677247E-17,0.));
#1872=DIRECTION('',(-3.25578806791863E-34,5.64688631502867E-18,1.));
#1873=DIRECTION('',(0.,-1.,5.64688631502867E-18));
#1874=DIRECTION('',(-1.,-5.7656341677247E-17,8.55284707229503E-50));
#1875=DIRECTION('',(-1.,-5.7656341677247E-17,8.55284707229503E-50));
#1876=DIRECTION('',(-5.7656341677247E-17,1.,0.));
#1877=DIRECTION('',(1.,5.7656341677247E-17,0.));
#1878=DIRECTION('',(-1.,-5.7656341677247E-17,0.));
#1879=DIRECTION('',(-1.,-5.7656341677247E-17,8.55284707229503E-50));
#1880=DIRECTION('',(0.,0.,1.));
#1881=DIRECTION('',(0.,-1.,0.));
#1882=DIRECTION('',(-1.,-5.7656341677247E-17,0.));
#1883=DIRECTION('',(-1.,-5.7656341677247E-17,0.));
#1884=DIRECTION('',(0.,0.,1.));
#1885=DIRECTION('',(0.,-1.,0.));
#1886=DIRECTION('',(-1.,-5.7656341677247E-17,0.));
#1887=DIRECTION('',(-1.,-5.7656341677247E-17,0.));
#1888=DIRECTION('',(-5.7656341677247E-17,1.,0.));
#1889=DIRECTION('',(1.,5.7656341677247E-17,0.));
#1890=DIRECTION('',(-1.,-5.7656341677247E-17,1.3684555315672E-48));
#1891=DIRECTION('',(-1.,-5.7656341677247E-17,0.));
#1892=DIRECTION('',(5.20926090866981E-33,-9.03501810404587E-17,-1.));
#1893=DIRECTION('',(0.,1.,-9.03501810404587E-17));
#1894=DIRECTION('',(-1.,-5.7656341677247E-17,1.3684555315672E-48));
#1895=DIRECTION('',(-1.,-5.7656341677247E-17,1.3684555315672E-48));
#1896=DIRECTION('',(-5.7656341677247E-17,1.,0.));
#1897=DIRECTION('',(1.,5.7656341677247E-17,0.));
#1898=DIRECTION('',(-1.,-5.7656341677247E-17,0.));
#1899=DIRECTION('',(-1.,-5.7656341677247E-17,1.3684555315672E-48));
#1900=DIRECTION('',(-1.,-5.7656341677247E-17,0.));
#1901=DIRECTION('',(-5.7656341677247E-17,1.,0.));
#1902=DIRECTION('',(-1.,-5.7656341677247E-17,1.3684555315672E-48));
#1903=DIRECTION('',(-5.7656341677247E-17,1.,0.));
#1904=DIRECTION('',(1.,5.7656341677247E-17,-1.3684555315672E-48));
#1905=DIRECTION('',(5.7656341677247E-17,-1.,0.));
#1906=DIRECTION('',(1.,5.7656341677247E-17,0.));
#1907=DIRECTION('',(5.7656341677247E-17,-1.,0.));
#1908=DIRECTION('',(-1.,-5.7656341677247E-17,8.55284707229503E-50));
#1909=DIRECTION('',(-5.7656341677247E-17,1.,0.));
#1910=DIRECTION('',(1.,5.7656341677247E-17,0.));
#1911=DIRECTION('',(5.7656341677247E-17,-1.,0.));
#1912=DIRECTION('',(-1.,-5.7656341677247E-17,0.));
#1913=DIRECTION('',(-5.7656341677247E-17,1.,0.));
#1914=DIRECTION('',(1.,5.7656341677247E-17,-8.55284707229503E-50));
#1915=DIRECTION('',(5.7656341677247E-17,-1.,0.));
#1916=DIRECTION('',(0.,0.,-1.));
#1917=DIRECTION('',(0.,1.,0.));
#1918=DIRECTION('',(0.,0.,-1.));
#1919=DIRECTION('',(0.,1.,0.));
#1920=DIRECTION('',(0.,0.,1.));
#1921=DIRECTION('',(0.,-1.,0.));
#1922=DIRECTION('',(0.,0.,1.));
#1923=DIRECTION('',(1.,0.,0.));
#1924=DIRECTION('',(0.,0.,1.));
#1925=DIRECTION('',(0.,-1.,0.));
#1926=DIRECTION('',(0.,0.,-1.));
#1927=DIRECTION('',(0.,1.,0.));
#1928=DIRECTION('',(0.,0.,-1.));
#1929=DIRECTION('',(0.,1.,0.));
#1930=DIRECTION('',(0.,0.,1.));
#1931=DIRECTION('',(0.,-1.,0.));
#1932=DIRECTION('',(0.,0.,1.));
#1933=DIRECTION('',(1.,0.,0.));
#1934=DIRECTION('',(0.,0.,1.));
#1935=DIRECTION('',(0.,-1.,0.));
#1936=DIRECTION('',(0.,0.,-1.));
#1937=DIRECTION('',(0.,1.,0.));
#1938=DIRECTION('',(0.,0.,-1.));
#1939=DIRECTION('',(0.,1.,0.));
#1940=DIRECTION('',(0.,0.,1.));
#1941=DIRECTION('',(0.,-1.,0.));
#1942=DIRECTION('',(0.,0.,1.));
#1943=DIRECTION('',(1.,0.,0.));
#1944=DIRECTION('',(0.,0.,1.));
#1945=DIRECTION('',(0.,-1.,0.));
#1946=DIRECTION('',(0.,0.,-1.));
#1947=DIRECTION('',(0.,1.,0.));
#1948=DIRECTION('',(0.,0.,-1.));
#1949=DIRECTION('',(0.,1.,0.));
#1950=DIRECTION('',(0.,0.,-1.));
#1951=DIRECTION('',(0.,1.,0.));
#1952=DIRECTION('',(0.,0.,-1.));
#1953=DIRECTION('',(0.,1.,0.));
#1954=DIRECTION('',(0.,0.,1.));
#1955=DIRECTION('',(0.,-1.,0.));
#1956=DIRECTION('',(0.,0.,1.));
#1957=DIRECTION('',(1.,0.,0.));
#1958=DIRECTION('',(0.,0.,-1.));
#1959=DIRECTION('',(0.,1.,0.));
#1960=DIRECTION('',(0.,0.,1.));
#1961=DIRECTION('',(0.,-1.,0.));
#1962=DIRECTION('',(0.,0.,1.));
#1963=DIRECTION('',(1.,0.,0.));
#1964=DIRECTION('',(0.,0.,-1.));
#1965=DIRECTION('',(0.,1.,0.));
#1966=DIRECTION('',(0.,0.,1.));
#1967=DIRECTION('',(0.,-1.,0.));
#1968=DIRECTION('',(0.,0.,1.));
#1969=DIRECTION('',(1.,0.,0.));
#1970=CARTESIAN_POINT('',(0.,0.,0.));
#1971=CARTESIAN_POINT('',(0.030960812,-0.102624594,-0.00849));
#1972=CARTESIAN_POINT('',(0.030960812,-0.07883,-0.00849));
#1973=CARTESIAN_POINT('',(0.030960812,-0.07883,-0.001385));
#1974=CARTESIAN_POINT('',(0.030960812,-0.07883,-0.003095));
#1975=CARTESIAN_POINT('',(0.030960812,-0.07783,-0.001385));
#1976=CARTESIAN_POINT('',(0.030960812,-0.07783,-0.000385));
#1977=CARTESIAN_POINT('',(0.030960812,-0.102624594,-0.000385));
#1978=CARTESIAN_POINT('',(0.030960812,-0.07023,-0.000385));
#1979=CARTESIAN_POINT('',(0.030960812,-0.07023,-0.001385));
#1980=CARTESIAN_POINT('',(0.030960812,-0.06923,-0.001385));
#1981=CARTESIAN_POINT('',(0.030960812,-0.06923,-0.00849));
#1982=CARTESIAN_POINT('',(0.030960812,-0.06923,-0.003095));
#1983=CARTESIAN_POINT('',(0.030960812,-0.07023,-0.003095));
#1984=CARTESIAN_POINT('',(0.030960812,-0.07023,-0.004095));
#1985=CARTESIAN_POINT('',(0.030960812,-0.102624594,-0.004095));
#1986=CARTESIAN_POINT('',(0.030960812,-0.07783,-0.004095));
#1987=CARTESIAN_POINT('',(0.030960812,-0.07783,-0.003095));
#1988=CARTESIAN_POINT('',(0.030960812,-0.102624594,0.00381));
#1989=CARTESIAN_POINT('',(0.030960812,-0.157999188,0.00381));
#1990=CARTESIAN_POINT('',(0.030960812,-0.04605,0.00381));
#1991=CARTESIAN_POINT('',(0.030960812,-0.157999188,-0.00849));
#1992=CARTESIAN_POINT('',(0.030960812,-0.157999188,-0.00849));
#1993=CARTESIAN_POINT('',(0.030960812,-0.102624594,-0.00849));
#1994=CARTESIAN_POINT('',(0.030960812,-0.04725,-0.00849));
#1995=CARTESIAN_POINT('',(0.030960812,-0.04725,-0.00849));
#1996=CARTESIAN_POINT('',(0.030960812,-0.04725,0.00131));
#1997=CARTESIAN_POINT('',(0.030960812,-0.04665,0.00131));
#1998=CARTESIAN_POINT('',(0.030960812,-0.04605,0.00131));
#1999=CARTESIAN_POINT('',(0.030960812,-0.04605,0.00131));
#2000=CARTESIAN_POINT('',(0.030960812,-0.06755,-0.00849));
#2001=CARTESIAN_POINT('',(0.030960812,-0.06755,-0.001385));
#2002=CARTESIAN_POINT('',(0.030960812,-0.06755,-0.003095));
#2003=CARTESIAN_POINT('',(0.030960812,-0.06655,-0.001385));
#2004=CARTESIAN_POINT('',(0.030960812,-0.06655,-0.000385));
#2005=CARTESIAN_POINT('',(0.030960812,-0.102624594,-0.000385));
#2006=CARTESIAN_POINT('',(0.030960812,-0.05895,-0.000385));
#2007=CARTESIAN_POINT('',(0.030960812,-0.05895,-0.001385));
#2008=CARTESIAN_POINT('',(0.030960812,-0.05795,-0.001385));
#2009=CARTESIAN_POINT('',(0.030960812,-0.05795,-0.00849));
#2010=CARTESIAN_POINT('',(0.030960812,-0.05795,-0.003095));
#2011=CARTESIAN_POINT('',(0.030960812,-0.05895,-0.003095));
#2012=CARTESIAN_POINT('',(0.030960812,-0.05895,-0.004095));
#2013=CARTESIAN_POINT('',(0.030960812,-0.102624594,-0.004095));
#2014=CARTESIAN_POINT('',(0.030960812,-0.06655,-0.004095));
#2015=CARTESIAN_POINT('',(0.030960812,-0.06655,-0.003095));
#2016=CARTESIAN_POINT('',(0.028960812,-0.102624594,-0.00849));
#2017=CARTESIAN_POINT('',(0.028960812,-0.07403,-0.000385));
#2018=CARTESIAN_POINT('',(0.028960812,-0.07783,-0.000385));
#2019=CARTESIAN_POINT('',(0.028960812,-0.07023,-0.000385));
#2020=CARTESIAN_POINT('',(0.028960812,-0.07783,-0.001385));
#2021=CARTESIAN_POINT('',(0.028960812,-0.07883,-0.001385));
#2022=CARTESIAN_POINT('',(0.028960812,-0.07883,-0.0031675));
#2023=CARTESIAN_POINT('',(0.028960812,-0.07883,-0.003095));
#2024=CARTESIAN_POINT('',(0.028960812,-0.07783,-0.003095));
#2025=CARTESIAN_POINT('',(0.028960812,-0.07783,-0.004095));
#2026=CARTESIAN_POINT('',(0.028960812,-0.07403,-0.004095));
#2027=CARTESIAN_POINT('',(0.028960812,-0.07023,-0.004095));
#2028=CARTESIAN_POINT('',(0.028960812,-0.07023,-0.003095));
#2029=CARTESIAN_POINT('',(0.028960812,-0.06923,-0.003095));
#2030=CARTESIAN_POINT('',(0.028960812,-0.06923,-0.00224));
#2031=CARTESIAN_POINT('',(0.028960812,-0.06923,-0.001385));
#2032=CARTESIAN_POINT('',(0.028960812,-0.07023,-0.001385));
#2033=CARTESIAN_POINT('',(0.028960812,-0.160799188,-0.00849));
#2034=CARTESIAN_POINT('',(0.028960812,-0.160799188,-0.00879));
#2035=CARTESIAN_POINT('',(0.028960812,-0.160799188,0.00381));
#2036=CARTESIAN_POINT('',(0.028960812,-0.102624594,0.00381));
#2037=CARTESIAN_POINT('',(0.028960812,-0.04445,0.00381));
#2038=CARTESIAN_POINT('',(0.028960812,-0.04445,-0.01049));
#2039=CARTESIAN_POINT('',(0.028960812,-0.04445,-0.00879));
#2040=CARTESIAN_POINT('',(0.028960812,-0.102624594,-0.00879));
#2041=CARTESIAN_POINT('',(0.028960812,-0.0454807764064044,-0.00879));
#2042=CARTESIAN_POINT('',(0.028960812,-0.0454807764064044,-0.00879));
#2043=CARTESIAN_POINT('',(0.028960812,-0.0454807764064044,-0.01049));
#2044=CARTESIAN_POINT('',(0.028960812,-0.102624594,-0.01049));
#2045=CARTESIAN_POINT('',(0.028960812,-0.159768411593596,-0.01049));
#2046=CARTESIAN_POINT('',(0.028960812,-0.159768411593596,-0.00879));
#2047=CARTESIAN_POINT('',(0.028960812,-0.159768411593596,-0.00879));
#2048=CARTESIAN_POINT('',(0.028960812,-0.102624594,-0.00879));
#2049=CARTESIAN_POINT('',(0.028960812,-0.06275,-0.000385));
#2050=CARTESIAN_POINT('',(0.028960812,-0.06655,-0.000385));
#2051=CARTESIAN_POINT('',(0.028960812,-0.05895,-0.000385));
#2052=CARTESIAN_POINT('',(0.028960812,-0.06655,-0.001385));
#2053=CARTESIAN_POINT('',(0.028960812,-0.06755,-0.001385));
#2054=CARTESIAN_POINT('',(0.028960812,-0.06755,-0.00224));
#2055=CARTESIAN_POINT('',(0.028960812,-0.06755,-0.003095));
#2056=CARTESIAN_POINT('',(0.028960812,-0.06655,-0.003095));
#2057=CARTESIAN_POINT('',(0.028960812,-0.06655,-0.004095));
#2058=CARTESIAN_POINT('',(0.028960812,-0.06275,-0.004095));
#2059=CARTESIAN_POINT('',(0.028960812,-0.05895,-0.004095));
#2060=CARTESIAN_POINT('',(0.028960812,-0.05895,-0.003095));
#2061=CARTESIAN_POINT('',(0.028960812,-0.05795,-0.003095));
#2062=CARTESIAN_POINT('',(0.028960812,-0.05795,-0.00224));
#2063=CARTESIAN_POINT('',(0.028960812,-0.05795,-0.001385));
#2064=CARTESIAN_POINT('',(0.028960812,-0.05895,-0.001385));
#2065=CARTESIAN_POINT('',(0.083549594,-0.04445,-0.00849));
#2066=CARTESIAN_POINT('',(0.080749594,-0.04445,-0.00849));
#2067=CARTESIAN_POINT('',(0.080749594,-0.04445,0.000785241655277828));
#2068=CARTESIAN_POINT('',(0.080749594,-0.04445,0.00131));
#2069=CARTESIAN_POINT('',(0.080749594,-0.04445,0.000785241655277828));
#2070=CARTESIAN_POINT('',(0.080749594,-0.0447896083496154,0.000785241655277828));
#2071=CARTESIAN_POINT('',(0.0808865087394139,-0.0454724015203062,0.000685893450322696));
#2072=CARTESIAN_POINT('',(0.08115,-0.0458928959197269,0.000107439073007425));
#2073=CARTESIAN_POINT('',(0.08115,-0.0458928959197269,-0.00023499999999996));
#2074=CARTESIAN_POINT('',(0.08115,-0.0458928959197268,-0.000235));
#2075=CARTESIAN_POINT('',(0.08115,-0.0458928959197268,-0.00849));
#2076=CARTESIAN_POINT('',(0.08115,-0.0458928959197268,-0.003395));
#2077=CARTESIAN_POINT('',(0.08115,-0.0458928959197268,-0.003395));
#2078=CARTESIAN_POINT('',(0.08115,-0.0458928959197268,-0.00373744962972175));
#2079=CARTESIAN_POINT('',(0.0808866395066629,-0.0454727764002964,-0.00431568115117809));
#2080=CARTESIAN_POINT('',(0.0807495939999999,-0.0447895777787408,-0.00441524165528169));
#2081=CARTESIAN_POINT('',(0.0807495939999998,-0.0444500000000011,-0.00441524165528183));
#2082=CARTESIAN_POINT('',(0.080749594,-0.04445,-0.00441524165527783));
#2083=CARTESIAN_POINT('',(0.080749594,-0.04445,-0.00849));
#2084=CARTESIAN_POINT('',(0.080749594,-0.04445,-0.00849));
#2085=CARTESIAN_POINT('',(0.083549594,-0.04445,-0.00849));
#2086=CARTESIAN_POINT('',(0.083549594,-0.04725,-0.00849));
#2087=CARTESIAN_POINT('',(0.083549594,-0.04725,-0.00849));
#2088=CARTESIAN_POINT('',(0.083549594,-0.04725,0.00131));
#2089=CARTESIAN_POINT('',(0.083549594,-0.04445,0.00131));
#2090=CARTESIAN_POINT('',(0.057255203,-0.04445,-0.00849));
#2091=CARTESIAN_POINT('',(0.06567,-0.04445,-0.00181499999999996));
#2092=CARTESIAN_POINT('',(0.0637200000000001,-0.04445,-0.00181499999999996));
#2093=CARTESIAN_POINT('',(0.057255203,-0.04445,0.001265));
#2094=CARTESIAN_POINT('',(0.07071,-0.04445,0.001265));
#2095=CARTESIAN_POINT('',(0.07965,-0.04445,0.001265));
#2096=CARTESIAN_POINT('',(0.07965,-0.04445,-0.000235));
#2097=CARTESIAN_POINT('',(0.081349594,-0.04445,0.00131));
#2098=CARTESIAN_POINT('',(0.081949594,-0.04445,0.00131));
#2099=CARTESIAN_POINT('',(0.081949594,-0.04445,0.00131));
#2100=CARTESIAN_POINT('',(0.081949594,-0.04445,0.00381));
#2101=CARTESIAN_POINT('',(0.057255203,-0.04445,0.00381));
#2102=CARTESIAN_POINT('',(0.032560812,-0.04445,0.00381));
#2103=CARTESIAN_POINT('',(0.032560812,-0.04445,0.00131));
#2104=CARTESIAN_POINT('',(0.032560812,-0.04445,0.00131));
#2105=CARTESIAN_POINT('',(0.033160812,-0.04445,0.00131));
#2106=CARTESIAN_POINT('',(0.033760812,-0.04445,0.00131));
#2107=CARTESIAN_POINT('',(0.033760812,-0.04445,-0.00849));
#2108=CARTESIAN_POINT('',(0.033760812,-0.04445,-0.00031999251683005));
#2109=CARTESIAN_POINT('',(0.03675,-0.04445,-0.00223500037599299));
#2110=CARTESIAN_POINT('',(0.033760812,-0.04445,-0.00415000823515595));
#2111=CARTESIAN_POINT('',(0.033760812,-0.04445,-0.00849));
#2112=CARTESIAN_POINT('',(0.033760812,-0.04445,-0.00849));
#2113=CARTESIAN_POINT('',(0.057255203,-0.04445,-0.00849));
#2114=CARTESIAN_POINT('',(0.07965,-0.04445,-0.003395));
#2115=CARTESIAN_POINT('',(0.07965,-0.04445,-0.004895));
#2116=CARTESIAN_POINT('',(0.057255203,-0.04445,-0.004895));
#2117=CARTESIAN_POINT('',(0.07071,-0.04445,-0.004895));
#2118=CARTESIAN_POINT('',(0.07071,-0.04445,-0.003395));
#2119=CARTESIAN_POINT('',(0.06921,-0.04445,-0.003395));
#2120=CARTESIAN_POINT('',(0.06921,-0.04445,-0.00849));
#2121=CARTESIAN_POINT('',(0.06921,-0.04445,-0.000235));
#2122=CARTESIAN_POINT('',(0.07071,-0.04445,-0.000235));
#2123=CARTESIAN_POINT('',(0.057255203,-0.04245,-0.00849));
#2124=CARTESIAN_POINT('',(0.057255203,-0.04245,0.00381));
#2125=CARTESIAN_POINT('',(0.083549594,-0.04245,0.00381));
#2126=CARTESIAN_POINT('',(0.030960812,-0.04245,0.00381));
#2127=CARTESIAN_POINT('',(0.083549594,-0.04245,-0.00849));
#2128=CARTESIAN_POINT('',(0.083549594,-0.04245,-0.00879));
#2129=CARTESIAN_POINT('',(0.057255203,-0.04245,-0.00879));
#2130=CARTESIAN_POINT('',(0.0825188175935956,-0.04245,-0.00879));
#2131=CARTESIAN_POINT('',(0.0825188175935956,-0.04245,-0.00879));
#2132=CARTESIAN_POINT('',(0.0825188175935956,-0.04245,-0.01049));
#2133=CARTESIAN_POINT('',(0.057255203,-0.04245,-0.01049));
#2134=CARTESIAN_POINT('',(0.0319915884064044,-0.04245,-0.01049));
#2135=CARTESIAN_POINT('',(0.0319915884064044,-0.04245,-0.00879));
#2136=CARTESIAN_POINT('',(0.0319915884064044,-0.04245,-0.00879));
#2137=CARTESIAN_POINT('',(0.057255203,-0.04245,-0.00879));
#2138=CARTESIAN_POINT('',(0.030960812,-0.04245,-0.00879));
#2139=CARTESIAN_POINT('',(0.030960812,-0.04245,0.00151));
#2140=CARTESIAN_POINT('',(0.03675,-0.04245,-0.00223500037599299));
#2141=CARTESIAN_POINT('',(0.0403,-0.04245,-0.00223500037599299));
#2142=CARTESIAN_POINT('',(0.06567,-0.04245,-0.00181499999999996));
#2143=CARTESIAN_POINT('',(0.06762,-0.04245,-0.00181499999999996));
#2144=CARTESIAN_POINT('',(0.07965,-0.04245,-0.000235));
#2145=CARTESIAN_POINT('',(0.08115,-0.04245,-0.000235));
#2146=CARTESIAN_POINT('',(0.07965,-0.04245,0.001265));
#2147=CARTESIAN_POINT('',(0.07518,-0.04245,0.001265));
#2148=CARTESIAN_POINT('',(0.07071,-0.04245,0.001265));
#2149=CARTESIAN_POINT('',(0.07071,-0.04245,-0.000235));
#2150=CARTESIAN_POINT('',(0.06921,-0.04245,-0.000235));
#2151=CARTESIAN_POINT('',(0.06921,-0.04245,-0.002605));
#2152=CARTESIAN_POINT('',(0.06921,-0.04245,-0.003395));
#2153=CARTESIAN_POINT('',(0.07071,-0.04245,-0.003395));
#2154=CARTESIAN_POINT('',(0.07071,-0.04245,-0.004895));
#2155=CARTESIAN_POINT('',(0.07518,-0.04245,-0.004895));
#2156=CARTESIAN_POINT('',(0.07965,-0.04245,-0.004895));
#2157=CARTESIAN_POINT('',(0.07965,-0.04245,-0.003395));
#2158=CARTESIAN_POINT('',(0.08115,-0.04245,-0.003395));
#2159=CARTESIAN_POINT('',(0.08115,-0.04245,-0.001815));
#2160=CARTESIAN_POINT('',(0.030960812,-0.04445,-0.00849));
#2161=CARTESIAN_POINT('',(0.033760812,-0.04445,-0.00031999251683005));
#2162=CARTESIAN_POINT('',(0.033760812,-0.0449436008493741,-0.00031999251683005));
#2163=CARTESIAN_POINT('',(0.0334461091875864,-0.0458748205085495,-0.00075470365849364));
#2164=CARTESIAN_POINT('',(0.0330769751667122,-0.0462592171181283,-0.00223902580993224));
#2165=CARTESIAN_POINT('',(0.0334459944366363,-0.0458747980348124,-0.00371271569864251));
#2166=CARTESIAN_POINT('',(0.033760812,-0.0449441866866462,-0.00415000823515595));
#2167=CARTESIAN_POINT('',(0.033760812,-0.04445,-0.00415000823515595));
#2168=CARTESIAN_POINT('',(0.030960812,-0.04445,0.00131));
#2169=CARTESIAN_POINT('',(0.030960812,-0.04445,-0.00849));
#2170=CARTESIAN_POINT('',(0.0572493727635004,-0.0803470065970883,0.00381));
#2171=CARTESIAN_POINT('',(0.083549594,-0.160799188,0.00381));
#2172=CARTESIAN_POINT('',(0.083549594,-0.161799188,0.00381));
#2173=CARTESIAN_POINT('',(0.030960812,-0.04445,0.00381));
#2174=CARTESIAN_POINT('',(0.030960812,-0.04545,0.00381));
#2175=CARTESIAN_POINT('',(0.030960812,-0.04445,0.00381));
#2176=CARTESIAN_POINT('',(0.030960812,-0.160799188,0.00381));
#2177=CARTESIAN_POINT('',(0.030960812,-0.162799188,0.00381));
#2178=CARTESIAN_POINT('',(0.057255203,-0.162799188,0.00381));
#2179=CARTESIAN_POINT('',(0.083549594,-0.162799188,0.00381));
#2180=CARTESIAN_POINT('',(0.083549594,-0.160799188,0.00381));
#2181=CARTESIAN_POINT('',(0.085549594,-0.160799188,0.00381));
#2182=CARTESIAN_POINT('',(0.085549594,-0.102624594,0.00381));
#2183=CARTESIAN_POINT('',(0.085549594,-0.04445,0.00381));
#2184=CARTESIAN_POINT('',(0.083549594,-0.04445,0.00381));
#2185=CARTESIAN_POINT('',(0.083549594,-0.04445,0.00381));
#2186=CARTESIAN_POINT('',(0.083549594,-0.04545,0.00381));
#2187=CARTESIAN_POINT('',(0.030960812,-0.160799188,0.00381));
#2188=CARTESIAN_POINT('',(0.030960812,-0.161799188,0.00381));
#2189=CARTESIAN_POINT('',(0.083549594,-0.04445,0.00381));
#2190=CARTESIAN_POINT('',(0.083549594,-0.04605,0.00381));
#2191=CARTESIAN_POINT('',(0.083549594,-0.102624594,0.00381));
#2192=CARTESIAN_POINT('',(0.083549594,-0.157999188,0.00381));
#2193=CARTESIAN_POINT('',(0.083549594,-0.160799188,0.00381));
#2194=CARTESIAN_POINT('',(0.080749594,-0.160799188,0.00381));
#2195=CARTESIAN_POINT('',(0.057255203,-0.160799188,0.00381));
#2196=CARTESIAN_POINT('',(0.033760812,-0.160799188,0.00381));
#2197=CARTESIAN_POINT('',(0.030960812,-0.160799188,0.00381));
#2198=CARTESIAN_POINT('',(0.030960812,-0.04445,0.00381));
#2199=CARTESIAN_POINT('',(0.083549594,-0.102624594,-0.00849));
#2200=CARTESIAN_POINT('',(0.083549594,-0.157999188,-0.00849));
#2201=CARTESIAN_POINT('',(0.083549594,-0.157999188,-0.00849));
#2202=CARTESIAN_POINT('',(0.083549594,-0.04605,0.00131));
#2203=CARTESIAN_POINT('',(0.083549594,-0.04605,0.00131));
#2204=CARTESIAN_POINT('',(0.083549594,-0.04665,0.00131));
#2205=CARTESIAN_POINT('',(0.083549594,-0.102624594,-0.00849));
#2206=CARTESIAN_POINT('',(0.057255203,-0.160799188,-0.00849));
#2207=CARTESIAN_POINT('',(0.080749594,-0.160799188,-0.00849));
#2208=CARTESIAN_POINT('',(0.080749594,-0.160799188,-0.00849));
#2209=CARTESIAN_POINT('',(0.057255203,-0.160799188,-0.00849));
#2210=CARTESIAN_POINT('',(0.033760812,-0.160799188,-0.00849));
#2211=CARTESIAN_POINT('',(0.033760812,-0.160799188,-0.00849));
#2212=CARTESIAN_POINT('',(0.083549594,-0.160799188,-0.00849));
#2213=CARTESIAN_POINT('',(0.083549594,-0.160799188,-0.00849));
#2214=CARTESIAN_POINT('',(0.030960812,-0.160799188,-0.00849));
#2215=CARTESIAN_POINT('',(0.030960812,-0.160799188,-0.00849));
#2216=CARTESIAN_POINT('',(0.057255203,-0.102624594,-0.00849));
#2217=CARTESIAN_POINT('',(0.03984,-0.0629,-0.00849));
#2218=CARTESIAN_POINT('',(0.03984,-0.05915,-0.00849));
#2219=CARTESIAN_POINT('',(0.0535,-0.09904,-0.00849));
#2220=CARTESIAN_POINT('',(0.0535,-0.09529,-0.00849));
#2221=CARTESIAN_POINT('',(0.0702,-0.07187,-0.00849));
#2222=CARTESIAN_POINT('',(0.0702,-0.06812,-0.00849));
#2223=CARTESIAN_POINT('',(0.083549594,-0.04445,-0.00849));
#2224=CARTESIAN_POINT('',(0.083549594,-0.04445,-0.00879));
#2225=CARTESIAN_POINT('',(0.083549594,-0.04545,-0.00879));
#2226=CARTESIAN_POINT('',(0.057255203,-0.102624594,-0.00879));
#2227=CARTESIAN_POINT('',(0.085549594,-0.102624594,-0.00879));
#2228=CARTESIAN_POINT('',(0.085549594,-0.04445,-0.00879));
#2229=CARTESIAN_POINT('',(0.085549594,-0.0454807764064044,-0.00879));
#2230=CARTESIAN_POINT('',(0.083549594,-0.04445,-0.00879));
#2231=CARTESIAN_POINT('',(0.083549594,-0.04445,-0.00879));
#2232=CARTESIAN_POINT('',(0.083549594,-0.04445,-0.00879));
#2233=CARTESIAN_POINT('',(0.083549594,-0.04445,-0.01049));
#2234=CARTESIAN_POINT('',(0.085549594,-0.0454807764064044,-0.01049));
#2235=CARTESIAN_POINT('',(0.085549594,-0.0454807764064044,-0.00879));
#2236=CARTESIAN_POINT('',(0.083549594,-0.160799188,-0.00849));
#2237=CARTESIAN_POINT('',(0.083549594,-0.160799188,-0.00879));
#2238=CARTESIAN_POINT('',(0.083549594,-0.161799188,-0.00879));
#2239=CARTESIAN_POINT('',(0.057255203,-0.102624594,-0.00879));
#2240=CARTESIAN_POINT('',(0.057255203,-0.162799188,-0.00879));
#2241=CARTESIAN_POINT('',(0.0825188175935956,-0.162799188,-0.00879));
#2242=CARTESIAN_POINT('',(0.083549594,-0.162799188,-0.00879));
#2243=CARTESIAN_POINT('',(0.083549594,-0.160799188,-0.00879));
#2244=CARTESIAN_POINT('',(0.085549594,-0.159768411593596,-0.00879));
#2245=CARTESIAN_POINT('',(0.085549594,-0.102624594,-0.00879));
#2246=CARTESIAN_POINT('',(0.085549594,-0.160799188,-0.00879));
#2247=CARTESIAN_POINT('',(0.083549594,-0.160799188,-0.00879));
#2248=CARTESIAN_POINT('',(0.083549594,-0.160799188,-0.00879));
#2249=CARTESIAN_POINT('',(0.083549594,-0.160799188,-0.01049));
#2250=CARTESIAN_POINT('',(0.0825188175935956,-0.162799188,-0.01049));
#2251=CARTESIAN_POINT('',(0.085549594,-0.159768411593596,-0.01049));
#2252=CARTESIAN_POINT('',(0.085549594,-0.159768411593596,-0.00879));
#2253=CARTESIAN_POINT('',(0.0825188175935956,-0.162799188,-0.00879));
#2254=CARTESIAN_POINT('',(0.030960812,-0.160799188,-0.00849));
#2255=CARTESIAN_POINT('',(0.030960812,-0.160799188,-0.00879));
#2256=CARTESIAN_POINT('',(0.030960812,-0.161799188,-0.00879));
#2257=CARTESIAN_POINT('',(0.057255203,-0.102624594,-0.00879));
#2258=CARTESIAN_POINT('',(0.030960812,-0.160799188,-0.00879));
#2259=CARTESIAN_POINT('',(0.0319915884064044,-0.162799188,-0.00879));
#2260=CARTESIAN_POINT('',(0.057255203,-0.162799188,-0.00879));
#2261=CARTESIAN_POINT('',(0.030960812,-0.162799188,-0.00879));
#2262=CARTESIAN_POINT('',(0.030960812,-0.160799188,-0.00879));
#2263=CARTESIAN_POINT('',(0.030960812,-0.160799188,-0.00879));
#2264=CARTESIAN_POINT('',(0.030960812,-0.160799188,-0.01049));
#2265=CARTESIAN_POINT('',(0.0319915884064044,-0.162799188,-0.01049));
#2266=CARTESIAN_POINT('',(0.0319915884064044,-0.162799188,-0.00879));
#2267=CARTESIAN_POINT('',(0.057255203,-0.102624594,-0.01049));
#2268=CARTESIAN_POINT('',(0.085549594,-0.102624594,-0.01049));
#2269=CARTESIAN_POINT('',(0.057255203,-0.162799188,-0.01049));
#2270=CARTESIAN_POINT('',(0.030960812,-0.04445,-0.01049));
#2271=CARTESIAN_POINT('',(0.030960812,-0.04445,-0.00879));
#2272=CARTESIAN_POINT('',(0.030960812,-0.04445,-0.00879));
#2273=CARTESIAN_POINT('',(0.030960812,-0.04445,-0.00849));
#2274=CARTESIAN_POINT('',(0.030960812,-0.04445,-0.00879));
#2275=CARTESIAN_POINT('',(0.030960812,-0.04545,-0.00879));
#2276=CARTESIAN_POINT('',(0.057255203,-0.102624594,-0.00879));
#2277=CARTESIAN_POINT('',(0.030960812,-0.04445,-0.00879));
#2278=CARTESIAN_POINT('',(0.030960812,-0.160799188,-0.00849));
#2279=CARTESIAN_POINT('',(0.030960812,-0.162799188,-0.00849));
#2280=CARTESIAN_POINT('',(0.057255203,-0.162799188,-0.00849));
#2281=CARTESIAN_POINT('',(0.083549594,-0.162799188,0.00151));
#2282=CARTESIAN_POINT('',(0.083549594,-0.160799188,-0.00849));
#2283=CARTESIAN_POINT('',(0.085549594,-0.160799188,-0.01049));
#2284=CARTESIAN_POINT('',(0.085549594,-0.102624594,-0.00849));
#2285=CARTESIAN_POINT('',(0.085549594,-0.04445,-0.00849));
#2286=CARTESIAN_POINT('',(0.083549594,-0.04445,-0.00849));
#2287=CARTESIAN_POINT('',(0.030960812,-0.04445,-0.00849));
#2288=CARTESIAN_POINT('',(0.083549594,-0.04445,0.00131));
#2289=CARTESIAN_POINT('',(0.083549594,-0.04445,0.00131));
#2290=CARTESIAN_POINT('',(0.057255203,-0.102624594,0.00131));
#2291=CARTESIAN_POINT('',(0.030960812,-0.04445,0.00131));
#2292=CARTESIAN_POINT('',(0.030960812,-0.04445,0.00131));
#2293=CARTESIAN_POINT('',(0.057255203,-0.102624594,0.00131));
#2294=CARTESIAN_POINT('',(0.03675,-0.06745,-0.00223500037599299));
#2295=CARTESIAN_POINT('',(0.06567,-0.06745,-0.00181499999999996));
#2296=CARTESIAN_POINT('',(0.07965,-0.06745,-0.000235));
#2297=CARTESIAN_POINT('',(0.07965,-0.06745,0.001265));
#2298=CARTESIAN_POINT('',(0.08115,-0.06745,-0.000235));
#2299=CARTESIAN_POINT('',(0.08115,-0.06745,-0.001815));
#2300=CARTESIAN_POINT('',(0.08115,-0.06745,-0.003395));
#2301=CARTESIAN_POINT('',(0.07965,-0.06745,-0.003395));
#2302=CARTESIAN_POINT('',(0.07965,-0.06745,-0.004895));
#2303=CARTESIAN_POINT('',(0.07518,-0.06745,-0.004895));
#2304=CARTESIAN_POINT('',(0.07071,-0.06745,-0.004895));
#2305=CARTESIAN_POINT('',(0.07071,-0.06745,-0.003395));
#2306=CARTESIAN_POINT('',(0.06921,-0.06745,-0.003395));
#2307=CARTESIAN_POINT('',(0.06921,-0.06745,-0.002605));
#2308=CARTESIAN_POINT('',(0.06921,-0.06745,-0.000235));
#2309=CARTESIAN_POINT('',(0.07071,-0.06745,-0.000235));
#2310=CARTESIAN_POINT('',(0.07071,-0.06745,0.001265));
#2311=CARTESIAN_POINT('',(0.07518,-0.06745,0.001265));
#2312=CARTESIAN_POINT('',(0.053960812,-0.06755,-0.00224));
#2313=CARTESIAN_POINT('',(0.053960812,-0.06755,-0.001385));
#2314=CARTESIAN_POINT('',(0.028960812,-0.06755,-0.003095));
#2315=CARTESIAN_POINT('',(0.053960812,-0.06275,-0.000385));
#2316=CARTESIAN_POINT('',(0.053960812,-0.06655,-0.000385));
#2317=CARTESIAN_POINT('',(0.030960812,-0.05895,-0.000385));
#2318=CARTESIAN_POINT('',(0.053960812,-0.05795,-0.00224));
#2319=CARTESIAN_POINT('',(0.053960812,-0.05795,-0.003095));
#2320=CARTESIAN_POINT('',(0.028960812,-0.05795,-0.001385));
#2321=CARTESIAN_POINT('',(0.053960812,-0.06275,-0.004095));
#2322=CARTESIAN_POINT('',(0.030960812,-0.06655,-0.004095));
#2323=CARTESIAN_POINT('',(0.053960812,-0.05895,-0.004095));
#2324=CARTESIAN_POINT('',(0.053960812,-0.07403,-0.000385));
#2325=CARTESIAN_POINT('',(0.053960812,-0.07783,-0.000385));
#2326=CARTESIAN_POINT('',(0.030960812,-0.07023,-0.000385));
#2327=CARTESIAN_POINT('',(0.053960812,-0.06923,-0.00224));
#2328=CARTESIAN_POINT('',(0.030960812,-0.06923,-0.003095));
#2329=CARTESIAN_POINT('',(0.028960812,-0.06923,-0.001385));
#2330=CARTESIAN_POINT('',(0.053960812,-0.07403,-0.004095));
#2331=CARTESIAN_POINT('',(0.053960812,-0.07783,-0.004095));
#2332=CARTESIAN_POINT('',(0.028960812,-0.07023,-0.004095));
#2333=CARTESIAN_POINT('',(0.053960812,-0.07883,-0.0031675));
#2334=CARTESIAN_POINT('',(0.053960812,-0.07883,-0.001385));
#2335=CARTESIAN_POINT('',(0.053960812,-0.07883,-0.003095));
#2336=CARTESIAN_POINT('',(0.053960812,-0.07783,-0.001385));
#2337=CARTESIAN_POINT('',(0.053960812,-0.07783,-0.003095));
#2338=CARTESIAN_POINT('',(0.053960812,-0.07023,-0.003095));
#2339=CARTESIAN_POINT('',(0.053960812,-0.07023,-0.001385));
#2340=CARTESIAN_POINT('',(0.053960812,-0.06655,-0.001385));
#2341=CARTESIAN_POINT('',(0.053960812,-0.06655,-0.003095));
#2342=CARTESIAN_POINT('',(0.053960812,-0.05895,-0.003095));
#2343=CARTESIAN_POINT('',(0.053960812,-0.05895,-0.001385));
#2344=CARTESIAN_POINT('',(0.0535,-0.09904,-4.00000000000019E-5));
#2345=CARTESIAN_POINT('',(0.0535,-0.09904,-0.00649));
#2346=CARTESIAN_POINT('',(0.0535,-0.09729,-0.00649));
#2347=CARTESIAN_POINT('',(0.0535,-0.09904,-4.00000000000019E-5));
#2348=CARTESIAN_POINT('',(0.0535,-0.10079,-4.00000000000019E-5));
#2349=CARTESIAN_POINT('',(0.057255203,-0.102624594,-4.00000000000019E-5));
#2350=CARTESIAN_POINT('',(0.0535,-0.09904,-4.00000000000019E-5));
#2351=CARTESIAN_POINT('',(0.0535,-0.10004,-4.00000000000019E-5));
#2352=CARTESIAN_POINT('',(0.0702,-0.07187,-4.00000000000019E-5));
#2353=CARTESIAN_POINT('',(0.0702,-0.07187,-0.00649));
#2354=CARTESIAN_POINT('',(0.0702,-0.07012,-0.00649));
#2355=CARTESIAN_POINT('',(0.0702,-0.07187,-4.00000000000019E-5));
#2356=CARTESIAN_POINT('',(0.0702,-0.07362,-4.00000000000019E-5));
#2357=CARTESIAN_POINT('',(0.057255203,-0.102624594,-4.00000000000019E-5));
#2358=CARTESIAN_POINT('',(0.0702,-0.07187,-4.00000000000019E-5));
#2359=CARTESIAN_POINT('',(0.0702,-0.07287,-4.00000000000019E-5));
#2360=CARTESIAN_POINT('',(0.03984,-0.0629,-4.00000000000019E-5));
#2361=CARTESIAN_POINT('',(0.03984,-0.0629,-0.00649));
#2362=CARTESIAN_POINT('',(0.03984,-0.06115,-0.00649));
#2363=CARTESIAN_POINT('',(0.03984,-0.0629,-4.00000000000019E-5));
#2364=CARTESIAN_POINT('',(0.03984,-0.06465,-4.00000000000019E-5));
#2365=CARTESIAN_POINT('',(0.057255203,-0.102624594,-4.00000000000019E-5));
#2366=CARTESIAN_POINT('',(0.03984,-0.0629,-4.00000000000019E-5));
#2367=CARTESIAN_POINT('',(0.03984,-0.0639,-4.00000000000019E-5));
#2368=CARTESIAN_POINT('',(0.03984,-0.0629,-0.00649));
#2369=CARTESIAN_POINT('',(0.0535,-0.09904,-0.00649));
#2370=CARTESIAN_POINT('',(0.0702,-0.07187,-0.00649));
#2371=CARTESIAN_POINT('',(0.03984,-0.0629,0.00146));
#2372=CARTESIAN_POINT('',(0.03984,-0.0629,0.00146));
#2373=CARTESIAN_POINT('',(0.03984,-0.0639,0.00146));
#2374=CARTESIAN_POINT('',(0.05502,-0.081345,0.00146));
#2375=CARTESIAN_POINT('',(0.0702,-0.07187,0.00146));
#2376=CARTESIAN_POINT('',(0.0702,-0.07187,0.00146));
#2377=CARTESIAN_POINT('',(0.0702,-0.07287,0.00146));
#2378=CARTESIAN_POINT('',(0.05502,-0.081345,0.00146));
#2379=CARTESIAN_POINT('',(0.0535,-0.09904,0.00146));
#2380=CARTESIAN_POINT('',(0.0535,-0.09904,0.00146));
#2381=CARTESIAN_POINT('',(0.0535,-0.10004,0.00146));
#2382=CARTESIAN_POINT('',(0.05502,-0.081345,0.00146));
#2383=MECHANICAL_DESIGN_GEOMETRIC_PRESENTATION_REPRESENTATION('',(#1385),
#2384);
#2384=(
GEOMETRIC_REPRESENTATION_CONTEXT(3)
GLOBAL_UNCERTAINTY_ASSIGNED_CONTEXT((#2385))
GLOBAL_UNIT_ASSIGNED_CONTEXT((#2388,#2387,#2386))
REPRESENTATION_CONTEXT('bottom','TOP_LEVEL_ASSEMBLY_PART')
);
#2385=UNCERTAINTY_MEASURE_WITH_UNIT(LENGTH_MEASURE(2.E-5),#2388,
'DISTANCE_ACCURACY_VALUE','Maximum Tolerance applied to model');
#2386=(
NAMED_UNIT(*)
SI_UNIT($,.STERADIAN.)
SOLID_ANGLE_UNIT()
);
#2387=(
NAMED_UNIT(*)
PLANE_ANGLE_UNIT()
SI_UNIT($,.RADIAN.)
);
#2388=(
LENGTH_UNIT()
NAMED_UNIT(*)
SI_UNIT($,.METRE.)
);
#2389=PRODUCT_DEFINITION_SHAPE('','',#2390);
#2390=PRODUCT_DEFINITION('','',#2392,#2391);
#2391=PRODUCT_DEFINITION_CONTEXT('',#2398,'design');
#2392=PRODUCT_DEFINITION_FORMATION_WITH_SPECIFIED_SOURCE('','',#2394,
 .NOT_KNOWN.);
#2393=PRODUCT_RELATED_PRODUCT_CATEGORY('','',(#2394));
#2394=PRODUCT('bottom','bottom','bottom',(#2396));
#2395=PRODUCT_CATEGORY('','');
#2396=PRODUCT_CONTEXT('',#2398,'mechanical');
#2397=APPLICATION_PROTOCOL_DEFINITION('international standard',
'ap242_managed_model_based_3d_engineering',2020,#2398);
#2398=APPLICATION_CONTEXT('managed model based 3d engineering');
ENDSEC;
END-ISO-10303-21;
