ISO-10303-21;
HEADER;
/* Generated by software containing ST-Developer
 * from STEP Tools, Inc. (www.steptools.com) 
 */
/* OPTION: using custom renumber hook */

FILE_DESCRIPTION(
/* description */ ('STEP AP242 Edition 2',
'CAx-IF Rec.Pracs.---Representation and Presentation of Product Manufa
cturing Information (PMI)---4.0---2014-10-13',
'CAx-IF Rec.Pracs.---3D Tessellated Geometry---0.4---2014-09-14','2;1',
'CAx-IF Rec.Pracs.---User Defined Attributes---1.5---2016-08-15'),
/* implementation_level */ '2;1');

FILE_NAME(
/* name */ 'Case - top',
/* time_stamp */ '2026-06-21T16:04:02Z',
/* author */ (''),
/* organization */ (''),
/* preprocessor_version */ 'ST-DEVELOPER v20',
/* originating_system */ 'ONSHAPE BY PTC INC, 1.216',
/* authorisation */ '  ');

FILE_SCHEMA (('AP242_MANAGED_MODEL_BASED_3D_ENGINEERING_MIM_LF { 1 0 10303 442 3 1 4 }'));
ENDSEC;

DATA;
#10=SHAPE_REPRESENTATION_RELATIONSHIP('','',#925,#11);
#11=ADVANCED_BREP_SHAPE_REPRESENTATION('',(#923),#1609);
#12=TOROIDAL_SURFACE('',#1012,0.001,0.001);
#13=TOROIDAL_SURFACE('',#1015,0.001,0.001);
#14=TOROIDAL_SURFACE('',#1022,0.001,0.001);
#15=TOROIDAL_SURFACE('',#1025,0.001,0.001);
#16=B_SPLINE_CURVE_WITH_KNOTS('',3,(#1533,#1534,#1535,#1536),
 .UNSPECIFIED.,.F.,.F.,(4,4),(0.,0.00171143746986915),.UNSPECIFIED.);
#17=B_SPLINE_CURVE_WITH_KNOTS('',3,(#1541,#1542,#1543,#1544),
 .UNSPECIFIED.,.F.,.F.,(4,4),(0.,0.00171270661316561),.UNSPECIFIED.);
#18=B_SPLINE_CURVE_WITH_KNOTS('',3,(#1554,#1555,#1556,#1557),
 .UNSPECIFIED.,.F.,.F.,(4,4),(0.,0.00171270661316563),.UNSPECIFIED.);
#19=B_SPLINE_CURVE_WITH_KNOTS('',3,(#1559,#1560,#1561,#1562),
 .UNSPECIFIED.,.F.,.F.,(4,4),(0.,0.00171143746986914),.UNSPECIFIED.);
#20=B_SPLINE_CURVE_WITH_KNOTS('',3,(#1565,#1566,#1567,#1568),
 .UNSPECIFIED.,.F.,.F.,(4,4),(0.,0.00171143746986916),.UNSPECIFIED.);
#21=B_SPLINE_CURVE_WITH_KNOTS('',3,(#1571,#1572,#1573,#1574),
 .UNSPECIFIED.,.F.,.F.,(4,4),(0.,0.00171270661316559),.UNSPECIFIED.);
#22=B_SPLINE_CURVE_WITH_KNOTS('',3,(#1584,#1585,#1586,#1587),
 .UNSPECIFIED.,.F.,.F.,(4,4),(0.,0.0017114374698692),.UNSPECIFIED.);
#23=B_SPLINE_CURVE_WITH_KNOTS('',3,(#1588,#1589,#1590,#1591),
 .UNSPECIFIED.,.F.,.F.,(4,4),(0.,0.0017127066131656),.UNSPECIFIED.);
#24=PLANE('',#945);
#25=PLANE('',#946);
#26=PLANE('',#947);
#27=PLANE('',#948);
#28=PLANE('',#949);
#29=PLANE('',#953);
#30=PLANE('',#957);
#31=PLANE('',#961);
#32=PLANE('',#965);
#33=PLANE('',#972);
#34=PLANE('',#984);
#35=PLANE('',#987);
#36=PLANE('',#990);
#37=PLANE('',#993);
#38=PLANE('',#1004);
#39=PLANE('',#1029);
#40=PLANE('',#1032);
#41=PLANE('',#1035);
#42=PLANE('',#1038);
#43=LINE('',#1345,#95);
#44=LINE('',#1350,#96);
#45=LINE('',#1357,#97);
#46=LINE('',#1361,#98);
#47=LINE('',#1363,#99);
#48=LINE('',#1364,#100);
#49=LINE('',#1366,#101);
#50=LINE('',#1368,#102);
#51=LINE('',#1370,#103);
#52=LINE('',#1372,#104);
#53=LINE('',#1375,#105);
#54=LINE('',#1377,#106);
#55=LINE('',#1379,#107);
#56=LINE('',#1381,#108);
#57=LINE('',#1383,#109);
#58=LINE('',#1385,#110);
#59=LINE('',#1387,#111);
#60=LINE('',#1390,#112);
#61=LINE('',#1392,#113);
#62=LINE('',#1394,#114);
#63=LINE('',#1396,#115);
#64=LINE('',#1402,#116);
#65=LINE('',#1405,#117);
#66=LINE('',#1406,#118);
#67=LINE('',#1408,#119);
#68=LINE('',#1414,#120);
#69=LINE('',#1417,#121);
#70=LINE('',#1418,#122);
#71=LINE('',#1420,#123);
#72=LINE('',#1426,#124);
#73=LINE('',#1429,#125);
#74=LINE('',#1430,#126);
#75=LINE('',#1445,#127);
#76=LINE('',#1449,#128);
#77=LINE('',#1453,#129);
#78=LINE('',#1457,#130);
#79=LINE('',#1469,#131);
#80=LINE('',#1473,#132);
#81=LINE('',#1475,#133);
#82=LINE('',#1477,#134);
#83=LINE('',#1479,#135);
#84=LINE('',#1483,#136);
#85=LINE('',#1485,#137);
#86=LINE('',#1487,#138);
#87=LINE('',#1491,#139);
#88=LINE('',#1493,#140);
#89=LINE('',#1495,#141);
#90=LINE('',#1499,#142);
#91=LINE('',#1519,#143);
#92=LINE('',#1523,#144);
#93=LINE('',#1527,#145);
#94=LINE('',#1531,#146);
#95=VECTOR('',#1069,1.);
#96=VECTOR('',#1072,1.);
#97=VECTOR('',#1079,1.);
#98=VECTOR('',#1082,1.);
#99=VECTOR('',#1085,1.);
#100=VECTOR('',#1086,1.);
#101=VECTOR('',#1089,1.);
#102=VECTOR('',#1090,1.);
#103=VECTOR('',#1091,1.);
#104=VECTOR('',#1094,1.);
#105=VECTOR('',#1095,1.);
#106=VECTOR('',#1096,1.);
#107=VECTOR('',#1097,1.);
#108=VECTOR('',#1100,1.);
#109=VECTOR('',#1101,1.);
#110=VECTOR('',#1102,1.);
#111=VECTOR('',#1105,1.);
#112=VECTOR('',#1106,1.);
#113=VECTOR('',#1107,1.);
#114=VECTOR('',#1108,1.);
#115=VECTOR('',#1111,1.);
#116=VECTOR('',#1118,1.);
#117=VECTOR('',#1119,1.);
#118=VECTOR('',#1120,1.);
#119=VECTOR('',#1123,1.);
#120=VECTOR('',#1130,1.);
#121=VECTOR('',#1131,1.);
#122=VECTOR('',#1132,1.);
#123=VECTOR('',#1135,1.);
#124=VECTOR('',#1142,1.);
#125=VECTOR('',#1143,1.);
#126=VECTOR('',#1144,1.);
#127=VECTOR('',#1169,1.);
#128=VECTOR('',#1172,1.);
#129=VECTOR('',#1175,1.);
#130=VECTOR('',#1178,1.);
#131=VECTOR('',#1191,1.);
#132=VECTOR('',#1194,1.);
#133=VECTOR('',#1197,1.);
#134=VECTOR('',#1198,1.);
#135=VECTOR('',#1201,1.);
#136=VECTOR('',#1206,1.);
#137=VECTOR('',#1207,1.);
#138=VECTOR('',#1210,1.);
#139=VECTOR('',#1215,1.);
#140=VECTOR('',#1216,1.);
#141=VECTOR('',#1219,1.);
#142=VECTOR('',#1224,1.);
#143=VECTOR('',#1249,1.);
#144=VECTOR('',#1252,1.);
#145=VECTOR('',#1255,1.);
#146=VECTOR('',#1258,1.);
#147=ORIENTED_EDGE('',*,*,#391,.T.);
#148=ORIENTED_EDGE('',*,*,#392,.F.);
#149=ORIENTED_EDGE('',*,*,#393,.T.);
#150=ORIENTED_EDGE('',*,*,#394,.F.);
#151=ORIENTED_EDGE('',*,*,#395,.T.);
#152=ORIENTED_EDGE('',*,*,#396,.F.);
#153=ORIENTED_EDGE('',*,*,#397,.T.);
#154=ORIENTED_EDGE('',*,*,#398,.F.);
#155=ORIENTED_EDGE('',*,*,#399,.F.);
#156=ORIENTED_EDGE('',*,*,#400,.T.);
#157=ORIENTED_EDGE('',*,*,#401,.T.);
#158=ORIENTED_EDGE('',*,*,#402,.T.);
#159=ORIENTED_EDGE('',*,*,#403,.F.);
#160=ORIENTED_EDGE('',*,*,#404,.T.);
#161=ORIENTED_EDGE('',*,*,#405,.F.);
#162=ORIENTED_EDGE('',*,*,#406,.F.);
#163=ORIENTED_EDGE('',*,*,#404,.F.);
#164=ORIENTED_EDGE('',*,*,#407,.T.);
#165=ORIENTED_EDGE('',*,*,#399,.T.);
#166=ORIENTED_EDGE('',*,*,#408,.T.);
#167=ORIENTED_EDGE('',*,*,#409,.F.);
#168=ORIENTED_EDGE('',*,*,#406,.T.);
#169=ORIENTED_EDGE('',*,*,#410,.F.);
#170=ORIENTED_EDGE('',*,*,#411,.T.);
#171=ORIENTED_EDGE('',*,*,#412,.F.);
#172=ORIENTED_EDGE('',*,*,#413,.F.);
#173=ORIENTED_EDGE('',*,*,#414,.F.);
#174=ORIENTED_EDGE('',*,*,#415,.T.);
#175=ORIENTED_EDGE('',*,*,#401,.F.);
#176=ORIENTED_EDGE('',*,*,#416,.T.);
#177=ORIENTED_EDGE('',*,*,#417,.F.);
#178=ORIENTED_EDGE('',*,*,#418,.T.);
#179=ORIENTED_EDGE('',*,*,#419,.T.);
#180=ORIENTED_EDGE('',*,*,#420,.T.);
#181=ORIENTED_EDGE('',*,*,#421,.T.);
#182=ORIENTED_EDGE('',*,*,#422,.F.);
#183=ORIENTED_EDGE('',*,*,#423,.F.);
#184=ORIENTED_EDGE('',*,*,#424,.T.);
#185=ORIENTED_EDGE('',*,*,#419,.F.);
#186=ORIENTED_EDGE('',*,*,#425,.F.);
#187=ORIENTED_EDGE('',*,*,#426,.T.);
#188=ORIENTED_EDGE('',*,*,#427,.T.);
#189=ORIENTED_EDGE('',*,*,#423,.T.);
#190=ORIENTED_EDGE('',*,*,#428,.F.);
#191=ORIENTED_EDGE('',*,*,#429,.F.);
#192=ORIENTED_EDGE('',*,*,#430,.T.);
#193=ORIENTED_EDGE('',*,*,#426,.F.);
#194=ORIENTED_EDGE('',*,*,#431,.F.);
#195=ORIENTED_EDGE('',*,*,#432,.T.);
#196=ORIENTED_EDGE('',*,*,#433,.T.);
#197=ORIENTED_EDGE('',*,*,#429,.T.);
#198=ORIENTED_EDGE('',*,*,#434,.T.);
#199=ORIENTED_EDGE('',*,*,#435,.F.);
#200=ORIENTED_EDGE('',*,*,#436,.T.);
#201=ORIENTED_EDGE('',*,*,#432,.F.);
#202=ORIENTED_EDGE('',*,*,#437,.F.);
#203=ORIENTED_EDGE('',*,*,#438,.T.);
#204=ORIENTED_EDGE('',*,*,#439,.T.);
#205=ORIENTED_EDGE('',*,*,#435,.T.);
#206=ORIENTED_EDGE('',*,*,#440,.T.);
#207=ORIENTED_EDGE('',*,*,#421,.F.);
#208=ORIENTED_EDGE('',*,*,#441,.T.);
#209=ORIENTED_EDGE('',*,*,#438,.F.);
#210=ORIENTED_EDGE('',*,*,#442,.F.);
#211=ORIENTED_EDGE('',*,*,#412,.T.);
#212=ORIENTED_EDGE('',*,*,#443,.T.);
#213=ORIENTED_EDGE('',*,*,#416,.F.);
#214=ORIENTED_EDGE('',*,*,#400,.F.);
#215=ORIENTED_EDGE('',*,*,#407,.F.);
#216=ORIENTED_EDGE('',*,*,#403,.T.);
#217=ORIENTED_EDGE('',*,*,#409,.T.);
#218=ORIENTED_EDGE('',*,*,#444,.F.);
#219=ORIENTED_EDGE('',*,*,#393,.F.);
#220=ORIENTED_EDGE('',*,*,#397,.F.);
#221=ORIENTED_EDGE('',*,*,#442,.T.);
#222=ORIENTED_EDGE('',*,*,#440,.F.);
#223=ORIENTED_EDGE('',*,*,#437,.T.);
#224=ORIENTED_EDGE('',*,*,#434,.F.);
#225=ORIENTED_EDGE('',*,*,#431,.T.);
#226=ORIENTED_EDGE('',*,*,#428,.T.);
#227=ORIENTED_EDGE('',*,*,#425,.T.);
#228=ORIENTED_EDGE('',*,*,#422,.T.);
#229=ORIENTED_EDGE('',*,*,#395,.F.);
#230=ORIENTED_EDGE('',*,*,#391,.F.);
#231=ORIENTED_EDGE('',*,*,#444,.T.);
#232=ORIENTED_EDGE('',*,*,#411,.F.);
#233=ORIENTED_EDGE('',*,*,#445,.F.);
#234=ORIENTED_EDGE('',*,*,#413,.T.);
#235=ORIENTED_EDGE('',*,*,#443,.F.);
#236=ORIENTED_EDGE('',*,*,#415,.F.);
#237=ORIENTED_EDGE('',*,*,#446,.T.);
#238=ORIENTED_EDGE('',*,*,#417,.T.);
#239=ORIENTED_EDGE('',*,*,#447,.F.);
#240=ORIENTED_EDGE('',*,*,#448,.T.);
#241=ORIENTED_EDGE('',*,*,#449,.F.);
#242=ORIENTED_EDGE('',*,*,#450,.F.);
#243=ORIENTED_EDGE('',*,*,#451,.T.);
#244=ORIENTED_EDGE('',*,*,#452,.F.);
#245=ORIENTED_EDGE('',*,*,#453,.F.);
#246=ORIENTED_EDGE('',*,*,#454,.F.);
#247=ORIENTED_EDGE('',*,*,#455,.T.);
#248=ORIENTED_EDGE('',*,*,#456,.T.);
#249=ORIENTED_EDGE('',*,*,#457,.T.);
#250=ORIENTED_EDGE('',*,*,#458,.T.);
#251=ORIENTED_EDGE('',*,*,#459,.T.);
#252=ORIENTED_EDGE('',*,*,#414,.T.);
#253=ORIENTED_EDGE('',*,*,#445,.T.);
#254=ORIENTED_EDGE('',*,*,#410,.T.);
#255=ORIENTED_EDGE('',*,*,#405,.T.);
#256=ORIENTED_EDGE('',*,*,#408,.F.);
#257=ORIENTED_EDGE('',*,*,#402,.F.);
#258=ORIENTED_EDGE('',*,*,#418,.F.);
#259=ORIENTED_EDGE('',*,*,#446,.F.);
#260=ORIENTED_EDGE('',*,*,#447,.T.);
#261=ORIENTED_EDGE('',*,*,#460,.F.);
#262=ORIENTED_EDGE('',*,*,#461,.F.);
#263=ORIENTED_EDGE('',*,*,#462,.T.);
#264=ORIENTED_EDGE('',*,*,#454,.T.);
#265=ORIENTED_EDGE('',*,*,#463,.F.);
#266=ORIENTED_EDGE('',*,*,#464,.F.);
#267=ORIENTED_EDGE('',*,*,#460,.T.);
#268=ORIENTED_EDGE('',*,*,#453,.T.);
#269=ORIENTED_EDGE('',*,*,#465,.F.);
#270=ORIENTED_EDGE('',*,*,#466,.F.);
#271=ORIENTED_EDGE('',*,*,#463,.T.);
#272=ORIENTED_EDGE('',*,*,#452,.T.);
#273=ORIENTED_EDGE('',*,*,#467,.F.);
#274=ORIENTED_EDGE('',*,*,#468,.F.);
#275=ORIENTED_EDGE('',*,*,#465,.T.);
#276=ORIENTED_EDGE('',*,*,#451,.F.);
#277=ORIENTED_EDGE('',*,*,#469,.F.);
#278=ORIENTED_EDGE('',*,*,#470,.T.);
#279=ORIENTED_EDGE('',*,*,#467,.T.);
#280=ORIENTED_EDGE('',*,*,#450,.T.);
#281=ORIENTED_EDGE('',*,*,#471,.F.);
#282=ORIENTED_EDGE('',*,*,#472,.F.);
#283=ORIENTED_EDGE('',*,*,#469,.T.);
#284=ORIENTED_EDGE('',*,*,#449,.T.);
#285=ORIENTED_EDGE('',*,*,#473,.F.);
#286=ORIENTED_EDGE('',*,*,#474,.F.);
#287=ORIENTED_EDGE('',*,*,#471,.T.);
#288=ORIENTED_EDGE('',*,*,#448,.F.);
#289=ORIENTED_EDGE('',*,*,#462,.F.);
#290=ORIENTED_EDGE('',*,*,#475,.T.);
#291=ORIENTED_EDGE('',*,*,#473,.T.);
#292=ORIENTED_EDGE('',*,*,#476,.T.);
#293=ORIENTED_EDGE('',*,*,#455,.F.);
#294=ORIENTED_EDGE('',*,*,#477,.T.);
#295=ORIENTED_EDGE('',*,*,#456,.F.);
#296=ORIENTED_EDGE('',*,*,#478,.T.);
#297=ORIENTED_EDGE('',*,*,#457,.F.);
#298=ORIENTED_EDGE('',*,*,#479,.T.);
#299=ORIENTED_EDGE('',*,*,#458,.F.);
#300=ORIENTED_EDGE('',*,*,#480,.T.);
#301=ORIENTED_EDGE('',*,*,#459,.F.);
#302=ORIENTED_EDGE('',*,*,#481,.F.);
#303=ORIENTED_EDGE('',*,*,#482,.T.);
#304=ORIENTED_EDGE('',*,*,#483,.F.);
#305=ORIENTED_EDGE('',*,*,#484,.T.);
#306=ORIENTED_EDGE('',*,*,#485,.F.);
#307=ORIENTED_EDGE('',*,*,#486,.T.);
#308=ORIENTED_EDGE('',*,*,#487,.F.);
#309=ORIENTED_EDGE('',*,*,#488,.T.);
#310=ORIENTED_EDGE('',*,*,#480,.F.);
#311=ORIENTED_EDGE('',*,*,#479,.F.);
#312=ORIENTED_EDGE('',*,*,#478,.F.);
#313=ORIENTED_EDGE('',*,*,#477,.F.);
#314=ORIENTED_EDGE('',*,*,#476,.F.);
#315=ORIENTED_EDGE('',*,*,#461,.T.);
#316=ORIENTED_EDGE('',*,*,#464,.T.);
#317=ORIENTED_EDGE('',*,*,#466,.T.);
#318=ORIENTED_EDGE('',*,*,#468,.T.);
#319=ORIENTED_EDGE('',*,*,#470,.F.);
#320=ORIENTED_EDGE('',*,*,#472,.T.);
#321=ORIENTED_EDGE('',*,*,#474,.T.);
#322=ORIENTED_EDGE('',*,*,#475,.F.);
#323=ORIENTED_EDGE('',*,*,#489,.F.);
#324=ORIENTED_EDGE('',*,*,#490,.F.);
#325=ORIENTED_EDGE('',*,*,#439,.F.);
#326=ORIENTED_EDGE('',*,*,#491,.F.);
#327=ORIENTED_EDGE('',*,*,#492,.F.);
#328=ORIENTED_EDGE('',*,*,#486,.F.);
#329=ORIENTED_EDGE('',*,*,#493,.F.);
#330=ORIENTED_EDGE('',*,*,#491,.T.);
#331=ORIENTED_EDGE('',*,*,#441,.F.);
#332=ORIENTED_EDGE('',*,*,#494,.F.);
#333=ORIENTED_EDGE('',*,*,#495,.F.);
#334=ORIENTED_EDGE('',*,*,#496,.F.);
#335=ORIENTED_EDGE('',*,*,#436,.F.);
#336=ORIENTED_EDGE('',*,*,#490,.T.);
#337=ORIENTED_EDGE('',*,*,#497,.F.);
#338=ORIENTED_EDGE('',*,*,#488,.F.);
#339=ORIENTED_EDGE('',*,*,#498,.F.);
#340=ORIENTED_EDGE('',*,*,#494,.T.);
#341=ORIENTED_EDGE('',*,*,#420,.F.);
#342=ORIENTED_EDGE('',*,*,#499,.F.);
#343=ORIENTED_EDGE('',*,*,#500,.F.);
#344=ORIENTED_EDGE('',*,*,#501,.F.);
#345=ORIENTED_EDGE('',*,*,#433,.F.);
#346=ORIENTED_EDGE('',*,*,#496,.T.);
#347=ORIENTED_EDGE('',*,*,#502,.F.);
#348=ORIENTED_EDGE('',*,*,#484,.F.);
#349=ORIENTED_EDGE('',*,*,#503,.F.);
#350=ORIENTED_EDGE('',*,*,#499,.T.);
#351=ORIENTED_EDGE('',*,*,#424,.F.);
#352=ORIENTED_EDGE('',*,*,#504,.F.);
#353=ORIENTED_EDGE('',*,*,#505,.F.);
#354=ORIENTED_EDGE('',*,*,#506,.F.);
#355=ORIENTED_EDGE('',*,*,#430,.F.);
#356=ORIENTED_EDGE('',*,*,#501,.T.);
#357=ORIENTED_EDGE('',*,*,#507,.F.);
#358=ORIENTED_EDGE('',*,*,#504,.T.);
#359=ORIENTED_EDGE('',*,*,#427,.F.);
#360=ORIENTED_EDGE('',*,*,#506,.T.);
#361=ORIENTED_EDGE('',*,*,#508,.F.);
#362=ORIENTED_EDGE('',*,*,#482,.F.);
#363=ORIENTED_EDGE('',*,*,#509,.T.);
#364=ORIENTED_EDGE('',*,*,#394,.T.);
#365=ORIENTED_EDGE('',*,*,#500,.T.);
#366=ORIENTED_EDGE('',*,*,#483,.T.);
#367=ORIENTED_EDGE('',*,*,#508,.T.);
#368=ORIENTED_EDGE('',*,*,#505,.T.);
#369=ORIENTED_EDGE('',*,*,#509,.F.);
#370=ORIENTED_EDGE('',*,*,#510,.T.);
#371=ORIENTED_EDGE('',*,*,#392,.T.);
#372=ORIENTED_EDGE('',*,*,#497,.T.);
#373=ORIENTED_EDGE('',*,*,#503,.T.);
#374=ORIENTED_EDGE('',*,*,#507,.T.);
#375=ORIENTED_EDGE('',*,*,#481,.T.);
#376=ORIENTED_EDGE('',*,*,#510,.F.);
#377=ORIENTED_EDGE('',*,*,#511,.T.);
#378=ORIENTED_EDGE('',*,*,#396,.T.);
#379=ORIENTED_EDGE('',*,*,#489,.T.);
#380=ORIENTED_EDGE('',*,*,#485,.T.);
#381=ORIENTED_EDGE('',*,*,#502,.T.);
#382=ORIENTED_EDGE('',*,*,#495,.T.);
#383=ORIENTED_EDGE('',*,*,#511,.F.);
#384=ORIENTED_EDGE('',*,*,#512,.T.);
#385=ORIENTED_EDGE('',*,*,#398,.T.);
#386=ORIENTED_EDGE('',*,*,#492,.T.);
#387=ORIENTED_EDGE('',*,*,#493,.T.);
#388=ORIENTED_EDGE('',*,*,#498,.T.);
#389=ORIENTED_EDGE('',*,*,#487,.T.);
#390=ORIENTED_EDGE('',*,*,#512,.F.);
#391=EDGE_CURVE('',#513,#513,#599,.F.);
#392=EDGE_CURVE('',#514,#514,#600,.F.);
#393=EDGE_CURVE('',#515,#515,#601,.F.);
#394=EDGE_CURVE('',#516,#516,#602,.F.);
#395=EDGE_CURVE('',#517,#517,#603,.F.);
#396=EDGE_CURVE('',#518,#518,#604,.F.);
#397=EDGE_CURVE('',#519,#519,#605,.F.);
#398=EDGE_CURVE('',#520,#520,#606,.F.);
#399=EDGE_CURVE('',#521,#522,#43,.T.);
#400=EDGE_CURVE('',#521,#523,#607,.T.);
#401=EDGE_CURVE('',#523,#524,#44,.T.);
#402=EDGE_CURVE('',#524,#522,#608,.T.);
#403=EDGE_CURVE('',#525,#526,#609,.F.);
#404=EDGE_CURVE('',#525,#527,#45,.T.);
#405=EDGE_CURVE('',#528,#527,#610,.T.);
#406=EDGE_CURVE('',#526,#528,#46,.T.);
#407=EDGE_CURVE('',#525,#521,#47,.T.);
#408=EDGE_CURVE('',#522,#527,#48,.T.);
#409=EDGE_CURVE('',#526,#529,#49,.T.);
#410=EDGE_CURVE('',#530,#528,#50,.T.);
#411=EDGE_CURVE('',#530,#529,#51,.T.);
#412=EDGE_CURVE('',#531,#532,#52,.T.);
#413=EDGE_CURVE('',#533,#531,#53,.T.);
#414=EDGE_CURVE('',#534,#533,#54,.T.);
#415=EDGE_CURVE('',#534,#532,#55,.T.);
#416=EDGE_CURVE('',#523,#535,#56,.T.);
#417=EDGE_CURVE('',#536,#535,#57,.T.);
#418=EDGE_CURVE('',#536,#524,#58,.T.);
#419=EDGE_CURVE('',#537,#538,#59,.T.);
#420=EDGE_CURVE('',#538,#539,#60,.F.);
#421=EDGE_CURVE('',#539,#540,#61,.F.);
#422=EDGE_CURVE('',#537,#540,#62,.T.);
#423=EDGE_CURVE('',#541,#542,#63,.F.);
#424=EDGE_CURVE('',#541,#538,#611,.F.);
#425=EDGE_CURVE('',#542,#537,#612,.F.);
#426=EDGE_CURVE('',#543,#544,#64,.T.);
#427=EDGE_CURVE('',#544,#541,#65,.F.);
#428=EDGE_CURVE('',#543,#542,#66,.T.);
#429=EDGE_CURVE('',#545,#546,#67,.F.);
#430=EDGE_CURVE('',#545,#544,#613,.F.);
#431=EDGE_CURVE('',#546,#543,#614,.F.);
#432=EDGE_CURVE('',#547,#548,#68,.T.);
#433=EDGE_CURVE('',#548,#545,#69,.T.);
#434=EDGE_CURVE('',#546,#547,#70,.T.);
#435=EDGE_CURVE('',#549,#550,#71,.F.);
#436=EDGE_CURVE('',#549,#548,#615,.F.);
#437=EDGE_CURVE('',#550,#547,#616,.F.);
#438=EDGE_CURVE('',#551,#552,#72,.T.);
#439=EDGE_CURVE('',#552,#549,#73,.T.);
#440=EDGE_CURVE('',#550,#551,#74,.T.);
#441=EDGE_CURVE('',#539,#552,#617,.F.);
#442=EDGE_CURVE('',#540,#551,#618,.F.);
#443=EDGE_CURVE('',#532,#535,#619,.T.);
#444=EDGE_CURVE('',#531,#529,#620,.T.);
#445=EDGE_CURVE('',#533,#530,#621,.T.);
#446=EDGE_CURVE('',#534,#536,#622,.T.);
#447=EDGE_CURVE('',#553,#554,#623,.T.);
#448=EDGE_CURVE('',#553,#555,#75,.T.);
#449=EDGE_CURVE('',#556,#555,#624,.T.);
#450=EDGE_CURVE('',#557,#556,#76,.T.);
#451=EDGE_CURVE('',#557,#558,#625,.T.);
#452=EDGE_CURVE('',#559,#558,#77,.T.);
#453=EDGE_CURVE('',#560,#559,#626,.T.);
#454=EDGE_CURVE('',#554,#560,#78,.T.);
#455=EDGE_CURVE('',#561,#561,#627,.T.);
#456=EDGE_CURVE('',#562,#562,#628,.T.);
#457=EDGE_CURVE('',#563,#563,#629,.T.);
#458=EDGE_CURVE('',#564,#564,#630,.T.);
#459=EDGE_CURVE('',#565,#565,#631,.T.);
#460=EDGE_CURVE('',#566,#554,#79,.T.);
#461=EDGE_CURVE('',#567,#566,#632,.T.);
#462=EDGE_CURVE('',#567,#553,#80,.T.);
#463=EDGE_CURVE('',#568,#560,#81,.T.);
#464=EDGE_CURVE('',#566,#568,#82,.T.);
#465=EDGE_CURVE('',#569,#559,#83,.T.);
#466=EDGE_CURVE('',#568,#569,#633,.T.);
#467=EDGE_CURVE('',#570,#558,#84,.T.);
#468=EDGE_CURVE('',#569,#570,#85,.T.);
#469=EDGE_CURVE('',#571,#557,#86,.T.);
#470=EDGE_CURVE('',#571,#570,#634,.T.);
#471=EDGE_CURVE('',#572,#556,#87,.T.);
#472=EDGE_CURVE('',#571,#572,#88,.T.);
#473=EDGE_CURVE('',#573,#555,#89,.T.);
#474=EDGE_CURVE('',#572,#573,#635,.T.);
#475=EDGE_CURVE('',#567,#573,#90,.T.);
#476=EDGE_CURVE('',#574,#574,#636,.T.);
#477=EDGE_CURVE('',#575,#575,#637,.T.);
#478=EDGE_CURVE('',#576,#576,#638,.T.);
#479=EDGE_CURVE('',#577,#577,#639,.T.);
#480=EDGE_CURVE('',#578,#578,#640,.T.);
#481=EDGE_CURVE('',#579,#580,#641,.T.);
#482=EDGE_CURVE('',#579,#581,#91,.T.);
#483=EDGE_CURVE('',#582,#581,#642,.T.);
#484=EDGE_CURVE('',#582,#583,#92,.F.);
#485=EDGE_CURVE('',#584,#583,#643,.T.);
#486=EDGE_CURVE('',#584,#585,#93,.F.);
#487=EDGE_CURVE('',#586,#585,#644,.T.);
#488=EDGE_CURVE('',#586,#580,#94,.T.);
#489=EDGE_CURVE('',#587,#584,#16,.T.);
#490=EDGE_CURVE('',#549,#587,#645,.T.);
#491=EDGE_CURVE('',#588,#552,#646,.T.);
#492=EDGE_CURVE('',#585,#588,#17,.T.);
#493=EDGE_CURVE('',#588,#589,#647,.F.);
#494=EDGE_CURVE('',#589,#539,#648,.T.);
#495=EDGE_CURVE('',#590,#587,#649,.F.);
#496=EDGE_CURVE('',#548,#590,#650,.T.);
#497=EDGE_CURVE('',#580,#591,#18,.T.);
#498=EDGE_CURVE('',#589,#586,#19,.T.);
#499=EDGE_CURVE('',#591,#538,#651,.T.);
#500=EDGE_CURVE('',#592,#582,#20,.T.);
#501=EDGE_CURVE('',#545,#592,#652,.T.);
#502=EDGE_CURVE('',#583,#590,#21,.T.);
#503=EDGE_CURVE('',#591,#593,#653,.F.);
#504=EDGE_CURVE('',#593,#541,#654,.T.);
#505=EDGE_CURVE('',#594,#592,#655,.F.);
#506=EDGE_CURVE('',#544,#594,#656,.T.);
#507=EDGE_CURVE('',#593,#579,#22,.T.);
#508=EDGE_CURVE('',#581,#594,#23,.T.);
#509=EDGE_CURVE('',#595,#595,#657,.T.);
#510=EDGE_CURVE('',#596,#596,#658,.T.);
#511=EDGE_CURVE('',#597,#597,#659,.T.);
#512=EDGE_CURVE('',#598,#598,#660,.T.);
#513=VERTEX_POINT('',#1326);
#514=VERTEX_POINT('',#1328);
#515=VERTEX_POINT('',#1331);
#516=VERTEX_POINT('',#1333);
#517=VERTEX_POINT('',#1336);
#518=VERTEX_POINT('',#1338);
#519=VERTEX_POINT('',#1341);
#520=VERTEX_POINT('',#1343);
#521=VERTEX_POINT('',#1346);
#522=VERTEX_POINT('',#1347);
#523=VERTEX_POINT('',#1349);
#524=VERTEX_POINT('',#1351);
#525=VERTEX_POINT('',#1355);
#526=VERTEX_POINT('',#1356);
#527=VERTEX_POINT('',#1358);
#528=VERTEX_POINT('',#1360);
#529=VERTEX_POINT('',#1367);
#530=VERTEX_POINT('',#1369);
#531=VERTEX_POINT('',#1373);
#532=VERTEX_POINT('',#1374);
#533=VERTEX_POINT('',#1376);
#534=VERTEX_POINT('',#1378);
#535=VERTEX_POINT('',#1382);
#536=VERTEX_POINT('',#1384);
#537=VERTEX_POINT('',#1388);
#538=VERTEX_POINT('',#1389);
#539=VERTEX_POINT('',#1391);
#540=VERTEX_POINT('',#1393);
#541=VERTEX_POINT('',#1397);
#542=VERTEX_POINT('',#1398);
#543=VERTEX_POINT('',#1403);
#544=VERTEX_POINT('',#1404);
#545=VERTEX_POINT('',#1409);
#546=VERTEX_POINT('',#1410);
#547=VERTEX_POINT('',#1415);
#548=VERTEX_POINT('',#1416);
#549=VERTEX_POINT('',#1421);
#550=VERTEX_POINT('',#1422);
#551=VERTEX_POINT('',#1427);
#552=VERTEX_POINT('',#1428);
#553=VERTEX_POINT('',#1443);
#554=VERTEX_POINT('',#1444);
#555=VERTEX_POINT('',#1446);
#556=VERTEX_POINT('',#1448);
#557=VERTEX_POINT('',#1450);
#558=VERTEX_POINT('',#1452);
#559=VERTEX_POINT('',#1454);
#560=VERTEX_POINT('',#1456);
#561=VERTEX_POINT('',#1459);
#562=VERTEX_POINT('',#1461);
#563=VERTEX_POINT('',#1463);
#564=VERTEX_POINT('',#1465);
#565=VERTEX_POINT('',#1467);
#566=VERTEX_POINT('',#1470);
#567=VERTEX_POINT('',#1472);
#568=VERTEX_POINT('',#1476);
#569=VERTEX_POINT('',#1480);
#570=VERTEX_POINT('',#1484);
#571=VERTEX_POINT('',#1488);
#572=VERTEX_POINT('',#1492);
#573=VERTEX_POINT('',#1496);
#574=VERTEX_POINT('',#1502);
#575=VERTEX_POINT('',#1505);
#576=VERTEX_POINT('',#1508);
#577=VERTEX_POINT('',#1511);
#578=VERTEX_POINT('',#1514);
#579=VERTEX_POINT('',#1517);
#580=VERTEX_POINT('',#1518);
#581=VERTEX_POINT('',#1520);
#582=VERTEX_POINT('',#1522);
#583=VERTEX_POINT('',#1524);
#584=VERTEX_POINT('',#1526);
#585=VERTEX_POINT('',#1528);
#586=VERTEX_POINT('',#1530);
#587=VERTEX_POINT('',#1537);
#588=VERTEX_POINT('',#1540);
#589=VERTEX_POINT('',#1547);
#590=VERTEX_POINT('',#1551);
#591=VERTEX_POINT('',#1558);
#592=VERTEX_POINT('',#1569);
#593=VERTEX_POINT('',#1577);
#594=VERTEX_POINT('',#1581);
#595=VERTEX_POINT('',#1594);
#596=VERTEX_POINT('',#1598);
#597=VERTEX_POINT('',#1602);
#598=VERTEX_POINT('',#1606);
#599=CIRCLE('',#928,0.001);
#600=CIRCLE('',#929,0.001);
#601=CIRCLE('',#931,0.001);
#602=CIRCLE('',#932,0.001);
#603=CIRCLE('',#934,0.001);
#604=CIRCLE('',#935,0.001);
#605=CIRCLE('',#937,0.001);
#606=CIRCLE('',#938,0.001);
#607=CIRCLE('',#940,0.0028);
#608=CIRCLE('',#941,0.0028);
#609=CIRCLE('',#943,0.0028);
#610=CIRCLE('',#944,0.0028);
#611=CIRCLE('',#951,0.002);
#612=CIRCLE('',#952,0.002);
#613=CIRCLE('',#955,0.002);
#614=CIRCLE('',#956,0.002);
#615=CIRCLE('',#959,0.002);
#616=CIRCLE('',#960,0.002);
#617=CIRCLE('',#963,0.002);
#618=CIRCLE('',#964,0.002);
#619=CIRCLE('',#966,0.0016);
#620=CIRCLE('',#967,0.0016);
#621=CIRCLE('',#969,0.0016);
#622=CIRCLE('',#971,0.0016);
#623=CIRCLE('',#973,0.00200000000000003);
#624=CIRCLE('',#974,0.002);
#625=CIRCLE('',#975,0.002);
#626=CIRCLE('',#976,0.002);
#627=CIRCLE('',#977,0.00575);
#628=CIRCLE('',#978,0.00575);
#629=CIRCLE('',#979,0.00575);
#630=CIRCLE('',#980,0.00575);
#631=CIRCLE('',#981,0.00575);
#632=CIRCLE('',#983,0.00200000000000003);
#633=CIRCLE('',#986,0.002);
#634=CIRCLE('',#989,0.002);
#635=CIRCLE('',#992,0.002);
#636=CIRCLE('',#995,0.00575);
#637=CIRCLE('',#997,0.00575);
#638=CIRCLE('',#999,0.00575);
#639=CIRCLE('',#1001,0.00575);
#640=CIRCLE('',#1003,0.00575);
#641=CIRCLE('',#1005,0.00175);
#642=CIRCLE('',#1006,0.00175);
#643=CIRCLE('',#1007,0.00175);
#644=CIRCLE('',#1008,0.00175);
#645=CIRCLE('',#1010,0.001);
#646=CIRCLE('',#1011,0.001);
#647=CIRCLE('',#1013,0.00175);
#648=CIRCLE('',#1014,0.001);
#649=CIRCLE('',#1016,0.00175);
#650=CIRCLE('',#1017,0.001);
#651=CIRCLE('',#1019,0.001);
#652=CIRCLE('',#1021,0.001);
#653=CIRCLE('',#1023,0.00175);
#654=CIRCLE('',#1024,0.001);
#655=CIRCLE('',#1026,0.00175);
#656=CIRCLE('',#1027,0.001);
#657=CIRCLE('',#1030,0.00175);
#658=CIRCLE('',#1033,0.00175);
#659=CIRCLE('',#1036,0.00175);
#660=CIRCLE('',#1039,0.00175);
#661=EDGE_LOOP('',(#147));
#662=EDGE_LOOP('',(#148));
#663=EDGE_LOOP('',(#149));
#664=EDGE_LOOP('',(#150));
#665=EDGE_LOOP('',(#151));
#666=EDGE_LOOP('',(#152));
#667=EDGE_LOOP('',(#153));
#668=EDGE_LOOP('',(#154));
#669=EDGE_LOOP('',(#155,#156,#157,#158));
#670=EDGE_LOOP('',(#159,#160,#161,#162));
#671=EDGE_LOOP('',(#163,#164,#165,#166));
#672=EDGE_LOOP('',(#167,#168,#169,#170));
#673=EDGE_LOOP('',(#171,#172,#173,#174));
#674=EDGE_LOOP('',(#175,#176,#177,#178));
#675=EDGE_LOOP('',(#179,#180,#181,#182));
#676=EDGE_LOOP('',(#183,#184,#185,#186));
#677=EDGE_LOOP('',(#187,#188,#189,#190));
#678=EDGE_LOOP('',(#191,#192,#193,#194));
#679=EDGE_LOOP('',(#195,#196,#197,#198));
#680=EDGE_LOOP('',(#199,#200,#201,#202));
#681=EDGE_LOOP('',(#203,#204,#205,#206));
#682=EDGE_LOOP('',(#207,#208,#209,#210));
#683=EDGE_LOOP('',(#211,#212,#213,#214,#215,#216,#217,#218));
#684=EDGE_LOOP('',(#219));
#685=EDGE_LOOP('',(#220));
#686=EDGE_LOOP('',(#221,#222,#223,#224,#225,#226,#227,#228));
#687=EDGE_LOOP('',(#229));
#688=EDGE_LOOP('',(#230));
#689=EDGE_LOOP('',(#231,#232,#233,#234));
#690=EDGE_LOOP('',(#235,#236,#237,#238));
#691=EDGE_LOOP('',(#239,#240,#241,#242,#243,#244,#245,#246));
#692=EDGE_LOOP('',(#247));
#693=EDGE_LOOP('',(#248));
#694=EDGE_LOOP('',(#249));
#695=EDGE_LOOP('',(#250));
#696=EDGE_LOOP('',(#251));
#697=EDGE_LOOP('',(#252,#253,#254,#255,#256,#257,#258,#259));
#698=EDGE_LOOP('',(#260,#261,#262,#263));
#699=EDGE_LOOP('',(#264,#265,#266,#267));
#700=EDGE_LOOP('',(#268,#269,#270,#271));
#701=EDGE_LOOP('',(#272,#273,#274,#275));
#702=EDGE_LOOP('',(#276,#277,#278,#279));
#703=EDGE_LOOP('',(#280,#281,#282,#283));
#704=EDGE_LOOP('',(#284,#285,#286,#287));
#705=EDGE_LOOP('',(#288,#289,#290,#291));
#706=EDGE_LOOP('',(#292));
#707=EDGE_LOOP('',(#293));
#708=EDGE_LOOP('',(#294));
#709=EDGE_LOOP('',(#295));
#710=EDGE_LOOP('',(#296));
#711=EDGE_LOOP('',(#297));
#712=EDGE_LOOP('',(#298));
#713=EDGE_LOOP('',(#299));
#714=EDGE_LOOP('',(#300));
#715=EDGE_LOOP('',(#301));
#716=EDGE_LOOP('',(#302,#303,#304,#305,#306,#307,#308,#309));
#717=EDGE_LOOP('',(#310));
#718=EDGE_LOOP('',(#311));
#719=EDGE_LOOP('',(#312));
#720=EDGE_LOOP('',(#313));
#721=EDGE_LOOP('',(#314));
#722=EDGE_LOOP('',(#315,#316,#317,#318,#319,#320,#321,#322));
#723=EDGE_LOOP('',(#323,#324,#325,#326,#327,#328));
#724=EDGE_LOOP('',(#329,#330,#331,#332));
#725=EDGE_LOOP('',(#333,#334,#335,#336));
#726=EDGE_LOOP('',(#337,#338,#339,#340,#341,#342));
#727=EDGE_LOOP('',(#343,#344,#345,#346,#347,#348));
#728=EDGE_LOOP('',(#349,#350,#351,#352));
#729=EDGE_LOOP('',(#353,#354,#355,#356));
#730=EDGE_LOOP('',(#357,#358,#359,#360,#361,#362));
#731=EDGE_LOOP('',(#363));
#732=EDGE_LOOP('',(#364));
#733=EDGE_LOOP('',(#365,#366,#367,#368));
#734=EDGE_LOOP('',(#369));
#735=EDGE_LOOP('',(#370));
#736=EDGE_LOOP('',(#371));
#737=EDGE_LOOP('',(#372,#373,#374,#375));
#738=EDGE_LOOP('',(#376));
#739=EDGE_LOOP('',(#377));
#740=EDGE_LOOP('',(#378));
#741=EDGE_LOOP('',(#379,#380,#381,#382));
#742=EDGE_LOOP('',(#383));
#743=EDGE_LOOP('',(#384));
#744=EDGE_LOOP('',(#385));
#745=EDGE_LOOP('',(#386,#387,#388,#389));
#746=EDGE_LOOP('',(#390));
#747=FACE_BOUND('',#661,.T.);
#748=FACE_BOUND('',#662,.T.);
#749=FACE_BOUND('',#663,.T.);
#750=FACE_BOUND('',#664,.T.);
#751=FACE_BOUND('',#665,.T.);
#752=FACE_BOUND('',#666,.T.);
#753=FACE_BOUND('',#667,.T.);
#754=FACE_BOUND('',#668,.T.);
#755=FACE_BOUND('',#669,.T.);
#756=FACE_BOUND('',#670,.T.);
#757=FACE_BOUND('',#671,.T.);
#758=FACE_BOUND('',#672,.T.);
#759=FACE_BOUND('',#673,.T.);
#760=FACE_BOUND('',#674,.T.);
#761=FACE_BOUND('',#675,.T.);
#762=FACE_BOUND('',#676,.T.);
#763=FACE_BOUND('',#677,.T.);
#764=FACE_BOUND('',#678,.T.);
#765=FACE_BOUND('',#679,.T.);
#766=FACE_BOUND('',#680,.T.);
#767=FACE_BOUND('',#681,.T.);
#768=FACE_BOUND('',#682,.T.);
#769=FACE_BOUND('',#683,.T.);
#770=FACE_BOUND('',#684,.T.);
#771=FACE_BOUND('',#685,.T.);
#772=FACE_BOUND('',#686,.T.);
#773=FACE_BOUND('',#687,.T.);
#774=FACE_BOUND('',#688,.T.);
#775=FACE_BOUND('',#689,.T.);
#776=FACE_BOUND('',#690,.T.);
#777=FACE_BOUND('',#691,.T.);
#778=FACE_BOUND('',#692,.T.);
#779=FACE_BOUND('',#693,.T.);
#780=FACE_BOUND('',#694,.T.);
#781=FACE_BOUND('',#695,.T.);
#782=FACE_BOUND('',#696,.T.);
#783=FACE_BOUND('',#697,.T.);
#784=FACE_BOUND('',#698,.T.);
#785=FACE_BOUND('',#699,.T.);
#786=FACE_BOUND('',#700,.T.);
#787=FACE_BOUND('',#701,.T.);
#788=FACE_BOUND('',#702,.T.);
#789=FACE_BOUND('',#703,.T.);
#790=FACE_BOUND('',#704,.T.);
#791=FACE_BOUND('',#705,.T.);
#792=FACE_BOUND('',#706,.T.);
#793=FACE_BOUND('',#707,.T.);
#794=FACE_BOUND('',#708,.T.);
#795=FACE_BOUND('',#709,.T.);
#796=FACE_BOUND('',#710,.T.);
#797=FACE_BOUND('',#711,.T.);
#798=FACE_BOUND('',#712,.T.);
#799=FACE_BOUND('',#713,.T.);
#800=FACE_BOUND('',#714,.T.);
#801=FACE_BOUND('',#715,.T.);
#802=FACE_BOUND('',#716,.T.);
#803=FACE_BOUND('',#717,.T.);
#804=FACE_BOUND('',#718,.T.);
#805=FACE_BOUND('',#719,.T.);
#806=FACE_BOUND('',#720,.T.);
#807=FACE_BOUND('',#721,.T.);
#808=FACE_BOUND('',#722,.T.);
#809=FACE_BOUND('',#723,.T.);
#810=FACE_BOUND('',#724,.T.);
#811=FACE_BOUND('',#725,.T.);
#812=FACE_BOUND('',#726,.T.);
#813=FACE_BOUND('',#727,.T.);
#814=FACE_BOUND('',#728,.T.);
#815=FACE_BOUND('',#729,.T.);
#816=FACE_BOUND('',#730,.T.);
#817=FACE_BOUND('',#731,.T.);
#818=FACE_BOUND('',#732,.T.);
#819=FACE_BOUND('',#733,.T.);
#820=FACE_BOUND('',#734,.T.);
#821=FACE_BOUND('',#735,.T.);
#822=FACE_BOUND('',#736,.T.);
#823=FACE_BOUND('',#737,.T.);
#824=FACE_BOUND('',#738,.T.);
#825=FACE_BOUND('',#739,.T.);
#826=FACE_BOUND('',#740,.T.);
#827=FACE_BOUND('',#741,.T.);
#828=FACE_BOUND('',#742,.T.);
#829=FACE_BOUND('',#743,.T.);
#830=FACE_BOUND('',#744,.T.);
#831=FACE_BOUND('',#745,.T.);
#832=FACE_BOUND('',#746,.T.);
#833=CYLINDRICAL_SURFACE('',#927,0.001);
#834=CYLINDRICAL_SURFACE('',#930,0.001);
#835=CYLINDRICAL_SURFACE('',#933,0.001);
#836=CYLINDRICAL_SURFACE('',#936,0.001);
#837=CYLINDRICAL_SURFACE('',#939,0.0028);
#838=CYLINDRICAL_SURFACE('',#942,0.0028);
#839=CYLINDRICAL_SURFACE('',#950,0.002);
#840=CYLINDRICAL_SURFACE('',#954,0.002);
#841=CYLINDRICAL_SURFACE('',#958,0.002);
#842=CYLINDRICAL_SURFACE('',#962,0.002);
#843=CYLINDRICAL_SURFACE('',#968,0.0016);
#844=CYLINDRICAL_SURFACE('',#970,0.0016);
#845=CYLINDRICAL_SURFACE('',#982,0.00200000000000003);
#846=CYLINDRICAL_SURFACE('',#985,0.002);
#847=CYLINDRICAL_SURFACE('',#988,0.002);
#848=CYLINDRICAL_SURFACE('',#991,0.002);
#849=CYLINDRICAL_SURFACE('',#994,0.00575);
#850=CYLINDRICAL_SURFACE('',#996,0.00575);
#851=CYLINDRICAL_SURFACE('',#998,0.00575);
#852=CYLINDRICAL_SURFACE('',#1000,0.00575);
#853=CYLINDRICAL_SURFACE('',#1002,0.00575);
#854=CYLINDRICAL_SURFACE('',#1009,0.001);
#855=CYLINDRICAL_SURFACE('',#1018,0.001);
#856=CYLINDRICAL_SURFACE('',#1020,0.001);
#857=CYLINDRICAL_SURFACE('',#1028,0.001);
#858=CYLINDRICAL_SURFACE('',#1031,0.00175);
#859=CYLINDRICAL_SURFACE('',#1034,0.00175);
#860=CYLINDRICAL_SURFACE('',#1037,0.00175);
#861=CYLINDRICAL_SURFACE('',#1040,0.00175);
#862=ADVANCED_FACE('',(#747,#748),#833,.F.);
#863=ADVANCED_FACE('',(#749,#750),#834,.F.);
#864=ADVANCED_FACE('',(#751,#752),#835,.F.);
#865=ADVANCED_FACE('',(#753,#754),#836,.F.);
#866=ADVANCED_FACE('',(#755),#837,.T.);
#867=ADVANCED_FACE('',(#756),#838,.T.);
#868=ADVANCED_FACE('',(#757),#24,.F.);
#869=ADVANCED_FACE('',(#758),#25,.T.);
#870=ADVANCED_FACE('',(#759),#26,.T.);
#871=ADVANCED_FACE('',(#760),#27,.F.);
#872=ADVANCED_FACE('',(#761),#28,.T.);
#873=ADVANCED_FACE('',(#762),#839,.T.);
#874=ADVANCED_FACE('',(#763),#29,.T.);
#875=ADVANCED_FACE('',(#764),#840,.T.);
#876=ADVANCED_FACE('',(#765),#30,.F.);
#877=ADVANCED_FACE('',(#766),#841,.T.);
#878=ADVANCED_FACE('',(#767),#31,.F.);
#879=ADVANCED_FACE('',(#768),#842,.T.);
#880=ADVANCED_FACE('',(#769,#770,#771,#772,#773,#774),#32,.F.);
#881=ADVANCED_FACE('',(#775),#843,.T.);
#882=ADVANCED_FACE('',(#776),#844,.T.);
#883=ADVANCED_FACE('',(#777,#778,#779,#780,#781,#782,#783),#33,.F.);
#884=ADVANCED_FACE('',(#784),#845,.F.);
#885=ADVANCED_FACE('',(#785),#34,.F.);
#886=ADVANCED_FACE('',(#786),#846,.F.);
#887=ADVANCED_FACE('',(#787),#35,.F.);
#888=ADVANCED_FACE('',(#788),#847,.F.);
#889=ADVANCED_FACE('',(#789),#36,.F.);
#890=ADVANCED_FACE('',(#790),#848,.F.);
#891=ADVANCED_FACE('',(#791),#37,.T.);
#892=ADVANCED_FACE('',(#792,#793),#849,.F.);
#893=ADVANCED_FACE('',(#794,#795),#850,.F.);
#894=ADVANCED_FACE('',(#796,#797),#851,.F.);
#895=ADVANCED_FACE('',(#798,#799),#852,.F.);
#896=ADVANCED_FACE('',(#800,#801),#853,.F.);
#897=ADVANCED_FACE('',(#802,#803,#804,#805,#806,#807,#808),#38,.T.);
#898=ADVANCED_FACE('',(#809),#854,.T.);
#899=ADVANCED_FACE('',(#810),#12,.T.);
#900=ADVANCED_FACE('',(#811),#13,.T.);
#901=ADVANCED_FACE('',(#812),#855,.T.);
#902=ADVANCED_FACE('',(#813),#856,.T.);
#903=ADVANCED_FACE('',(#814),#14,.T.);
#904=ADVANCED_FACE('',(#815),#15,.T.);
#905=ADVANCED_FACE('',(#816),#857,.T.);
#906=ADVANCED_FACE('',(#817,#818),#39,.T.);
#907=ADVANCED_FACE('',(#819,#820),#858,.F.);
#908=ADVANCED_FACE('',(#821,#822),#40,.T.);
#909=ADVANCED_FACE('',(#823,#824),#859,.F.);
#910=ADVANCED_FACE('',(#825,#826),#41,.T.);
#911=ADVANCED_FACE('',(#827,#828),#860,.F.);
#912=ADVANCED_FACE('',(#829,#830),#42,.T.);
#913=ADVANCED_FACE('',(#831,#832),#861,.F.);
#914=CLOSED_SHELL('',(#862,#863,#864,#865,#866,#867,#868,#869,#870,#871,
#872,#873,#874,#875,#876,#877,#878,#879,#880,#881,#882,#883,#884,#885,#886,
#887,#888,#889,#890,#891,#892,#893,#894,#895,#896,#897,#898,#899,#900,#901,
#902,#903,#904,#905,#906,#907,#908,#909,#910,#911,#912,#913));
#915=STYLED_ITEM('',(#916),#923);
#916=PRESENTATION_STYLE_ASSIGNMENT((#917));
#917=SURFACE_STYLE_USAGE(.BOTH.,#918);
#918=SURFACE_SIDE_STYLE('',(#919));
#919=SURFACE_STYLE_FILL_AREA(#920);
#920=FILL_AREA_STYLE('',(#921));
#921=FILL_AREA_STYLE_COLOUR('',#922);
#922=COLOUR_RGB('',0.647058823529412,0.647058823529412,0.647058823529412);
#923=MANIFOLD_SOLID_BREP('top',#914);
#924=SHAPE_DEFINITION_REPRESENTATION(#1614,#925);
#925=SHAPE_REPRESENTATION('top',(#926),#1609);
#926=AXIS2_PLACEMENT_3D('',#1323,#1041,#1042);
#927=AXIS2_PLACEMENT_3D('',#1324,#1043,#1044);
#928=AXIS2_PLACEMENT_3D('',#1325,#1045,#1046);
#929=AXIS2_PLACEMENT_3D('',#1327,#1047,#1048);
#930=AXIS2_PLACEMENT_3D('',#1329,#1049,#1050);
#931=AXIS2_PLACEMENT_3D('',#1330,#1051,#1052);
#932=AXIS2_PLACEMENT_3D('',#1332,#1053,#1054);
#933=AXIS2_PLACEMENT_3D('',#1334,#1055,#1056);
#934=AXIS2_PLACEMENT_3D('',#1335,#1057,#1058);
#935=AXIS2_PLACEMENT_3D('',#1337,#1059,#1060);
#936=AXIS2_PLACEMENT_3D('',#1339,#1061,#1062);
#937=AXIS2_PLACEMENT_3D('',#1340,#1063,#1064);
#938=AXIS2_PLACEMENT_3D('',#1342,#1065,#1066);
#939=AXIS2_PLACEMENT_3D('',#1344,#1067,#1068);
#940=AXIS2_PLACEMENT_3D('',#1348,#1070,#1071);
#941=AXIS2_PLACEMENT_3D('',#1352,#1073,#1074);
#942=AXIS2_PLACEMENT_3D('',#1353,#1075,#1076);
#943=AXIS2_PLACEMENT_3D('',#1354,#1077,#1078);
#944=AXIS2_PLACEMENT_3D('',#1359,#1080,#1081);
#945=AXIS2_PLACEMENT_3D('',#1362,#1083,#1084);
#946=AXIS2_PLACEMENT_3D('',#1365,#1087,#1088);
#947=AXIS2_PLACEMENT_3D('',#1371,#1092,#1093);
#948=AXIS2_PLACEMENT_3D('',#1380,#1098,#1099);
#949=AXIS2_PLACEMENT_3D('',#1386,#1103,#1104);
#950=AXIS2_PLACEMENT_3D('',#1395,#1109,#1110);
#951=AXIS2_PLACEMENT_3D('',#1399,#1112,#1113);
#952=AXIS2_PLACEMENT_3D('',#1400,#1114,#1115);
#953=AXIS2_PLACEMENT_3D('',#1401,#1116,#1117);
#954=AXIS2_PLACEMENT_3D('',#1407,#1121,#1122);
#955=AXIS2_PLACEMENT_3D('',#1411,#1124,#1125);
#956=AXIS2_PLACEMENT_3D('',#1412,#1126,#1127);
#957=AXIS2_PLACEMENT_3D('',#1413,#1128,#1129);
#958=AXIS2_PLACEMENT_3D('',#1419,#1133,#1134);
#959=AXIS2_PLACEMENT_3D('',#1423,#1136,#1137);
#960=AXIS2_PLACEMENT_3D('',#1424,#1138,#1139);
#961=AXIS2_PLACEMENT_3D('',#1425,#1140,#1141);
#962=AXIS2_PLACEMENT_3D('',#1431,#1145,#1146);
#963=AXIS2_PLACEMENT_3D('',#1432,#1147,#1148);
#964=AXIS2_PLACEMENT_3D('',#1433,#1149,#1150);
#965=AXIS2_PLACEMENT_3D('',#1434,#1151,#1152);
#966=AXIS2_PLACEMENT_3D('',#1435,#1153,#1154);
#967=AXIS2_PLACEMENT_3D('',#1436,#1155,#1156);
#968=AXIS2_PLACEMENT_3D('',#1437,#1157,#1158);
#969=AXIS2_PLACEMENT_3D('',#1438,#1159,#1160);
#970=AXIS2_PLACEMENT_3D('',#1439,#1161,#1162);
#971=AXIS2_PLACEMENT_3D('',#1440,#1163,#1164);
#972=AXIS2_PLACEMENT_3D('',#1441,#1165,#1166);
#973=AXIS2_PLACEMENT_3D('',#1442,#1167,#1168);
#974=AXIS2_PLACEMENT_3D('',#1447,#1170,#1171);
#975=AXIS2_PLACEMENT_3D('',#1451,#1173,#1174);
#976=AXIS2_PLACEMENT_3D('',#1455,#1176,#1177);
#977=AXIS2_PLACEMENT_3D('',#1458,#1179,#1180);
#978=AXIS2_PLACEMENT_3D('',#1460,#1181,#1182);
#979=AXIS2_PLACEMENT_3D('',#1462,#1183,#1184);
#980=AXIS2_PLACEMENT_3D('',#1464,#1185,#1186);
#981=AXIS2_PLACEMENT_3D('',#1466,#1187,#1188);
#982=AXIS2_PLACEMENT_3D('',#1468,#1189,#1190);
#983=AXIS2_PLACEMENT_3D('',#1471,#1192,#1193);
#984=AXIS2_PLACEMENT_3D('',#1474,#1195,#1196);
#985=AXIS2_PLACEMENT_3D('',#1478,#1199,#1200);
#986=AXIS2_PLACEMENT_3D('',#1481,#1202,#1203);
#987=AXIS2_PLACEMENT_3D('',#1482,#1204,#1205);
#988=AXIS2_PLACEMENT_3D('',#1486,#1208,#1209);
#989=AXIS2_PLACEMENT_3D('',#1489,#1211,#1212);
#990=AXIS2_PLACEMENT_3D('',#1490,#1213,#1214);
#991=AXIS2_PLACEMENT_3D('',#1494,#1217,#1218);
#992=AXIS2_PLACEMENT_3D('',#1497,#1220,#1221);
#993=AXIS2_PLACEMENT_3D('',#1498,#1222,#1223);
#994=AXIS2_PLACEMENT_3D('',#1500,#1225,#1226);
#995=AXIS2_PLACEMENT_3D('',#1501,#1227,#1228);
#996=AXIS2_PLACEMENT_3D('',#1503,#1229,#1230);
#997=AXIS2_PLACEMENT_3D('',#1504,#1231,#1232);
#998=AXIS2_PLACEMENT_3D('',#1506,#1233,#1234);
#999=AXIS2_PLACEMENT_3D('',#1507,#1235,#1236);
#1000=AXIS2_PLACEMENT_3D('',#1509,#1237,#1238);
#1001=AXIS2_PLACEMENT_3D('',#1510,#1239,#1240);
#1002=AXIS2_PLACEMENT_3D('',#1512,#1241,#1242);
#1003=AXIS2_PLACEMENT_3D('',#1513,#1243,#1244);
#1004=AXIS2_PLACEMENT_3D('',#1515,#1245,#1246);
#1005=AXIS2_PLACEMENT_3D('',#1516,#1247,#1248);
#1006=AXIS2_PLACEMENT_3D('',#1521,#1250,#1251);
#1007=AXIS2_PLACEMENT_3D('',#1525,#1253,#1254);
#1008=AXIS2_PLACEMENT_3D('',#1529,#1256,#1257);
#1009=AXIS2_PLACEMENT_3D('',#1532,#1259,#1260);
#1010=AXIS2_PLACEMENT_3D('',#1538,#1261,#1262);
#1011=AXIS2_PLACEMENT_3D('',#1539,#1263,#1264);
#1012=AXIS2_PLACEMENT_3D('',#1545,#1265,#1266);
#1013=AXIS2_PLACEMENT_3D('',#1546,#1267,#1268);
#1014=AXIS2_PLACEMENT_3D('',#1548,#1269,#1270);
#1015=AXIS2_PLACEMENT_3D('',#1549,#1271,#1272);
#1016=AXIS2_PLACEMENT_3D('',#1550,#1273,#1274);
#1017=AXIS2_PLACEMENT_3D('',#1552,#1275,#1276);
#1018=AXIS2_PLACEMENT_3D('',#1553,#1277,#1278);
#1019=AXIS2_PLACEMENT_3D('',#1563,#1279,#1280);
#1020=AXIS2_PLACEMENT_3D('',#1564,#1281,#1282);
#1021=AXIS2_PLACEMENT_3D('',#1570,#1283,#1284);
#1022=AXIS2_PLACEMENT_3D('',#1575,#1285,#1286);
#1023=AXIS2_PLACEMENT_3D('',#1576,#1287,#1288);
#1024=AXIS2_PLACEMENT_3D('',#1578,#1289,#1290);
#1025=AXIS2_PLACEMENT_3D('',#1579,#1291,#1292);
#1026=AXIS2_PLACEMENT_3D('',#1580,#1293,#1294);
#1027=AXIS2_PLACEMENT_3D('',#1582,#1295,#1296);
#1028=AXIS2_PLACEMENT_3D('',#1583,#1297,#1298);
#1029=AXIS2_PLACEMENT_3D('',#1592,#1299,#1300);
#1030=AXIS2_PLACEMENT_3D('',#1593,#1301,#1302);
#1031=AXIS2_PLACEMENT_3D('',#1595,#1303,#1304);
#1032=AXIS2_PLACEMENT_3D('',#1596,#1305,#1306);
#1033=AXIS2_PLACEMENT_3D('',#1597,#1307,#1308);
#1034=AXIS2_PLACEMENT_3D('',#1599,#1309,#1310);
#1035=AXIS2_PLACEMENT_3D('',#1600,#1311,#1312);
#1036=AXIS2_PLACEMENT_3D('',#1601,#1313,#1314);
#1037=AXIS2_PLACEMENT_3D('',#1603,#1315,#1316);
#1038=AXIS2_PLACEMENT_3D('',#1604,#1317,#1318);
#1039=AXIS2_PLACEMENT_3D('',#1605,#1319,#1320);
#1040=AXIS2_PLACEMENT_3D('',#1607,#1321,#1322);
#1041=DIRECTION('',(0.,0.,1.));
#1042=DIRECTION('',(1.,0.,0.));
#1043=DIRECTION('',(0.,0.,1.));
#1044=DIRECTION('',(0.,-1.,0.));
#1045=DIRECTION('',(0.,0.,1.));
#1046=DIRECTION('',(0.,-1.,0.));
#1047=DIRECTION('',(0.,0.,1.));
#1048=DIRECTION('',(0.,-1.,0.));
#1049=DIRECTION('',(0.,0.,1.));
#1050=DIRECTION('',(0.,-1.,0.));
#1051=DIRECTION('',(0.,0.,1.));
#1052=DIRECTION('',(0.,-1.,0.));
#1053=DIRECTION('',(0.,0.,1.));
#1054=DIRECTION('',(0.,-1.,0.));
#1055=DIRECTION('',(0.,0.,1.));
#1056=DIRECTION('',(0.,-1.,0.));
#1057=DIRECTION('',(0.,0.,1.));
#1058=DIRECTION('',(0.,-1.,0.));
#1059=DIRECTION('',(0.,0.,1.));
#1060=DIRECTION('',(0.,-1.,0.));
#1061=DIRECTION('',(0.,0.,1.));
#1062=DIRECTION('',(0.,-1.,0.));
#1063=DIRECTION('',(0.,0.,1.));
#1064=DIRECTION('',(0.,-1.,0.));
#1065=DIRECTION('',(0.,0.,1.));
#1066=DIRECTION('',(0.,-1.,0.));
#1067=DIRECTION('',(0.,0.,1.));
#1068=DIRECTION('',(0.,-1.,0.));
#1069=DIRECTION('',(0.,0.,1.));
#1070=DIRECTION('',(0.,0.,1.));
#1071=DIRECTION('',(0.,-1.,0.));
#1072=DIRECTION('',(0.,0.,1.));
#1073=DIRECTION('',(0.,0.,-1.));
#1074=DIRECTION('',(0.,-1.,0.));
#1075=DIRECTION('',(0.,0.,1.));
#1076=DIRECTION('',(0.,-1.,0.));
#1077=DIRECTION('',(0.,0.,1.));
#1078=DIRECTION('',(0.,-1.,0.));
#1079=DIRECTION('',(0.,0.,1.));
#1080=DIRECTION('',(0.,0.,1.));
#1081=DIRECTION('',(0.,-1.,0.));
#1082=DIRECTION('',(0.,0.,1.));
#1083=DIRECTION('',(5.27785100929489E-16,-1.,0.));
#1084=DIRECTION('',(-1.,-5.27785100929489E-16,0.));
#1085=DIRECTION('',(-1.,-5.27785100929489E-16,0.));
#1086=DIRECTION('',(1.,5.27785100929489E-16,0.));
#1087=DIRECTION('',(-1.,-2.38554098165506E-16,0.));
#1088=DIRECTION('',(-2.38554098165506E-16,1.,0.));
#1089=DIRECTION('',(-2.38554098165506E-16,1.,0.));
#1090=DIRECTION('',(2.38554098165506E-16,-1.,0.));
#1091=DIRECTION('',(0.,0.,-1.));
#1092=DIRECTION('',(0.,-1.,0.));
#1093=DIRECTION('',(-1.,0.,0.));
#1094=DIRECTION('',(-1.,0.,0.));
#1095=DIRECTION('',(0.,0.,-1.));
#1096=DIRECTION('',(1.,0.,0.));
#1097=DIRECTION('',(0.,0.,-1.));
#1098=DIRECTION('',(-1.,-1.19277049082753E-16,0.));
#1099=DIRECTION('',(-1.19277049082753E-16,1.,0.));
#1100=DIRECTION('',(-1.19277049082753E-16,1.,0.));
#1101=DIRECTION('',(0.,0.,-1.));
#1102=DIRECTION('',(1.19277049082753E-16,-1.,0.));
#1103=DIRECTION('',(-1.,-5.7656341677247E-17,0.));
#1104=DIRECTION('',(-5.7656341677247E-17,1.,0.));
#1105=DIRECTION('',(0.,0.,1.));
#1106=DIRECTION('',(5.7656341677247E-17,-1.,0.));
#1107=DIRECTION('',(0.,0.,1.));
#1108=DIRECTION('',(-5.7656341677247E-17,1.,0.));
#1109=DIRECTION('',(0.,0.,1.));
#1110=DIRECTION('',(0.,-1.,0.));
#1111=DIRECTION('',(0.,0.,1.));
#1112=DIRECTION('',(0.,0.,1.));
#1113=DIRECTION('',(0.,-1.,0.));
#1114=DIRECTION('',(0.,0.,1.));
#1115=DIRECTION('',(0.,-1.,0.));
#1116=DIRECTION('',(0.,-1.,0.));
#1117=DIRECTION('',(-1.,0.,0.));
#1118=DIRECTION('',(0.,0.,1.));
#1119=DIRECTION('',(1.,0.,0.));
#1120=DIRECTION('',(-1.,0.,0.));
#1121=DIRECTION('',(0.,0.,-1.));
#1122=DIRECTION('',(0.,1.,0.));
#1123=DIRECTION('',(0.,0.,1.));
#1124=DIRECTION('',(0.,0.,1.));
#1125=DIRECTION('',(0.,-1.,0.));
#1126=DIRECTION('',(0.,0.,1.));
#1127=DIRECTION('',(0.,-1.,0.));
#1128=DIRECTION('',(-1.,0.,0.));
#1129=DIRECTION('',(0.,1.,0.));
#1130=DIRECTION('',(0.,0.,1.));
#1131=DIRECTION('',(0.,-1.,0.));
#1132=DIRECTION('',(0.,1.,0.));
#1133=DIRECTION('',(0.,0.,1.));
#1134=DIRECTION('',(0.,-1.,0.));
#1135=DIRECTION('',(0.,0.,1.));
#1136=DIRECTION('',(0.,0.,1.));
#1137=DIRECTION('',(0.,-1.,0.));
#1138=DIRECTION('',(0.,0.,1.));
#1139=DIRECTION('',(0.,-1.,0.));
#1140=DIRECTION('',(0.,-1.,0.));
#1141=DIRECTION('',(-1.,0.,0.));
#1142=DIRECTION('',(0.,0.,1.));
#1143=DIRECTION('',(1.,0.,0.));
#1144=DIRECTION('',(-1.,0.,0.));
#1145=DIRECTION('',(0.,0.,-1.));
#1146=DIRECTION('',(0.,1.,0.));
#1147=DIRECTION('',(0.,0.,1.));
#1148=DIRECTION('',(0.,-1.,0.));
#1149=DIRECTION('',(0.,0.,1.));
#1150=DIRECTION('',(0.,-1.,0.));
#1151=DIRECTION('',(0.,0.,1.));
#1152=DIRECTION('',(1.,0.,0.));
#1153=DIRECTION('',(0.,0.,-1.));
#1154=DIRECTION('',(0.,-1.,0.));
#1155=DIRECTION('',(0.,0.,1.));
#1156=DIRECTION('',(0.,-1.,0.));
#1157=DIRECTION('',(0.,0.,-1.));
#1158=DIRECTION('',(0.,1.,0.));
#1159=DIRECTION('',(0.,0.,1.));
#1160=DIRECTION('',(0.,-1.,0.));
#1161=DIRECTION('',(0.,0.,-1.));
#1162=DIRECTION('',(0.,1.,0.));
#1163=DIRECTION('',(0.,0.,-1.));
#1164=DIRECTION('',(0.,-1.,0.));
#1165=DIRECTION('',(0.,0.,1.));
#1166=DIRECTION('',(1.,0.,0.));
#1167=DIRECTION('',(0.,0.,-1.));
#1168=DIRECTION('',(0.,-1.,0.));
#1169=DIRECTION('',(0.,1.,0.));
#1170=DIRECTION('',(0.,0.,-1.));
#1171=DIRECTION('',(0.,-1.,0.));
#1172=DIRECTION('',(1.,3.54025199178941E-16,0.));
#1173=DIRECTION('',(0.,0.,1.));
#1174=DIRECTION('',(0.,-1.,0.));
#1175=DIRECTION('',(0.,1.,0.));
#1176=DIRECTION('',(0.,0.,-1.));
#1177=DIRECTION('',(0.,-1.,0.));
#1178=DIRECTION('',(-1.,0.,0.));
#1179=DIRECTION('',(0.,0.,1.));
#1180=DIRECTION('',(0.,-1.,0.));
#1181=DIRECTION('',(0.,0.,1.));
#1182=DIRECTION('',(0.,-1.,0.));
#1183=DIRECTION('',(0.,0.,1.));
#1184=DIRECTION('',(0.,-1.,0.));
#1185=DIRECTION('',(0.,0.,1.));
#1186=DIRECTION('',(0.,-1.,0.));
#1187=DIRECTION('',(0.,0.,1.));
#1188=DIRECTION('',(0.,-1.,0.));
#1189=DIRECTION('',(0.,0.,-1.));
#1190=DIRECTION('',(0.,1.,0.));
#1191=DIRECTION('',(0.,0.,-1.));
#1192=DIRECTION('',(0.,0.,-1.));
#1193=DIRECTION('',(0.,-1.,0.));
#1194=DIRECTION('',(0.,0.,-1.));
#1195=DIRECTION('',(0.,-1.,0.));
#1196=DIRECTION('',(-1.,0.,0.));
#1197=DIRECTION('',(0.,0.,-1.));
#1198=DIRECTION('',(-1.,0.,0.));
#1199=DIRECTION('',(0.,0.,-1.));
#1200=DIRECTION('',(0.,1.,0.));
#1201=DIRECTION('',(0.,0.,-1.));
#1202=DIRECTION('',(0.,0.,-1.));
#1203=DIRECTION('',(0.,-1.,0.));
#1204=DIRECTION('',(-1.,0.,0.));
#1205=DIRECTION('',(0.,1.,0.));
#1206=DIRECTION('',(0.,0.,-1.));
#1207=DIRECTION('',(0.,1.,0.));
#1208=DIRECTION('',(0.,0.,-1.));
#1209=DIRECTION('',(0.,1.,0.));
#1210=DIRECTION('',(0.,0.,-1.));
#1211=DIRECTION('',(0.,0.,1.));
#1212=DIRECTION('',(0.,-1.,0.));
#1213=DIRECTION('',(-3.54025199178941E-16,1.,0.));
#1214=DIRECTION('',(1.,3.54025199178941E-16,0.));
#1215=DIRECTION('',(0.,0.,-1.));
#1216=DIRECTION('',(1.,3.54025199178941E-16,0.));
#1217=DIRECTION('',(0.,0.,-1.));
#1218=DIRECTION('',(0.,1.,0.));
#1219=DIRECTION('',(0.,0.,-1.));
#1220=DIRECTION('',(0.,0.,-1.));
#1221=DIRECTION('',(0.,-1.,0.));
#1222=DIRECTION('',(-1.,0.,0.));
#1223=DIRECTION('',(0.,1.,0.));
#1224=DIRECTION('',(0.,1.,0.));
#1225=DIRECTION('',(0.,0.,-1.));
#1226=DIRECTION('',(0.,1.,0.));
#1227=DIRECTION('',(0.,0.,1.));
#1228=DIRECTION('',(0.,-1.,0.));
#1229=DIRECTION('',(0.,0.,-1.));
#1230=DIRECTION('',(0.,1.,0.));
#1231=DIRECTION('',(0.,0.,1.));
#1232=DIRECTION('',(0.,-1.,0.));
#1233=DIRECTION('',(0.,0.,-1.));
#1234=DIRECTION('',(0.,1.,0.));
#1235=DIRECTION('',(0.,0.,1.));
#1236=DIRECTION('',(0.,-1.,0.));
#1237=DIRECTION('',(0.,0.,-1.));
#1238=DIRECTION('',(0.,1.,0.));
#1239=DIRECTION('',(0.,0.,1.));
#1240=DIRECTION('',(0.,-1.,0.));
#1241=DIRECTION('',(0.,0.,-1.));
#1242=DIRECTION('',(0.,1.,0.));
#1243=DIRECTION('',(0.,0.,1.));
#1244=DIRECTION('',(0.,-1.,0.));
#1245=DIRECTION('',(0.,0.,1.));
#1246=DIRECTION('',(1.,0.,0.));
#1247=DIRECTION('',(0.,0.,1.));
#1248=DIRECTION('',(0.,-1.,0.));
#1249=DIRECTION('',(1.,0.,0.));
#1250=DIRECTION('',(0.,0.,1.));
#1251=DIRECTION('',(0.,-1.,0.));
#1252=DIRECTION('',(0.,-1.,0.));
#1253=DIRECTION('',(0.,0.,1.));
#1254=DIRECTION('',(0.,-1.,0.));
#1255=DIRECTION('',(1.,0.,0.));
#1256=DIRECTION('',(0.,0.,1.));
#1257=DIRECTION('',(0.,-1.,0.));
#1258=DIRECTION('',(5.7656341677247E-17,-1.,0.));
#1259=DIRECTION('',(-1.,0.,0.));
#1260=DIRECTION('',(0.,1.,0.));
#1261=DIRECTION('',(1.,0.,0.));
#1262=DIRECTION('',(0.,-1.,0.));
#1263=DIRECTION('',(-1.,0.,0.));
#1264=DIRECTION('',(0.,1.,0.));
#1265=DIRECTION('',(0.,0.,1.));
#1266=DIRECTION('',(0.,-1.,0.));
#1267=DIRECTION('',(0.,0.,-1.));
#1268=DIRECTION('',(0.,1.,0.));
#1269=DIRECTION('',(0.,-1.,0.));
#1270=DIRECTION('',(-1.,0.,0.));
#1271=DIRECTION('',(0.,0.,1.));
#1272=DIRECTION('',(0.,-1.,0.));
#1273=DIRECTION('',(0.,0.,-1.));
#1274=DIRECTION('',(0.,1.,0.));
#1275=DIRECTION('',(0.,-1.,0.));
#1276=DIRECTION('',(-1.,0.,0.));
#1277=DIRECTION('',(5.7656341677247E-17,-1.,0.));
#1278=DIRECTION('',(-1.,-5.7656341677247E-17,0.));
#1279=DIRECTION('',(0.,-1.,0.));
#1280=DIRECTION('',(-1.,0.,0.));
#1281=DIRECTION('',(0.,1.,0.));
#1282=DIRECTION('',(1.,0.,0.));
#1283=DIRECTION('',(0.,-1.,0.));
#1284=DIRECTION('',(-1.,0.,0.));
#1285=DIRECTION('',(0.,0.,1.));
#1286=DIRECTION('',(0.,-1.,0.));
#1287=DIRECTION('',(0.,0.,-1.));
#1288=DIRECTION('',(0.,1.,0.));
#1289=DIRECTION('',(1.,0.,0.));
#1290=DIRECTION('',(0.,-1.,0.));
#1291=DIRECTION('',(0.,0.,1.));
#1292=DIRECTION('',(0.,-1.,0.));
#1293=DIRECTION('',(0.,0.,-1.));
#1294=DIRECTION('',(0.,1.,0.));
#1295=DIRECTION('',(-1.,0.,0.));
#1296=DIRECTION('',(0.,1.,0.));
#1297=DIRECTION('',(1.,0.,0.));
#1298=DIRECTION('',(0.,-1.,0.));
#1299=DIRECTION('',(0.,0.,1.));
#1300=DIRECTION('',(1.,0.,0.));
#1301=DIRECTION('',(0.,0.,1.));
#1302=DIRECTION('',(0.,-1.,0.));
#1303=DIRECTION('',(0.,0.,1.));
#1304=DIRECTION('',(0.,-1.,0.));
#1305=DIRECTION('',(0.,0.,1.));
#1306=DIRECTION('',(1.,0.,0.));
#1307=DIRECTION('',(0.,0.,1.));
#1308=DIRECTION('',(0.,-1.,0.));
#1309=DIRECTION('',(0.,0.,1.));
#1310=DIRECTION('',(0.,-1.,0.));
#1311=DIRECTION('',(0.,0.,1.));
#1312=DIRECTION('',(1.,0.,0.));
#1313=DIRECTION('',(0.,0.,1.));
#1314=DIRECTION('',(0.,-1.,0.));
#1315=DIRECTION('',(0.,0.,1.));
#1316=DIRECTION('',(0.,-1.,0.));
#1317=DIRECTION('',(0.,0.,1.));
#1318=DIRECTION('',(1.,0.,0.));
#1319=DIRECTION('',(0.,0.,1.));
#1320=DIRECTION('',(0.,-1.,0.));
#1321=DIRECTION('',(0.,0.,1.));
#1322=DIRECTION('',(0.,-1.,0.));
#1323=CARTESIAN_POINT('',(0.,0.,0.));
#1324=CARTESIAN_POINT('',(0.030960812,-0.160799188,-0.00849));
#1325=CARTESIAN_POINT('',(0.030960812,-0.160799188,0.00381));
#1326=CARTESIAN_POINT('',(0.030960812,-0.161799188,0.00381));
#1327=CARTESIAN_POINT('',(0.030960812,-0.160799188,0.00471));
#1328=CARTESIAN_POINT('',(0.030960812,-0.161799188,0.00471));
#1329=CARTESIAN_POINT('',(0.083549594,-0.160799188,-0.00849));
#1330=CARTESIAN_POINT('',(0.083549594,-0.160799188,0.00381));
#1331=CARTESIAN_POINT('',(0.083549594,-0.161799188,0.00381));
#1332=CARTESIAN_POINT('',(0.083549594,-0.160799188,0.00471));
#1333=CARTESIAN_POINT('',(0.083549594,-0.161799188,0.00471));
#1334=CARTESIAN_POINT('',(0.083549594,-0.04445,-0.00849));
#1335=CARTESIAN_POINT('',(0.083549594,-0.04445,0.00381));
#1336=CARTESIAN_POINT('',(0.083549594,-0.04545,0.00381));
#1337=CARTESIAN_POINT('',(0.083549594,-0.04445,0.00471));
#1338=CARTESIAN_POINT('',(0.083549594,-0.04545,0.00471));
#1339=CARTESIAN_POINT('',(0.030960812,-0.04445,-0.00849));
#1340=CARTESIAN_POINT('',(0.030960812,-0.04445,0.00381));
#1341=CARTESIAN_POINT('',(0.030960812,-0.04545,0.00381));
#1342=CARTESIAN_POINT('',(0.030960812,-0.04445,0.00471));
#1343=CARTESIAN_POINT('',(0.030960812,-0.04545,0.00471));
#1344=CARTESIAN_POINT('',(0.030960812,-0.160799188,-0.00849));
#1345=CARTESIAN_POINT('',(0.033760812,-0.160799188,-0.00849));
#1346=CARTESIAN_POINT('',(0.033760812,-0.160799188,0.00381));
#1347=CARTESIAN_POINT('',(0.033760812,-0.160799188,0.00401));
#1348=CARTESIAN_POINT('',(0.030960812,-0.160799188,0.00381));
#1349=CARTESIAN_POINT('',(0.030960812,-0.157999188,0.00381));
#1350=CARTESIAN_POINT('',(0.030960812,-0.157999188,-0.00849));
#1351=CARTESIAN_POINT('',(0.030960812,-0.157999188,0.00401));
#1352=CARTESIAN_POINT('',(0.030960812,-0.160799188,0.00401));
#1353=CARTESIAN_POINT('',(0.083549594,-0.160799188,-0.00849));
#1354=CARTESIAN_POINT('',(0.083549594,-0.160799188,0.00381));
#1355=CARTESIAN_POINT('',(0.080749594,-0.160799188,0.00381));
#1356=CARTESIAN_POINT('',(0.083549594,-0.157999188,0.00381));
#1357=CARTESIAN_POINT('',(0.080749594,-0.160799188,-0.00849));
#1358=CARTESIAN_POINT('',(0.080749594,-0.160799188,0.00401));
#1359=CARTESIAN_POINT('',(0.083549594,-0.160799188,0.00401));
#1360=CARTESIAN_POINT('',(0.083549594,-0.157999188,0.00401));
#1361=CARTESIAN_POINT('',(0.083549594,-0.157999188,-0.00849));
#1362=CARTESIAN_POINT('',(0.057255203,-0.160799188,-0.00849));
#1363=CARTESIAN_POINT('',(0.057255203,-0.160799188,0.00381));
#1364=CARTESIAN_POINT('',(0.057255203,-0.160799188,0.00401));
#1365=CARTESIAN_POINT('',(0.083549594,-0.102624594,-0.00849));
#1366=CARTESIAN_POINT('',(0.083549594,-0.102624594,0.00381));
#1367=CARTESIAN_POINT('',(0.083549594,-0.04605,0.00381));
#1368=CARTESIAN_POINT('',(0.083549594,-0.102624594,0.00401));
#1369=CARTESIAN_POINT('',(0.083549594,-0.04605,0.00401));
#1370=CARTESIAN_POINT('',(0.083549594,-0.04605,0.00401));
#1371=CARTESIAN_POINT('',(0.057255203,-0.04445,-0.00849));
#1372=CARTESIAN_POINT('',(0.057255203,-0.04445,0.00381));
#1373=CARTESIAN_POINT('',(0.081949594,-0.04445,0.00381));
#1374=CARTESIAN_POINT('',(0.032560812,-0.04445,0.00381));
#1375=CARTESIAN_POINT('',(0.081949594,-0.04445,0.00401));
#1376=CARTESIAN_POINT('',(0.081949594,-0.04445,0.00401));
#1377=CARTESIAN_POINT('',(0.057255203,-0.04445,0.00401));
#1378=CARTESIAN_POINT('',(0.032560812,-0.04445,0.00401));
#1379=CARTESIAN_POINT('',(0.032560812,-0.04445,0.00401));
#1380=CARTESIAN_POINT('',(0.030960812,-0.102624594,-0.00849));
#1381=CARTESIAN_POINT('',(0.030960812,-0.102624594,0.00381));
#1382=CARTESIAN_POINT('',(0.030960812,-0.04605,0.00381));
#1383=CARTESIAN_POINT('',(0.030960812,-0.04605,0.00401));
#1384=CARTESIAN_POINT('',(0.030960812,-0.04605,0.00401));
#1385=CARTESIAN_POINT('',(0.030960812,-0.102624594,0.00401));
#1386=CARTESIAN_POINT('',(0.028960812,-0.102624594,-0.00849));
#1387=CARTESIAN_POINT('',(0.028960812,-0.160799188,-0.00849));
#1388=CARTESIAN_POINT('',(0.028960812,-0.160799188,0.00381));
#1389=CARTESIAN_POINT('',(0.028960812,-0.160799188,0.00501));
#1390=CARTESIAN_POINT('',(0.028960812,-0.102624594,0.00501));
#1391=CARTESIAN_POINT('',(0.028960812,-0.04445,0.00501));
#1392=CARTESIAN_POINT('',(0.028960812,-0.04445,-0.01049));
#1393=CARTESIAN_POINT('',(0.028960812,-0.04445,0.00381));
#1394=CARTESIAN_POINT('',(0.028960812,-0.102624594,0.00381));
#1395=CARTESIAN_POINT('',(0.030960812,-0.160799188,-0.00849));
#1396=CARTESIAN_POINT('',(0.030960812,-0.162799188,-0.00849));
#1397=CARTESIAN_POINT('',(0.030960812,-0.162799188,0.00501));
#1398=CARTESIAN_POINT('',(0.030960812,-0.162799188,0.00381));
#1399=CARTESIAN_POINT('',(0.030960812,-0.160799188,0.00501));
#1400=CARTESIAN_POINT('',(0.030960812,-0.160799188,0.00381));
#1401=CARTESIAN_POINT('',(0.057255203,-0.162799188,-0.00849));
#1402=CARTESIAN_POINT('',(0.083549594,-0.162799188,0.00151));
#1403=CARTESIAN_POINT('',(0.083549594,-0.162799188,0.00381));
#1404=CARTESIAN_POINT('',(0.083549594,-0.162799188,0.00501));
#1405=CARTESIAN_POINT('',(0.057255203,-0.162799188,0.00501));
#1406=CARTESIAN_POINT('',(0.057255203,-0.162799188,0.00381));
#1407=CARTESIAN_POINT('',(0.083549594,-0.160799188,-0.00849));
#1408=CARTESIAN_POINT('',(0.085549594,-0.160799188,-0.01049));
#1409=CARTESIAN_POINT('',(0.085549594,-0.160799188,0.00501));
#1410=CARTESIAN_POINT('',(0.085549594,-0.160799188,0.00381));
#1411=CARTESIAN_POINT('',(0.083549594,-0.160799188,0.00501));
#1412=CARTESIAN_POINT('',(0.083549594,-0.160799188,0.00381));
#1413=CARTESIAN_POINT('',(0.085549594,-0.102624594,-0.00849));
#1414=CARTESIAN_POINT('',(0.085549594,-0.04445,-0.00849));
#1415=CARTESIAN_POINT('',(0.085549594,-0.04445,0.00381));
#1416=CARTESIAN_POINT('',(0.085549594,-0.04445,0.00501));
#1417=CARTESIAN_POINT('',(0.085549594,-0.160799188,0.00501));
#1418=CARTESIAN_POINT('',(0.085549594,-0.102624594,0.00381));
#1419=CARTESIAN_POINT('',(0.083549594,-0.04445,-0.00849));
#1420=CARTESIAN_POINT('',(0.083549594,-0.04245,-0.00849));
#1421=CARTESIAN_POINT('',(0.083549594,-0.04245,0.00501));
#1422=CARTESIAN_POINT('',(0.083549594,-0.04245,0.00381));
#1423=CARTESIAN_POINT('',(0.083549594,-0.04445,0.00501));
#1424=CARTESIAN_POINT('',(0.083549594,-0.04445,0.00381));
#1425=CARTESIAN_POINT('',(0.057255203,-0.04245,-0.00849));
#1426=CARTESIAN_POINT('',(0.030960812,-0.04245,0.00151));
#1427=CARTESIAN_POINT('',(0.030960812,-0.04245,0.00381));
#1428=CARTESIAN_POINT('',(0.030960812,-0.04245,0.00501));
#1429=CARTESIAN_POINT('',(0.083549594,-0.04245,0.00501));
#1430=CARTESIAN_POINT('',(0.057255203,-0.04245,0.00381));
#1431=CARTESIAN_POINT('',(0.030960812,-0.04445,-0.00849));
#1432=CARTESIAN_POINT('',(0.030960812,-0.04445,0.00501));
#1433=CARTESIAN_POINT('',(0.030960812,-0.04445,0.00381));
#1434=CARTESIAN_POINT('',(0.0572493727635004,-0.0803470065970883,0.00381));
#1435=CARTESIAN_POINT('',(0.030960812,-0.04445,0.00381));
#1436=CARTESIAN_POINT('',(0.083549594,-0.04445,0.00381));
#1437=CARTESIAN_POINT('',(0.083549594,-0.04445,0.00401));
#1438=CARTESIAN_POINT('',(0.083549594,-0.04445,0.00401));
#1439=CARTESIAN_POINT('',(0.030960812,-0.04445,0.00401));
#1440=CARTESIAN_POINT('',(0.030960812,-0.04445,0.00401));
#1441=CARTESIAN_POINT('',(0.057255203,-0.102624594,0.00401));
#1442=CARTESIAN_POINT('',(0.0768493727635004,-0.104179006597088,0.00401));
#1443=CARTESIAN_POINT('',(0.0788493727635004,-0.104179006597088,0.00401));
#1444=CARTESIAN_POINT('',(0.0768493727635004,-0.106179006597088,0.00401));
#1445=CARTESIAN_POINT('',(0.0788493727635004,-0.0773780065970883,0.00401));
#1446=CARTESIAN_POINT('',(0.0788493727635004,-0.0505770065970883,0.00401));
#1447=CARTESIAN_POINT('',(0.0768493727635004,-0.0505770065970883,0.00401));
#1448=CARTESIAN_POINT('',(0.0768493727635004,-0.0485770065970883,0.00401));
#1449=CARTESIAN_POINT('',(0.0572493727635004,-0.0485770065970883,0.00401));
#1450=CARTESIAN_POINT('',(0.0376493727635004,-0.0485770065970883,0.00401));
#1451=CARTESIAN_POINT('',(0.0376493727635004,-0.0505770065970883,0.00401));
#1452=CARTESIAN_POINT('',(0.0356493727635004,-0.0505770065970883,0.00401));
#1453=CARTESIAN_POINT('',(0.0356493727635004,-0.0773780065970883,0.00401));
#1454=CARTESIAN_POINT('',(0.0356493727635004,-0.104179006597088,0.00401));
#1455=CARTESIAN_POINT('',(0.0376493727635004,-0.104179006597088,0.00401));
#1456=CARTESIAN_POINT('',(0.0376493727635004,-0.106179006597088,0.00401));
#1457=CARTESIAN_POINT('',(0.0572493727635004,-0.106179006597088,0.00401));
#1458=CARTESIAN_POINT('',(0.05723,-0.14972,0.00401));
#1459=CARTESIAN_POINT('',(0.05723,-0.15547,0.00401));
#1460=CARTESIAN_POINT('',(0.07043,-0.13655,0.00401));
#1461=CARTESIAN_POINT('',(0.07043,-0.1423,0.00401));
#1462=CARTESIAN_POINT('',(0.05723,-0.12334,0.00401));
#1463=CARTESIAN_POINT('',(0.05723,-0.12909,0.00401));
#1464=CARTESIAN_POINT('',(0.05723,-0.13655,0.00401));
#1465=CARTESIAN_POINT('',(0.05723,-0.1423,0.00401));
#1466=CARTESIAN_POINT('',(0.04403,-0.13655,0.00401));
#1467=CARTESIAN_POINT('',(0.04403,-0.1423,0.00401));
#1468=CARTESIAN_POINT('',(0.0768493727635004,-0.104179006597088,0.00601));
#1469=CARTESIAN_POINT('',(0.0768493727635004,-0.106179006597088,0.00601));
#1470=CARTESIAN_POINT('',(0.0768493727635004,-0.106179006597088,0.00601));
#1471=CARTESIAN_POINT('',(0.0768493727635004,-0.104179006597088,0.00601));
#1472=CARTESIAN_POINT('',(0.0788493727635004,-0.104179006597088,0.00601));
#1473=CARTESIAN_POINT('',(0.0788493727635004,-0.104179006597088,0.00601));
#1474=CARTESIAN_POINT('',(0.0572493727635004,-0.106179006597088,0.00601));
#1475=CARTESIAN_POINT('',(0.0376493727635004,-0.106179006597088,0.00601));
#1476=CARTESIAN_POINT('',(0.0376493727635004,-0.106179006597088,0.00601));
#1477=CARTESIAN_POINT('',(0.0572493727635004,-0.106179006597088,0.00601));
#1478=CARTESIAN_POINT('',(0.0376493727635004,-0.104179006597088,0.00601));
#1479=CARTESIAN_POINT('',(0.0356493727635004,-0.104179006597088,0.00601));
#1480=CARTESIAN_POINT('',(0.0356493727635004,-0.104179006597088,0.00601));
#1481=CARTESIAN_POINT('',(0.0376493727635004,-0.104179006597088,0.00601));
#1482=CARTESIAN_POINT('',(0.0356493727635004,-0.0773780065970883,0.00601));
#1483=CARTESIAN_POINT('',(0.0356493727635004,-0.0505770065970883,0.00601));
#1484=CARTESIAN_POINT('',(0.0356493727635004,-0.0505770065970883,0.00601));
#1485=CARTESIAN_POINT('',(0.0356493727635004,-0.0773780065970883,0.00601));
#1486=CARTESIAN_POINT('',(0.0376493727635004,-0.0505770065970883,0.00601));
#1487=CARTESIAN_POINT('',(0.0376493727635004,-0.0485770065970883,0.00601));
#1488=CARTESIAN_POINT('',(0.0376493727635004,-0.0485770065970883,0.00601));
#1489=CARTESIAN_POINT('',(0.0376493727635004,-0.0505770065970883,0.00601));
#1490=CARTESIAN_POINT('',(0.0572493727635004,-0.0485770065970883,0.00601));
#1491=CARTESIAN_POINT('',(0.0768493727635004,-0.0485770065970883,0.00601));
#1492=CARTESIAN_POINT('',(0.0768493727635004,-0.0485770065970883,0.00601));
#1493=CARTESIAN_POINT('',(0.0572493727635004,-0.0485770065970883,0.00601));
#1494=CARTESIAN_POINT('',(0.0768493727635004,-0.0505770065970883,0.00601));
#1495=CARTESIAN_POINT('',(0.0788493727635004,-0.0505770065970883,0.00601));
#1496=CARTESIAN_POINT('',(0.0788493727635004,-0.0505770065970883,0.00601));
#1497=CARTESIAN_POINT('',(0.0768493727635004,-0.0505770065970883,0.00601));
#1498=CARTESIAN_POINT('',(0.0788493727635004,-0.0773780065970883,0.00601));
#1499=CARTESIAN_POINT('',(0.0788493727635004,-0.0773780065970883,0.00601));
#1500=CARTESIAN_POINT('',(0.05723,-0.14972,0.00601));
#1501=CARTESIAN_POINT('',(0.05723,-0.14972,0.00601));
#1502=CARTESIAN_POINT('',(0.05723,-0.15547,0.00601));
#1503=CARTESIAN_POINT('',(0.07043,-0.13655,0.00601));
#1504=CARTESIAN_POINT('',(0.07043,-0.13655,0.00601));
#1505=CARTESIAN_POINT('',(0.07043,-0.1423,0.00601));
#1506=CARTESIAN_POINT('',(0.05723,-0.12334,0.00601));
#1507=CARTESIAN_POINT('',(0.05723,-0.12334,0.00601));
#1508=CARTESIAN_POINT('',(0.05723,-0.12909,0.00601));
#1509=CARTESIAN_POINT('',(0.05723,-0.13655,0.00601));
#1510=CARTESIAN_POINT('',(0.05723,-0.13655,0.00601));
#1511=CARTESIAN_POINT('',(0.05723,-0.1423,0.00601));
#1512=CARTESIAN_POINT('',(0.04403,-0.13655,0.00601));
#1513=CARTESIAN_POINT('',(0.04403,-0.13655,0.00601));
#1514=CARTESIAN_POINT('',(0.04403,-0.1423,0.00601));
#1515=CARTESIAN_POINT('',(0.057255203,-0.102624594,0.00601));
#1516=CARTESIAN_POINT('',(0.030960812,-0.160799188,0.00601));
#1517=CARTESIAN_POINT('',(0.0323969526616345,-0.161799188,0.00601));
#1518=CARTESIAN_POINT('',(0.029960812,-0.159363047338366,0.00601));
#1519=CARTESIAN_POINT('',(0.057255203,-0.161799188,0.00601));
#1520=CARTESIAN_POINT('',(0.0821134533383655,-0.161799188,0.00601));
#1521=CARTESIAN_POINT('',(0.083549594,-0.160799188,0.00601));
#1522=CARTESIAN_POINT('',(0.084549594,-0.159363047338366,0.00601));
#1523=CARTESIAN_POINT('',(0.084549594,-0.04445,0.00601));
#1524=CARTESIAN_POINT('',(0.084549594,-0.0458861406616345,0.00601));
#1525=CARTESIAN_POINT('',(0.083549594,-0.04445,0.00601));
#1526=CARTESIAN_POINT('',(0.0821134533383655,-0.04345,0.00601));
#1527=CARTESIAN_POINT('',(0.030960812,-0.04345,0.00601));
#1528=CARTESIAN_POINT('',(0.0323969526616345,-0.04345,0.00601));
#1529=CARTESIAN_POINT('',(0.030960812,-0.04445,0.00601));
#1530=CARTESIAN_POINT('',(0.029960812,-0.0458861406616345,0.00601));
#1531=CARTESIAN_POINT('',(0.029960812,-0.102624594,0.00601));
#1532=CARTESIAN_POINT('',(0.057255203,-0.04345,0.00501));
#1533=CARTESIAN_POINT('',(0.083549594,-0.0427,0.00567143782776615));
#1534=CARTESIAN_POINT('',(0.0829668428494296,-0.0427,0.00567143782776615));
#1535=CARTESIAN_POINT('',(0.0824457900730082,-0.0429727177020247,0.00601));
#1536=CARTESIAN_POINT('',(0.0821134533383655,-0.04345,0.00601));
#1537=CARTESIAN_POINT('',(0.083549594,-0.0427,0.00567143782776615));
#1538=CARTESIAN_POINT('',(0.083549594,-0.04345,0.00501));
#1539=CARTESIAN_POINT('',(0.030960812,-0.04345,0.00501));
#1540=CARTESIAN_POINT('',(0.030960812,-0.0427,0.00567143782776615));
#1541=CARTESIAN_POINT('',(0.0323969526616345,-0.04345,0.00601));
#1542=CARTESIAN_POINT('',(0.0320640820458404,-0.0429719509735948,0.00601));
#1543=CARTESIAN_POINT('',(0.03154227571037,-0.0427,0.00567143782776616));
#1544=CARTESIAN_POINT('',(0.030960812,-0.0427,0.00567143782776616));
#1545=CARTESIAN_POINT('',(0.030960812,-0.04445,0.00501));
#1546=CARTESIAN_POINT('',(0.030960812,-0.04445,0.00567143782776615));
#1547=CARTESIAN_POINT('',(0.029210812,-0.04445,0.00567143782776614));
#1548=CARTESIAN_POINT('',(0.029960812,-0.04445,0.00501));
#1549=CARTESIAN_POINT('',(0.083549594,-0.04445,0.00501));
#1550=CARTESIAN_POINT('',(0.083549594,-0.04445,0.00567143782776615));
#1551=CARTESIAN_POINT('',(0.085299594,-0.04445,0.00567143782776616));
#1552=CARTESIAN_POINT('',(0.084549594,-0.04445,0.00501));
#1553=CARTESIAN_POINT('',(0.029960812,-0.102624594,0.00501));
#1554=CARTESIAN_POINT('',(0.029960812,-0.159363047338366,0.00601));
#1555=CARTESIAN_POINT('',(0.0294827629735948,-0.15969591795416,0.00601));
#1556=CARTESIAN_POINT('',(0.029210812,-0.16021772428963,0.00567143782776615));
#1557=CARTESIAN_POINT('',(0.029210812,-0.160799188,0.00567143782776615));
#1558=CARTESIAN_POINT('',(0.029210812,-0.160799188,0.00567143782776615));
#1559=CARTESIAN_POINT('',(0.029210812,-0.04445,0.00567143782776614));
#1560=CARTESIAN_POINT('',(0.029210812,-0.0450327511505705,0.00567143782776614));
#1561=CARTESIAN_POINT('',(0.0294835297020247,-0.0455538039269918,0.00601));
#1562=CARTESIAN_POINT('',(0.029960812,-0.0458861406616345,0.00601));
#1563=CARTESIAN_POINT('',(0.029960812,-0.160799188,0.00501));
#1564=CARTESIAN_POINT('',(0.084549594,-0.102624594,0.00501));
#1565=CARTESIAN_POINT('',(0.085299594,-0.160799188,0.00567143782776613));
#1566=CARTESIAN_POINT('',(0.085299594,-0.16021643684943,0.00567143782776613));
#1567=CARTESIAN_POINT('',(0.0850268762979753,-0.159695384073008,0.00601));
#1568=CARTESIAN_POINT('',(0.084549594,-0.159363047338366,0.00601));
#1569=CARTESIAN_POINT('',(0.085299594,-0.160799188,0.00567143782776615));
#1570=CARTESIAN_POINT('',(0.084549594,-0.160799188,0.00501));
#1571=CARTESIAN_POINT('',(0.084549594,-0.0458861406616345,0.00601));
#1572=CARTESIAN_POINT('',(0.0850276430264052,-0.0455532700458404,0.00601));
#1573=CARTESIAN_POINT('',(0.085299594,-0.04503146371037,0.00567143782776616));
#1574=CARTESIAN_POINT('',(0.085299594,-0.04445,0.00567143782776616));
#1575=CARTESIAN_POINT('',(0.030960812,-0.160799188,0.00501));
#1576=CARTESIAN_POINT('',(0.030960812,-0.160799188,0.00567143782776615));
#1577=CARTESIAN_POINT('',(0.030960812,-0.162549188,0.00567143782776615));
#1578=CARTESIAN_POINT('',(0.030960812,-0.161799188,0.00501));
#1579=CARTESIAN_POINT('',(0.083549594,-0.160799188,0.00501));
#1580=CARTESIAN_POINT('',(0.083549594,-0.160799188,0.00567143782776615));
#1581=CARTESIAN_POINT('',(0.083549594,-0.162549188,0.00567143782776615));
#1582=CARTESIAN_POINT('',(0.083549594,-0.161799188,0.00501));
#1583=CARTESIAN_POINT('',(0.057255203,-0.161799188,0.00501));
#1584=CARTESIAN_POINT('',(0.030960812,-0.162549188,0.00567143782776615));
#1585=CARTESIAN_POINT('',(0.0315435631505704,-0.162549188,0.00567143782776615));
#1586=CARTESIAN_POINT('',(0.0320646159269918,-0.162276470297975,0.00601));
#1587=CARTESIAN_POINT('',(0.0323969526616346,-0.161799188,0.00601));
#1588=CARTESIAN_POINT('',(0.0821134533383655,-0.161799188,0.00601));
#1589=CARTESIAN_POINT('',(0.0824463239541596,-0.162277237026405,0.00601));
#1590=CARTESIAN_POINT('',(0.0829681302896301,-0.162549188,0.00567143782776615));
#1591=CARTESIAN_POINT('',(0.083549594,-0.162549188,0.00567143782776615));
#1592=CARTESIAN_POINT('',(0.057255203,-0.102624594,0.00471));
#1593=CARTESIAN_POINT('',(0.083549594,-0.160799188,0.00471));
#1594=CARTESIAN_POINT('',(0.083549594,-0.162549188,0.00471));
#1595=CARTESIAN_POINT('',(0.083549594,-0.160799188,0.00471));
#1596=CARTESIAN_POINT('',(0.057255203,-0.102624594,0.00471));
#1597=CARTESIAN_POINT('',(0.030960812,-0.160799188,0.00471));
#1598=CARTESIAN_POINT('',(0.030960812,-0.162549188,0.00471));
#1599=CARTESIAN_POINT('',(0.030960812,-0.160799188,0.00471));
#1600=CARTESIAN_POINT('',(0.057255203,-0.102624594,0.00471));
#1601=CARTESIAN_POINT('',(0.083549594,-0.04445,0.00471));
#1602=CARTESIAN_POINT('',(0.083549594,-0.0462,0.00471));
#1603=CARTESIAN_POINT('',(0.083549594,-0.04445,0.00471));
#1604=CARTESIAN_POINT('',(0.057255203,-0.102624594,0.00471));
#1605=CARTESIAN_POINT('',(0.030960812,-0.04445,0.00471));
#1606=CARTESIAN_POINT('',(0.030960812,-0.0462,0.00471));
#1607=CARTESIAN_POINT('',(0.030960812,-0.04445,0.00471));
#1608=MECHANICAL_DESIGN_GEOMETRIC_PRESENTATION_REPRESENTATION('',(#915),
#1609);
#1609=(
GEOMETRIC_REPRESENTATION_CONTEXT(3)
GLOBAL_UNCERTAINTY_ASSIGNED_CONTEXT((#1610))
GLOBAL_UNIT_ASSIGNED_CONTEXT((#1613,#1612,#1611))
REPRESENTATION_CONTEXT('top','TOP_LEVEL_ASSEMBLY_PART')
);
#1610=UNCERTAINTY_MEASURE_WITH_UNIT(LENGTH_MEASURE(2.E-5),#1613,
'DISTANCE_ACCURACY_VALUE','Maximum Tolerance applied to model');
#1611=(
NAMED_UNIT(*)
SI_UNIT($,.STERADIAN.)
SOLID_ANGLE_UNIT()
);
#1612=(
NAMED_UNIT(*)
PLANE_ANGLE_UNIT()
SI_UNIT($,.RADIAN.)
);
#1613=(
LENGTH_UNIT()
NAMED_UNIT(*)
SI_UNIT($,.METRE.)
);
#1614=PRODUCT_DEFINITION_SHAPE('','',#1615);
#1615=PRODUCT_DEFINITION('','',#1617,#1616);
#1616=PRODUCT_DEFINITION_CONTEXT('',#1623,'design');
#1617=PRODUCT_DEFINITION_FORMATION_WITH_SPECIFIED_SOURCE('','',#1619,
 .NOT_KNOWN.);
#1618=PRODUCT_RELATED_PRODUCT_CATEGORY('','',(#1619));
#1619=PRODUCT('top','top','top',(#1621));
#1620=PRODUCT_CATEGORY('','');
#1621=PRODUCT_CONTEXT('',#1623,'mechanical');
#1622=APPLICATION_PROTOCOL_DEFINITION('international standard',
'ap242_managed_model_based_3d_engineering',2020,#1623);
#1623=APPLICATION_CONTEXT('managed model based 3d engineering');
ENDSEC;
END-ISO-10303-21;
