ISO-10303-21;
HEADER;
/* Generated by software containing ST-Developer
 * from STEP Tools, Inc. (www.steptools.com) 
 */
/* OPTION: using custom renumber hook */

FILE_DESCRIPTION(
/* description */ ('STEP AP242 Edition 2',
'CAx-IF Rec.Pracs.---Representation and Presentation of Product Manufa
cturing Information (PMI)---4.0---2014-10-13',
'CAx-IF Rec.Pracs.---3D Tessellated Geometry---0.4---2014-09-14','2;1',
'CAx-IF Rec.Pracs.---User Defined Attributes---1.5---2016-08-15'),
/* implementation_level */ '2;1');

FILE_NAME(
/* name */ 'Buttons - volume_button',
/* time_stamp */ '2026-06-21T16:04:16Z',
/* author */ (''),
/* organization */ (''),
/* preprocessor_version */ 'ST-DEVELOPER v20',
/* originating_system */ 'ONSHAPE BY PTC INC, 1.216',
/* authorisation */ '  ');

FILE_SCHEMA (('AP242_MANAGED_MODEL_BASED_3D_ENGINEERING_MIM_LF { 1 0 10303 442 3 1 4 }'));
ENDSEC;

DATA;
#10=SHAPE_REPRESENTATION_RELATIONSHIP('','',#357,#11);
#11=ADVANCED_BREP_SHAPE_REPRESENTATION('',(#355),#599);
#12=CIRCLE('',#361,0.001);
#13=CIRCLE('',#362,0.001);
#14=CIRCLE('',#365,0.001);
#15=CIRCLE('',#366,0.001);
#16=CIRCLE('',#369,0.00100000000000001);
#17=CIRCLE('',#370,0.00100000000000001);
#18=CIRCLE('',#373,0.00100000000000001);
#19=CIRCLE('',#374,0.00100000000000001);
#20=CIRCLE('',#381,0.001);
#21=CIRCLE('',#382,0.001);
#22=CIRCLE('',#383,0.001);
#23=CIRCLE('',#384,0.001);
#24=CIRCLE('',#386,0.001);
#25=CIRCLE('',#387,0.001);
#26=CIRCLE('',#388,0.001);
#27=CIRCLE('',#389,0.001);
#28=CYLINDRICAL_SURFACE('',#360,0.001);
#29=CYLINDRICAL_SURFACE('',#364,0.001);
#30=CYLINDRICAL_SURFACE('',#368,0.00100000000000001);
#31=CYLINDRICAL_SURFACE('',#372,0.00100000000000001);
#32=CYLINDRICAL_SURFACE('',#390,0.001);
#33=CYLINDRICAL_SURFACE('',#391,0.001);
#34=CYLINDRICAL_SURFACE('',#392,0.001);
#35=CYLINDRICAL_SURFACE('',#393,0.001);
#36=ORIENTED_EDGE('',*,*,#132,.T.);
#37=ORIENTED_EDGE('',*,*,#133,.F.);
#38=ORIENTED_EDGE('',*,*,#134,.F.);
#39=ORIENTED_EDGE('',*,*,#135,.T.);
#40=ORIENTED_EDGE('',*,*,#136,.T.);
#41=ORIENTED_EDGE('',*,*,#135,.F.);
#42=ORIENTED_EDGE('',*,*,#137,.F.);
#43=ORIENTED_EDGE('',*,*,#138,.T.);
#44=ORIENTED_EDGE('',*,*,#139,.T.);
#45=ORIENTED_EDGE('',*,*,#138,.F.);
#46=ORIENTED_EDGE('',*,*,#140,.F.);
#47=ORIENTED_EDGE('',*,*,#141,.T.);
#48=ORIENTED_EDGE('',*,*,#142,.F.);
#49=ORIENTED_EDGE('',*,*,#141,.F.);
#50=ORIENTED_EDGE('',*,*,#143,.T.);
#51=ORIENTED_EDGE('',*,*,#144,.T.);
#52=ORIENTED_EDGE('',*,*,#145,.F.);
#53=ORIENTED_EDGE('',*,*,#144,.F.);
#54=ORIENTED_EDGE('',*,*,#146,.T.);
#55=ORIENTED_EDGE('',*,*,#147,.T.);
#56=ORIENTED_EDGE('',*,*,#148,.F.);
#57=ORIENTED_EDGE('',*,*,#147,.F.);
#58=ORIENTED_EDGE('',*,*,#149,.T.);
#59=ORIENTED_EDGE('',*,*,#150,.T.);
#60=ORIENTED_EDGE('',*,*,#151,.F.);
#61=ORIENTED_EDGE('',*,*,#150,.F.);
#62=ORIENTED_EDGE('',*,*,#152,.T.);
#63=ORIENTED_EDGE('',*,*,#153,.T.);
#64=ORIENTED_EDGE('',*,*,#154,.T.);
#65=ORIENTED_EDGE('',*,*,#153,.F.);
#66=ORIENTED_EDGE('',*,*,#155,.F.);
#67=ORIENTED_EDGE('',*,*,#133,.T.);
#68=ORIENTED_EDGE('',*,*,#134,.T.);
#69=ORIENTED_EDGE('',*,*,#155,.T.);
#70=ORIENTED_EDGE('',*,*,#152,.F.);
#71=ORIENTED_EDGE('',*,*,#149,.F.);
#72=ORIENTED_EDGE('',*,*,#146,.F.);
#73=ORIENTED_EDGE('',*,*,#143,.F.);
#74=ORIENTED_EDGE('',*,*,#140,.T.);
#75=ORIENTED_EDGE('',*,*,#137,.T.);
#76=ORIENTED_EDGE('',*,*,#156,.T.);
#77=ORIENTED_EDGE('',*,*,#157,.T.);
#78=ORIENTED_EDGE('',*,*,#158,.F.);
#79=ORIENTED_EDGE('',*,*,#159,.T.);
#80=ORIENTED_EDGE('',*,*,#160,.F.);
#81=ORIENTED_EDGE('',*,*,#161,.T.);
#82=ORIENTED_EDGE('',*,*,#162,.T.);
#83=ORIENTED_EDGE('',*,*,#163,.T.);
#84=ORIENTED_EDGE('',*,*,#164,.F.);
#85=ORIENTED_EDGE('',*,*,#165,.T.);
#86=ORIENTED_EDGE('',*,*,#166,.T.);
#87=ORIENTED_EDGE('',*,*,#167,.T.);
#88=ORIENTED_EDGE('',*,*,#168,.F.);
#89=ORIENTED_EDGE('',*,*,#169,.T.);
#90=ORIENTED_EDGE('',*,*,#170,.T.);
#91=ORIENTED_EDGE('',*,*,#171,.T.);
#92=ORIENTED_EDGE('',*,*,#170,.F.);
#93=ORIENTED_EDGE('',*,*,#172,.T.);
#94=ORIENTED_EDGE('',*,*,#156,.F.);
#95=ORIENTED_EDGE('',*,*,#173,.T.);
#96=ORIENTED_EDGE('',*,*,#160,.T.);
#97=ORIENTED_EDGE('',*,*,#174,.T.);
#98=ORIENTED_EDGE('',*,*,#164,.T.);
#99=ORIENTED_EDGE('',*,*,#175,.T.);
#100=ORIENTED_EDGE('',*,*,#132,.F.);
#101=ORIENTED_EDGE('',*,*,#136,.F.);
#102=ORIENTED_EDGE('',*,*,#139,.F.);
#103=ORIENTED_EDGE('',*,*,#142,.T.);
#104=ORIENTED_EDGE('',*,*,#145,.T.);
#105=ORIENTED_EDGE('',*,*,#148,.T.);
#106=ORIENTED_EDGE('',*,*,#151,.T.);
#107=ORIENTED_EDGE('',*,*,#154,.F.);
#108=ORIENTED_EDGE('',*,*,#158,.T.);
#109=ORIENTED_EDGE('',*,*,#176,.T.);
#110=ORIENTED_EDGE('',*,*,#168,.T.);
#111=ORIENTED_EDGE('',*,*,#177,.T.);
#112=ORIENTED_EDGE('',*,*,#166,.F.);
#113=ORIENTED_EDGE('',*,*,#178,.T.);
#114=ORIENTED_EDGE('',*,*,#162,.F.);
#115=ORIENTED_EDGE('',*,*,#179,.T.);
#116=ORIENTED_EDGE('',*,*,#172,.F.);
#117=ORIENTED_EDGE('',*,*,#169,.F.);
#118=ORIENTED_EDGE('',*,*,#176,.F.);
#119=ORIENTED_EDGE('',*,*,#157,.F.);
#120=ORIENTED_EDGE('',*,*,#173,.F.);
#121=ORIENTED_EDGE('',*,*,#159,.F.);
#122=ORIENTED_EDGE('',*,*,#179,.F.);
#123=ORIENTED_EDGE('',*,*,#161,.F.);
#124=ORIENTED_EDGE('',*,*,#174,.F.);
#125=ORIENTED_EDGE('',*,*,#163,.F.);
#126=ORIENTED_EDGE('',*,*,#178,.F.);
#127=ORIENTED_EDGE('',*,*,#165,.F.);
#128=ORIENTED_EDGE('',*,*,#175,.F.);
#129=ORIENTED_EDGE('',*,*,#167,.F.);
#130=ORIENTED_EDGE('',*,*,#177,.F.);
#131=ORIENTED_EDGE('',*,*,#171,.F.);
#132=EDGE_CURVE('',#180,#181,#212,.T.);
#133=EDGE_CURVE('',#182,#181,#213,.T.);
#134=EDGE_CURVE('',#183,#182,#214,.T.);
#135=EDGE_CURVE('',#183,#180,#215,.T.);
#136=EDGE_CURVE('',#184,#180,#12,.T.);
#137=EDGE_CURVE('',#185,#183,#13,.T.);
#138=EDGE_CURVE('',#185,#184,#216,.T.);
#139=EDGE_CURVE('',#186,#184,#217,.T.);
#140=EDGE_CURVE('',#187,#185,#218,.T.);
#141=EDGE_CURVE('',#187,#186,#219,.T.);
#142=EDGE_CURVE('',#186,#188,#14,.T.);
#143=EDGE_CURVE('',#187,#189,#15,.T.);
#144=EDGE_CURVE('',#189,#188,#220,.T.);
#145=EDGE_CURVE('',#188,#190,#221,.T.);
#146=EDGE_CURVE('',#189,#191,#222,.T.);
#147=EDGE_CURVE('',#191,#190,#223,.T.);
#148=EDGE_CURVE('',#190,#192,#16,.T.);
#149=EDGE_CURVE('',#191,#193,#17,.T.);
#150=EDGE_CURVE('',#193,#192,#224,.T.);
#151=EDGE_CURVE('',#192,#194,#225,.T.);
#152=EDGE_CURVE('',#193,#195,#226,.T.);
#153=EDGE_CURVE('',#195,#194,#227,.T.);
#154=EDGE_CURVE('',#181,#194,#18,.T.);
#155=EDGE_CURVE('',#182,#195,#19,.T.);
#156=EDGE_CURVE('',#196,#197,#228,.T.);
#157=EDGE_CURVE('',#197,#198,#229,.T.);
#158=EDGE_CURVE('',#199,#198,#230,.T.);
#159=EDGE_CURVE('',#199,#196,#231,.F.);
#160=EDGE_CURVE('',#200,#201,#232,.T.);
#161=EDGE_CURVE('',#200,#202,#233,.T.);
#162=EDGE_CURVE('',#202,#203,#234,.T.);
#163=EDGE_CURVE('',#203,#201,#235,.F.);
#164=EDGE_CURVE('',#204,#205,#236,.T.);
#165=EDGE_CURVE('',#204,#206,#237,.T.);
#166=EDGE_CURVE('',#206,#207,#238,.T.);
#167=EDGE_CURVE('',#207,#205,#239,.F.);
#168=EDGE_CURVE('',#208,#209,#240,.T.);
#169=EDGE_CURVE('',#208,#210,#241,.F.);
#170=EDGE_CURVE('',#210,#211,#242,.T.);
#171=EDGE_CURVE('',#211,#209,#243,.T.);
#172=EDGE_CURVE('',#210,#197,#20,.T.);
#173=EDGE_CURVE('',#196,#200,#21,.T.);
#174=EDGE_CURVE('',#201,#204,#22,.T.);
#175=EDGE_CURVE('',#205,#211,#23,.T.);
#176=EDGE_CURVE('',#198,#208,#24,.F.);
#177=EDGE_CURVE('',#209,#207,#25,.F.);
#178=EDGE_CURVE('',#206,#203,#26,.F.);
#179=EDGE_CURVE('',#202,#199,#27,.F.);
#180=VERTEX_POINT('',#501);
#181=VERTEX_POINT('',#502);
#182=VERTEX_POINT('',#504);
#183=VERTEX_POINT('',#506);
#184=VERTEX_POINT('',#510);
#185=VERTEX_POINT('',#512);
#186=VERTEX_POINT('',#516);
#187=VERTEX_POINT('',#518);
#188=VERTEX_POINT('',#522);
#189=VERTEX_POINT('',#524);
#190=VERTEX_POINT('',#528);
#191=VERTEX_POINT('',#530);
#192=VERTEX_POINT('',#534);
#193=VERTEX_POINT('',#536);
#194=VERTEX_POINT('',#540);
#195=VERTEX_POINT('',#542);
#196=VERTEX_POINT('',#550);
#197=VERTEX_POINT('',#551);
#198=VERTEX_POINT('',#553);
#199=VERTEX_POINT('',#555);
#200=VERTEX_POINT('',#559);
#201=VERTEX_POINT('',#560);
#202=VERTEX_POINT('',#562);
#203=VERTEX_POINT('',#564);
#204=VERTEX_POINT('',#568);
#205=VERTEX_POINT('',#569);
#206=VERTEX_POINT('',#571);
#207=VERTEX_POINT('',#573);
#208=VERTEX_POINT('',#577);
#209=VERTEX_POINT('',#578);
#210=VERTEX_POINT('',#580);
#211=VERTEX_POINT('',#582);
#212=LINE('',#500,#244);
#213=LINE('',#503,#245);
#214=LINE('',#505,#246);
#215=LINE('',#507,#247);
#216=LINE('',#513,#248);
#217=LINE('',#515,#249);
#218=LINE('',#517,#250);
#219=LINE('',#519,#251);
#220=LINE('',#525,#252);
#221=LINE('',#527,#253);
#222=LINE('',#529,#254);
#223=LINE('',#531,#255);
#224=LINE('',#537,#256);
#225=LINE('',#539,#257);
#226=LINE('',#541,#258);
#227=LINE('',#543,#259);
#228=LINE('',#549,#260);
#229=LINE('',#552,#261);
#230=LINE('',#554,#262);
#231=LINE('',#556,#263);
#232=LINE('',#558,#264);
#233=LINE('',#561,#265);
#234=LINE('',#563,#266);
#235=LINE('',#565,#267);
#236=LINE('',#567,#268);
#237=LINE('',#570,#269);
#238=LINE('',#572,#270);
#239=LINE('',#574,#271);
#240=LINE('',#576,#272);
#241=LINE('',#579,#273);
#242=LINE('',#581,#274);
#243=LINE('',#583,#275);
#244=VECTOR('',#398,1.);
#245=VECTOR('',#399,1.);
#246=VECTOR('',#400,1.);
#247=VECTOR('',#401,1.);
#248=VECTOR('',#408,1.);
#249=VECTOR('',#411,1.);
#250=VECTOR('',#412,1.);
#251=VECTOR('',#413,1.);
#252=VECTOR('',#420,1.);
#253=VECTOR('',#423,1.);
#254=VECTOR('',#424,1.);
#255=VECTOR('',#425,1.);
#256=VECTOR('',#432,1.);
#257=VECTOR('',#435,1.);
#258=VECTOR('',#436,1.);
#259=VECTOR('',#437,1.);
#260=VECTOR('',#448,1.);
#261=VECTOR('',#449,1.);
#262=VECTOR('',#450,1.);
#263=VECTOR('',#451,1.);
#264=VECTOR('',#454,1.);
#265=VECTOR('',#455,1.);
#266=VECTOR('',#456,1.);
#267=VECTOR('',#457,1.);
#268=VECTOR('',#460,1.);
#269=VECTOR('',#461,1.);
#270=VECTOR('',#462,1.);
#271=VECTOR('',#463,1.);
#272=VECTOR('',#466,1.);
#273=VECTOR('',#467,1.);
#274=VECTOR('',#468,1.);
#275=VECTOR('',#469,1.);
#276=EDGE_LOOP('',(#36,#37,#38,#39));
#277=EDGE_LOOP('',(#40,#41,#42,#43));
#278=EDGE_LOOP('',(#44,#45,#46,#47));
#279=EDGE_LOOP('',(#48,#49,#50,#51));
#280=EDGE_LOOP('',(#52,#53,#54,#55));
#281=EDGE_LOOP('',(#56,#57,#58,#59));
#282=EDGE_LOOP('',(#60,#61,#62,#63));
#283=EDGE_LOOP('',(#64,#65,#66,#67));
#284=EDGE_LOOP('',(#68,#69,#70,#71,#72,#73,#74,#75));
#285=EDGE_LOOP('',(#76,#77,#78,#79));
#286=EDGE_LOOP('',(#80,#81,#82,#83));
#287=EDGE_LOOP('',(#84,#85,#86,#87));
#288=EDGE_LOOP('',(#88,#89,#90,#91));
#289=EDGE_LOOP('',(#92,#93,#94,#95,#96,#97,#98,#99));
#290=EDGE_LOOP('',(#100,#101,#102,#103,#104,#105,#106,#107));
#291=EDGE_LOOP('',(#108,#109,#110,#111,#112,#113,#114,#115));
#292=EDGE_LOOP('',(#116,#117,#118,#119));
#293=EDGE_LOOP('',(#120,#121,#122,#123));
#294=EDGE_LOOP('',(#124,#125,#126,#127));
#295=EDGE_LOOP('',(#128,#129,#130,#131));
#296=FACE_BOUND('',#276,.T.);
#297=FACE_BOUND('',#277,.T.);
#298=FACE_BOUND('',#278,.T.);
#299=FACE_BOUND('',#279,.T.);
#300=FACE_BOUND('',#280,.T.);
#301=FACE_BOUND('',#281,.T.);
#302=FACE_BOUND('',#282,.T.);
#303=FACE_BOUND('',#283,.T.);
#304=FACE_BOUND('',#284,.T.);
#305=FACE_BOUND('',#285,.T.);
#306=FACE_BOUND('',#286,.T.);
#307=FACE_BOUND('',#287,.T.);
#308=FACE_BOUND('',#288,.T.);
#309=FACE_BOUND('',#289,.T.);
#310=FACE_BOUND('',#290,.T.);
#311=FACE_BOUND('',#291,.T.);
#312=FACE_BOUND('',#292,.T.);
#313=FACE_BOUND('',#293,.T.);
#314=FACE_BOUND('',#294,.T.);
#315=FACE_BOUND('',#295,.T.);
#316=PLANE('',#359);
#317=PLANE('',#363);
#318=PLANE('',#367);
#319=PLANE('',#371);
#320=PLANE('',#375);
#321=PLANE('',#376);
#322=PLANE('',#377);
#323=PLANE('',#378);
#324=PLANE('',#379);
#325=PLANE('',#380);
#326=PLANE('',#385);
#327=ADVANCED_FACE('',(#296),#316,.F.);
#328=ADVANCED_FACE('',(#297),#28,.T.);
#329=ADVANCED_FACE('',(#298),#317,.F.);
#330=ADVANCED_FACE('',(#299),#29,.T.);
#331=ADVANCED_FACE('',(#300),#318,.T.);
#332=ADVANCED_FACE('',(#301),#30,.T.);
#333=ADVANCED_FACE('',(#302),#319,.T.);
#334=ADVANCED_FACE('',(#303),#31,.T.);
#335=ADVANCED_FACE('',(#304),#320,.F.);
#336=ADVANCED_FACE('',(#305),#321,.T.);
#337=ADVANCED_FACE('',(#306),#322,.F.);
#338=ADVANCED_FACE('',(#307),#323,.F.);
#339=ADVANCED_FACE('',(#308),#324,.T.);
#340=ADVANCED_FACE('',(#309),#325,.T.);
#341=ADVANCED_FACE('',(#310,#311),#326,.F.);
#342=ADVANCED_FACE('',(#312),#32,.T.);
#343=ADVANCED_FACE('',(#313),#33,.T.);
#344=ADVANCED_FACE('',(#314),#34,.T.);
#345=ADVANCED_FACE('',(#315),#35,.T.);
#346=CLOSED_SHELL('',(#327,#328,#329,#330,#331,#332,#333,#334,#335,#336,
#337,#338,#339,#340,#341,#342,#343,#344,#345));
#347=STYLED_ITEM('',(#348),#355);
#348=PRESENTATION_STYLE_ASSIGNMENT((#349));
#349=SURFACE_STYLE_USAGE(.BOTH.,#350);
#350=SURFACE_SIDE_STYLE('',(#351));
#351=SURFACE_STYLE_FILL_AREA(#352);
#352=FILL_AREA_STYLE('',(#353));
#353=FILL_AREA_STYLE_COLOUR('',#354);
#354=COLOUR_RGB('',0.231372549019608,0.380392156862745,0.705882352941177);
#355=MANIFOLD_SOLID_BREP('volume_button',#346);
#356=SHAPE_DEFINITION_REPRESENTATION(#604,#357);
#357=SHAPE_REPRESENTATION('volume_button',(#358),#599);
#358=AXIS2_PLACEMENT_3D('',#498,#394,#395);
#359=AXIS2_PLACEMENT_3D('',#499,#396,#397);
#360=AXIS2_PLACEMENT_3D('',#508,#402,#403);
#361=AXIS2_PLACEMENT_3D('',#509,#404,#405);
#362=AXIS2_PLACEMENT_3D('',#511,#406,#407);
#363=AXIS2_PLACEMENT_3D('',#514,#409,#410);
#364=AXIS2_PLACEMENT_3D('',#520,#414,#415);
#365=AXIS2_PLACEMENT_3D('',#521,#416,#417);
#366=AXIS2_PLACEMENT_3D('',#523,#418,#419);
#367=AXIS2_PLACEMENT_3D('',#526,#421,#422);
#368=AXIS2_PLACEMENT_3D('',#532,#426,#427);
#369=AXIS2_PLACEMENT_3D('',#533,#428,#429);
#370=AXIS2_PLACEMENT_3D('',#535,#430,#431);
#371=AXIS2_PLACEMENT_3D('',#538,#433,#434);
#372=AXIS2_PLACEMENT_3D('',#544,#438,#439);
#373=AXIS2_PLACEMENT_3D('',#545,#440,#441);
#374=AXIS2_PLACEMENT_3D('',#546,#442,#443);
#375=AXIS2_PLACEMENT_3D('',#547,#444,#445);
#376=AXIS2_PLACEMENT_3D('',#548,#446,#447);
#377=AXIS2_PLACEMENT_3D('',#557,#452,#453);
#378=AXIS2_PLACEMENT_3D('',#566,#458,#459);
#379=AXIS2_PLACEMENT_3D('',#575,#464,#465);
#380=AXIS2_PLACEMENT_3D('',#584,#470,#471);
#381=AXIS2_PLACEMENT_3D('',#585,#472,#473);
#382=AXIS2_PLACEMENT_3D('',#586,#474,#475);
#383=AXIS2_PLACEMENT_3D('',#587,#476,#477);
#384=AXIS2_PLACEMENT_3D('',#588,#478,#479);
#385=AXIS2_PLACEMENT_3D('',#589,#480,#481);
#386=AXIS2_PLACEMENT_3D('',#590,#482,#483);
#387=AXIS2_PLACEMENT_3D('',#591,#484,#485);
#388=AXIS2_PLACEMENT_3D('',#592,#486,#487);
#389=AXIS2_PLACEMENT_3D('',#593,#488,#489);
#390=AXIS2_PLACEMENT_3D('',#594,#490,#491);
#391=AXIS2_PLACEMENT_3D('',#595,#492,#493);
#392=AXIS2_PLACEMENT_3D('',#596,#494,#495);
#393=AXIS2_PLACEMENT_3D('',#597,#496,#497);
#394=DIRECTION('',(0.,0.,1.));
#395=DIRECTION('',(1.,0.,0.));
#396=DIRECTION('',(-1.43689373047979E-32,1.20466908053945E-16,1.));
#397=DIRECTION('',(0.,-1.,1.20466908053945E-16));
#398=DIRECTION('',(1.19277049082753E-16,-1.,1.20466908053945E-16));
#399=DIRECTION('',(1.,1.19277049082753E-16,0.));
#400=DIRECTION('',(1.19277049082753E-16,-1.,1.20466908053945E-16));
#401=DIRECTION('',(1.,1.19277049082753E-16,0.));
#402=DIRECTION('',(1.,1.19277049082753E-16,0.));
#403=DIRECTION('',(1.19277049082753E-16,-1.,0.));
#404=DIRECTION('',(-1.,-1.19277049082753E-16,0.));
#405=DIRECTION('',(1.19277049082753E-16,-1.,0.));
#406=DIRECTION('',(-1.,-1.19277049082753E-16,0.));
#407=DIRECTION('',(1.19277049082753E-16,-1.,0.));
#408=DIRECTION('',(1.,1.19277049082753E-16,0.));
#409=DIRECTION('',(1.19277049082753E-16,-1.,0.));
#410=DIRECTION('',(-1.,-1.19277049082753E-16,0.));
#411=DIRECTION('',(0.,0.,-1.));
#412=DIRECTION('',(0.,0.,-1.));
#413=DIRECTION('',(1.,1.19277049082753E-16,0.));
#414=DIRECTION('',(1.,1.19277049082753E-16,0.));
#415=DIRECTION('',(1.19277049082753E-16,-1.,0.));
#416=DIRECTION('',(1.,1.19277049082753E-16,0.));
#417=DIRECTION('',(1.19277049082753E-16,-1.,0.));
#418=DIRECTION('',(1.,1.19277049082753E-16,0.));
#419=DIRECTION('',(1.19277049082753E-16,-1.,0.));
#420=DIRECTION('',(1.,1.19277049082753E-16,0.));
#421=DIRECTION('',(-1.07767029785984E-32,9.03501810404589E-17,1.));
#422=DIRECTION('',(0.,-1.,9.03501810404589E-17));
#423=DIRECTION('',(1.19277049082753E-16,-1.,9.03501810404589E-17));
#424=DIRECTION('',(1.19277049082753E-16,-1.,9.03501810404589E-17));
#425=DIRECTION('',(1.,1.19277049082753E-16,0.));
#426=DIRECTION('',(1.,1.19277049082753E-16,0.));
#427=DIRECTION('',(1.19277049082753E-16,-1.,0.));
#428=DIRECTION('',(1.,1.19277049082753E-16,0.));
#429=DIRECTION('',(1.19277049082753E-16,-1.,0.));
#430=DIRECTION('',(1.,1.19277049082753E-16,0.));
#431=DIRECTION('',(1.19277049082753E-16,-1.,0.));
#432=DIRECTION('',(1.,1.19277049082753E-16,0.));
#433=DIRECTION('',(1.19277049082753E-16,-1.,0.));
#434=DIRECTION('',(-1.,-1.19277049082753E-16,0.));
#435=DIRECTION('',(0.,0.,-1.));
#436=DIRECTION('',(0.,0.,-1.));
#437=DIRECTION('',(1.,1.19277049082753E-16,0.));
#438=DIRECTION('',(1.,1.19277049082753E-16,0.));
#439=DIRECTION('',(1.19277049082753E-16,-1.,0.));
#440=DIRECTION('',(-1.,-1.19277049082753E-16,0.));
#441=DIRECTION('',(1.19277049082753E-16,-1.,0.));
#442=DIRECTION('',(-1.,-1.19277049082753E-16,0.));
#443=DIRECTION('',(1.19277049082753E-16,-1.,0.));
#444=DIRECTION('',(1.,1.19277049082753E-16,0.));
#445=DIRECTION('',(0.,0.,-1.));
#446=DIRECTION('',(2.18527588177135E-32,-1.83210089332042E-16,1.));
#447=DIRECTION('',(0.,-1.,-1.83210089332042E-16));
#448=DIRECTION('',(-1.19277049082753E-16,1.,1.83210089332042E-16));
#449=DIRECTION('',(-1.,-1.19277049082753E-16,-5.47382212626882E-48));
#450=DIRECTION('',(-1.19277049082753E-16,1.,1.83210089332042E-16));
#451=DIRECTION('',(-1.,-1.19277049082753E-16,-5.47382212626882E-48));
#452=DIRECTION('',(-1.19277049082753E-16,1.,0.));
#453=DIRECTION('',(1.,1.19277049082753E-16,0.));
#454=DIRECTION('',(0.,0.,-1.));
#455=DIRECTION('',(-1.,-1.19277049082753E-16,-5.47382212626882E-48));
#456=DIRECTION('',(0.,0.,-1.));
#457=DIRECTION('',(-1.,-1.19277049082753E-16,-2.73691106313441E-48));
#458=DIRECTION('',(1.91585830730639E-32,-1.60622544071927E-16,1.));
#459=DIRECTION('',(0.,-1.,-1.60622544071927E-16));
#460=DIRECTION('',(-1.19277049082753E-16,1.,1.60622544071927E-16));
#461=DIRECTION('',(-1.,-1.19277049082753E-16,-2.73691106313441E-48));
#462=DIRECTION('',(-1.19277049082753E-16,1.,1.60622544071927E-16));
#463=DIRECTION('',(-1.,-1.19277049082753E-16,-2.73691106313441E-48));
#464=DIRECTION('',(-1.19277049082753E-16,1.,0.));
#465=DIRECTION('',(1.,1.19277049082753E-16,0.));
#466=DIRECTION('',(0.,0.,-1.));
#467=DIRECTION('',(-1.,-1.19277049082753E-16,-5.47382212626882E-48));
#468=DIRECTION('',(0.,0.,-1.));
#469=DIRECTION('',(-1.,-1.19277049082753E-16,-2.73691106313441E-48));
#470=DIRECTION('',(1.,1.19277049082753E-16,0.));
#471=DIRECTION('',(0.,0.,-1.));
#472=DIRECTION('',(1.,1.19277049082753E-16,0.));
#473=DIRECTION('',(1.19277049082753E-16,-1.,0.));
#474=DIRECTION('',(1.,1.19277049082753E-16,0.));
#475=DIRECTION('',(1.19277049082753E-16,-1.,0.));
#476=DIRECTION('',(1.,1.19277049082753E-16,0.));
#477=DIRECTION('',(1.19277049082753E-16,-1.,0.));
#478=DIRECTION('',(1.,1.19277049082753E-16,0.));
#479=DIRECTION('',(1.19277049082753E-16,-1.,0.));
#480=DIRECTION('',(1.,1.19277049082753E-16,0.));
#481=DIRECTION('',(0.,0.,-1.));
#482=DIRECTION('',(1.,1.19277049082753E-16,0.));
#483=DIRECTION('',(1.19277049082753E-16,-1.,0.));
#484=DIRECTION('',(1.,1.19277049082753E-16,0.));
#485=DIRECTION('',(1.19277049082753E-16,-1.,0.));
#486=DIRECTION('',(1.,1.19277049082753E-16,0.));
#487=DIRECTION('',(1.19277049082753E-16,-1.,0.));
#488=DIRECTION('',(1.,1.19277049082753E-16,0.));
#489=DIRECTION('',(1.19277049082753E-16,-1.,0.));
#490=DIRECTION('',(-1.,-1.19277049082753E-16,-5.47382212626882E-48));
#491=DIRECTION('',(-1.19277049082753E-16,1.,0.));
#492=DIRECTION('',(1.,1.19277049082753E-16,5.47382212626882E-48));
#493=DIRECTION('',(1.19277049082753E-16,-1.,0.));
#494=DIRECTION('',(-1.,-1.19277049082753E-16,-2.73691106313441E-48));
#495=DIRECTION('',(-1.19277049082753E-16,1.,0.));
#496=DIRECTION('',(1.,1.19277049082753E-16,2.73691106313441E-48));
#497=DIRECTION('',(1.19277049082753E-16,-1.,0.));
#498=CARTESIAN_POINT('',(0.,0.,0.));
#499=CARTESIAN_POINT('',(0.027960812,-0.07403,-0.003895));
#500=CARTESIAN_POINT('',(0.030960812,-0.07403,-0.003895));
#501=CARTESIAN_POINT('',(0.030960812,-0.07043,-0.003895));
#502=CARTESIAN_POINT('',(0.030960812,-0.07763,-0.003895));
#503=CARTESIAN_POINT('',(0.027960812,-0.07763,-0.003895));
#504=CARTESIAN_POINT('',(0.027960812,-0.07763,-0.003895));
#505=CARTESIAN_POINT('',(0.027960812,-0.07403,-0.003895));
#506=CARTESIAN_POINT('',(0.027960812,-0.07043,-0.003895));
#507=CARTESIAN_POINT('',(0.027960812,-0.07043,-0.003895));
#508=CARTESIAN_POINT('',(0.027960812,-0.07043,-0.002895));
#509=CARTESIAN_POINT('',(0.030960812,-0.07043,-0.002895));
#510=CARTESIAN_POINT('',(0.030960812,-0.06943,-0.002895));
#511=CARTESIAN_POINT('',(0.027960812,-0.07043,-0.002895));
#512=CARTESIAN_POINT('',(0.027960812,-0.06943,-0.002895));
#513=CARTESIAN_POINT('',(0.027960812,-0.06943,-0.002895));
#514=CARTESIAN_POINT('',(0.027960812,-0.06943,-0.00224));
#515=CARTESIAN_POINT('',(0.030960812,-0.06943,-0.00224));
#516=CARTESIAN_POINT('',(0.030960812,-0.06943,-0.001585));
#517=CARTESIAN_POINT('',(0.027960812,-0.06943,-0.00224));
#518=CARTESIAN_POINT('',(0.027960812,-0.06943,-0.001585));
#519=CARTESIAN_POINT('',(0.027960812,-0.06943,-0.001585));
#520=CARTESIAN_POINT('',(0.027960812,-0.07043,-0.001585));
#521=CARTESIAN_POINT('',(0.030960812,-0.07043,-0.001585));
#522=CARTESIAN_POINT('',(0.030960812,-0.07043,-0.000585));
#523=CARTESIAN_POINT('',(0.027960812,-0.07043,-0.001585));
#524=CARTESIAN_POINT('',(0.027960812,-0.07043,-0.000585));
#525=CARTESIAN_POINT('',(0.027960812,-0.07043,-0.000585));
#526=CARTESIAN_POINT('',(0.027960812,-0.07403,-0.000585));
#527=CARTESIAN_POINT('',(0.030960812,-0.07403,-0.000585));
#528=CARTESIAN_POINT('',(0.030960812,-0.07763,-0.000585));
#529=CARTESIAN_POINT('',(0.027960812,-0.07403,-0.000585));
#530=CARTESIAN_POINT('',(0.027960812,-0.07763,-0.000585));
#531=CARTESIAN_POINT('',(0.027960812,-0.07763,-0.000585));
#532=CARTESIAN_POINT('',(0.027960812,-0.07763,-0.00158500000000002));
#533=CARTESIAN_POINT('',(0.030960812,-0.07763,-0.00158500000000002));
#534=CARTESIAN_POINT('',(0.030960812,-0.07863,-0.001585));
#535=CARTESIAN_POINT('',(0.027960812,-0.07763,-0.00158500000000002));
#536=CARTESIAN_POINT('',(0.027960812,-0.07863,-0.001585));
#537=CARTESIAN_POINT('',(0.027960812,-0.07863,-0.001585));
#538=CARTESIAN_POINT('',(0.027960812,-0.07863,-0.00224));
#539=CARTESIAN_POINT('',(0.030960812,-0.07863,-0.00224));
#540=CARTESIAN_POINT('',(0.030960812,-0.07863,-0.002895));
#541=CARTESIAN_POINT('',(0.027960812,-0.07863,-0.00224));
#542=CARTESIAN_POINT('',(0.027960812,-0.07863,-0.002895));
#543=CARTESIAN_POINT('',(0.027960812,-0.07863,-0.002895));
#544=CARTESIAN_POINT('',(0.027960812,-0.07763,-0.002895));
#545=CARTESIAN_POINT('',(0.030960812,-0.07763,-0.002895));
#546=CARTESIAN_POINT('',(0.027960812,-0.07763,-0.002895));
#547=CARTESIAN_POINT('',(0.027960812,-0.102024594,-0.00234));
#548=CARTESIAN_POINT('',(0.032460812,-0.07403,0.000215));
#549=CARTESIAN_POINT('',(0.032460812,-0.07403,0.000215));
#550=CARTESIAN_POINT('',(0.032460812,-0.07843,0.000215));
#551=CARTESIAN_POINT('',(0.032460812,-0.06963,0.000215));
#552=CARTESIAN_POINT('',(0.032460812,-0.06963,0.000215));
#553=CARTESIAN_POINT('',(0.030960812,-0.06963,0.000215));
#554=CARTESIAN_POINT('',(0.030960812,-0.07403,0.000215));
#555=CARTESIAN_POINT('',(0.030960812,-0.07843,0.000215));
#556=CARTESIAN_POINT('',(0.032460812,-0.07843,0.000215));
#557=CARTESIAN_POINT('',(0.032460812,-0.07943,-0.00224));
#558=CARTESIAN_POINT('',(0.032460812,-0.07943,-0.00224));
#559=CARTESIAN_POINT('',(0.032460812,-0.07943,-0.000785));
#560=CARTESIAN_POINT('',(0.032460812,-0.07943,-0.003695));
#561=CARTESIAN_POINT('',(0.030960812,-0.07943,-0.000785));
#562=CARTESIAN_POINT('',(0.030960812,-0.07943,-0.000785));
#563=CARTESIAN_POINT('',(0.030960812,-0.07943,-0.00224));
#564=CARTESIAN_POINT('',(0.030960812,-0.07943,-0.003695));
#565=CARTESIAN_POINT('',(0.032460812,-0.07943,-0.003695));
#566=CARTESIAN_POINT('',(0.032460812,-0.07403,-0.004695));
#567=CARTESIAN_POINT('',(0.032460812,-0.07403,-0.004695));
#568=CARTESIAN_POINT('',(0.032460812,-0.07843,-0.004695));
#569=CARTESIAN_POINT('',(0.032460812,-0.06963,-0.004695));
#570=CARTESIAN_POINT('',(0.032460812,-0.07843,-0.004695));
#571=CARTESIAN_POINT('',(0.030960812,-0.07843,-0.004695));
#572=CARTESIAN_POINT('',(0.030960812,-0.07403,-0.004695));
#573=CARTESIAN_POINT('',(0.030960812,-0.06963,-0.004695));
#574=CARTESIAN_POINT('',(0.032460812,-0.06963,-0.004695));
#575=CARTESIAN_POINT('',(0.032460812,-0.06863,-0.00224));
#576=CARTESIAN_POINT('',(0.030960812,-0.06863,-0.00224));
#577=CARTESIAN_POINT('',(0.030960812,-0.06863,-0.000785));
#578=CARTESIAN_POINT('',(0.030960812,-0.06863,-0.003695));
#579=CARTESIAN_POINT('',(0.032460812,-0.06863,-0.000785));
#580=CARTESIAN_POINT('',(0.032460812,-0.06863,-0.000785));
#581=CARTESIAN_POINT('',(0.032460812,-0.06863,-0.00224));
#582=CARTESIAN_POINT('',(0.032460812,-0.06863,-0.003695));
#583=CARTESIAN_POINT('',(0.030960812,-0.06863,-0.003695));
#584=CARTESIAN_POINT('',(0.032460812,-0.07403,-0.00224));
#585=CARTESIAN_POINT('',(0.032460812,-0.06963,-0.000785));
#586=CARTESIAN_POINT('',(0.032460812,-0.07843,-0.000785));
#587=CARTESIAN_POINT('',(0.032460812,-0.07843,-0.003695));
#588=CARTESIAN_POINT('',(0.032460812,-0.06963,-0.003695));
#589=CARTESIAN_POINT('',(0.030960812,-0.07403,-0.00224));
#590=CARTESIAN_POINT('',(0.030960812,-0.06963,-0.000785));
#591=CARTESIAN_POINT('',(0.030960812,-0.06963,-0.003695));
#592=CARTESIAN_POINT('',(0.030960812,-0.07843,-0.003695));
#593=CARTESIAN_POINT('',(0.030960812,-0.07843,-0.000785));
#594=CARTESIAN_POINT('',(0.032460812,-0.06963,-0.000785));
#595=CARTESIAN_POINT('',(0.032460812,-0.07843,-0.000785));
#596=CARTESIAN_POINT('',(0.032460812,-0.07843,-0.003695));
#597=CARTESIAN_POINT('',(0.032460812,-0.06963,-0.003695));
#598=MECHANICAL_DESIGN_GEOMETRIC_PRESENTATION_REPRESENTATION('',(#347),
#599);
#599=(
GEOMETRIC_REPRESENTATION_CONTEXT(3)
GLOBAL_UNCERTAINTY_ASSIGNED_CONTEXT((#600))
GLOBAL_UNIT_ASSIGNED_CONTEXT((#603,#602,#601))
REPRESENTATION_CONTEXT('volume_button','TOP_LEVEL_ASSEMBLY_PART')
);
#600=UNCERTAINTY_MEASURE_WITH_UNIT(LENGTH_MEASURE(1.E-8),#603,
'DISTANCE_ACCURACY_VALUE','Maximum Tolerance applied to model');
#601=(
NAMED_UNIT(*)
SI_UNIT($,.STERADIAN.)
SOLID_ANGLE_UNIT()
);
#602=(
NAMED_UNIT(*)
PLANE_ANGLE_UNIT()
SI_UNIT($,.RADIAN.)
);
#603=(
LENGTH_UNIT()
NAMED_UNIT(*)
SI_UNIT($,.METRE.)
);
#604=PRODUCT_DEFINITION_SHAPE('','',#605);
#605=PRODUCT_DEFINITION('','',#607,#606);
#606=PRODUCT_DEFINITION_CONTEXT('',#613,'design');
#607=PRODUCT_DEFINITION_FORMATION_WITH_SPECIFIED_SOURCE('','',#609,
 .NOT_KNOWN.);
#608=PRODUCT_RELATED_PRODUCT_CATEGORY('','',(#609));
#609=PRODUCT('volume_button','volume_button','volume_button',(#611));
#610=PRODUCT_CATEGORY('','');
#611=PRODUCT_CONTEXT('',#613,'mechanical');
#612=APPLICATION_PROTOCOL_DEFINITION('international standard',
'ap242_managed_model_based_3d_engineering',2020,#613);
#613=APPLICATION_CONTEXT('managed model based 3d engineering');
ENDSEC;
END-ISO-10303-21;
